<svg width="22" height="22" viewBox="0 0 22 22" fill="none" xmlns="http://www.w3.org/2000/svg">
<path d="M11.8136 8.24657C11.1801 8.06753 10.5053 8.10214 9.89344 8.34504C9.28158 8.58795 8.76677 9.02562 8.42857 9.59041C8.09037 10.1552 7.94762 10.8157 8.02237 11.4697C8.09713 12.1238 8.38523 12.735 8.84215 13.2089C9.29907 13.6828 9.89937 13.993 10.5503 14.0916C11.2011 14.1902 11.8664 14.0716 12.4431 13.7542C13.0199 13.4369 13.476 12.9384 13.7411 12.3358C14.0062 11.7332 14.0654 11.0601 13.9096 10.4205M7.92308 4.84615C7.99215 4.80407 8.06363 4.76689 8.13457 4.7342M8.13457 4.7342C8.19627 4.70577 8.25755 4.68072 8.31647 4.65879C8.59827 4.55388 8.84092 4.33947 8.91891 4.04905L9.58468 1.56973C9.67493 1.23364 9.97959 1 10.3276 1H11.6724C12.0204 1 12.3251 1.23364 12.4153 1.56974L13.0811 4.04905C13.1591 4.33947 13.4017 4.55388 13.6835 4.65879M8.13457 4.7342C8.04991 4.76007 7.96856 4.79156 7.89352 4.82469C7.61879 4.94599 7.29641 4.96823 7.03566 4.81923L5.14516 3.73894C4.84398 3.56684 4.46488 3.61761 4.21959 3.86289L3.43425 4.64824C3.18896 4.89352 3.13819 5.27263 3.3103 5.57381L4.46154 7.15385C4.61054 7.4146 4.96746 7.64834 4.84615 7.92308M8.13457 4.7342C8.16307 4.72549 8.19195 4.71742 8.22108 4.71013M13.6835 4.65879C13.7419 4.68051 13.8025 4.70528 13.8636 4.73336M13.6835 4.65879C13.7398 4.67287 13.8025 4.70203 13.8636 4.73336M13.8636 4.73336C13.921 4.75974 13.9787 4.78904 14.0353 4.82151M13.8636 4.73336C13.9252 4.76494 13.9851 4.79873 14.0353 4.82151M14.0353 4.82151C14.0492 4.82953 14.0631 4.83774 14.0769 4.84615M14.0353 4.82151C14.0376 4.82256 14.0399 4.8236 14.0422 4.82461C14.3169 4.94591 14.6393 4.96814 14.9 4.81914L16.7905 3.73886C17.0917 3.56675 17.4708 3.61752 17.7161 3.86281L18.5014 4.64815C18.7467 4.89344 18.7975 5.27254 18.6254 5.57372L17.1538 7.53846C17.1068 7.62086 17.1157 7.77736 17.1538 7.96158M8.45013 17.4019C8.33443 17.373 8.02338 17.1981 7.92308 17.1538M7.92308 17.1538C7.64834 17.0325 7.29612 17.2529 7.03537 17.4019L5.14487 18.4822C4.84369 18.6543 4.46458 18.6035 4.2193 18.3582L3.43396 17.5729C3.18867 17.3276 3.1379 16.9485 3.31 16.6473L4.46154 14.8462C4.61054 14.5854 4.93404 14.276 4.84615 14.0769M7.92308 17.1538C8.055 17.2182 8.56339 17.5004 8.69231 17.5385C8.97315 17.6213 8.98375 18.0301 9.07692 18.3077L9.56163 20.4756C9.66681 20.7889 9.96037 21 10.2909 21H11.7091C12.0396 21 12.3332 20.7889 12.4384 20.4755L13.0524 18.0754C13.1455 17.7978 13.0269 17.6213 13.3077 17.5385C13.3481 17.5265 13.426 17.4905 13.5178 17.4448M4.84615 14.0769C4.81857 14.0145 4.6874 13.7763 4.58537 13.5776M4.84615 14.0769C4.80628 13.9951 4.68265 13.7687 4.58537 13.5776M4.58537 13.5776C4.52356 13.4573 4.47245 13.3513 4.46154 13.3077M4.58537 13.5776C4.52573 13.4605 4.47599 13.3567 4.46154 13.3077M4.46154 13.3077C4.3865 13.0533 3.83221 13.0207 3.5221 12.9475C3.46284 12.9336 3.40363 12.9188 3.34335 12.9102L1.61505 12.6643C1.55478 12.6557 1.4946 12.6433 1.43968 12.617C1.17364 12.4897 1 12.2131 1 11.9134V10.2909C1 9.98729 1.17813 9.71487 1.44998 9.591C1.49847 9.5689 1.55086 9.55726 1.60343 9.54856L3.22871 9.27948C3.28128 9.27077 3.33275 9.25789 3.38361 9.24199C3.70771 9.14069 4.38531 8.95067 4.46154 8.69231M17.5385 13.1799C17.5313 13.2085 17.5182 13.2539 17.5017 13.3077M17.5017 13.3077C17.4869 13.3563 17.4694 13.4117 17.4512 13.4676M17.5017 13.3077C17.4893 13.3417 17.4714 13.401 17.4512 13.4676M17.5017 13.3077C17.593 13.0586 17.629 13.0148 17.8373 12.949C17.894 12.9311 17.9528 12.9199 18.012 12.9135L20.3586 12.661C20.4178 12.6546 20.477 12.6446 20.5318 12.6213C20.813 12.5019 21 12.2246 21 11.9134V10.6154C21 10.2982 20.8058 9.98937 20.5155 9.87005C20.4711 9.8518 20.4237 9.84275 20.3762 9.83597L18.7195 9.59952C18.672 9.59274 18.6253 9.58251 18.579 9.56989C18.2602 9.48295 17.6336 9.33644 17.5385 9.07692M17.4512 13.4676C17.408 13.6003 17.3612 13.7356 17.3377 13.7887M17.4512 13.4676C17.415 13.5865 17.3714 13.7283 17.3377 13.7887M17.3377 13.7887C17.2164 14.0635 17.3895 14.2008 17.5385 14.4615L18.7678 16.6473C18.9399 16.9485 18.8892 17.3276 18.6439 17.5729L17.8585 18.3582C17.6133 18.6035 17.2341 18.6543 16.933 18.4822L15.0425 17.4019C14.7817 17.2529 14.3517 17.0325 14.0769 17.1538C14.0614 17.1607 14.0401 17.1717 14.0148 17.1855M14.0148 17.1855C13.876 17.2609 13.6156 17.4203 13.5178 17.4448M14.0148 17.1855C13.8951 17.2477 13.6836 17.3622 13.5178 17.4448M17.5385 9.07692C17.5532 9.1104 17.5374 9.06581 17.5108 8.99583M17.5385 9.07692C17.5034 8.99761 17.4442 8.85762 17.3812 8.69231M17.5385 9.07692C17.5337 9.06399 17.5241 9.03555 17.5108 8.99583M17.5108 8.99583C17.4578 8.85612 17.3619 8.61522 17.3812 8.69231M17.5108 8.99583C17.4271 8.7447 17.1992 8.04291 17.1538 7.96158M17.3812 8.69231C17.2949 8.46592 17.2015 8.19206 17.1538 7.96158M4.46154 8.69231C4.47245 8.64866 4.52356 8.54275 4.58536 8.42239M4.46154 8.69231C4.47599 8.64331 4.52573 8.53951 4.58536 8.42239M4.58536 8.42239C4.68739 8.22367 4.81857 7.98554 4.84615 7.92308M4.58536 8.42239C4.68265 8.23134 4.80628 8.00486 4.84615 7.92308" stroke="#999A9B" stroke-width="1.7" stroke-linecap="round"/>
</svg>
