<svg width="22" height="22" viewBox="0 0 22 22" fill="none" xmlns="http://www.w3.org/2000/svg">
<path d="M8.5 21.85C8.96944 21.85 9.35 21.4694 9.35 21C9.35 20.5306 8.96944 20.15 8.5 20.15V21.85ZM18 0.15C17.5306 0.15 17.15 0.530558 17.15 1C17.15 1.46944 17.5306 1.85 18 1.85V0.15ZM12 20.15C11.5306 20.15 11.15 20.5306 11.15 21C11.15 21.4694 11.5306 21.85 12 21.85V20.15ZM11 11.85C11.4694 11.85 11.85 11.4694 11.85 11C11.85 10.5306 11.4694 10.15 11 10.15V11.85ZM5 10.15C4.53056 10.15 4.15 10.5306 4.15 11C4.15 11.4694 4.53056 11.85 5 11.85V10.15ZM8.55317 8.64537C8.9096 8.33986 8.95088 7.80325 8.64537 7.44683C8.33986 7.0904 7.80325 7.04912 7.44683 7.35463L8.55317 8.64537ZM5.3858 10.2407L5.93897 10.8861V10.8861L5.3858 10.2407ZM5.3858 11.7593L5.93897 11.1139V11.1139L5.3858 11.7593ZM7.44683 14.6454C7.80325 14.9509 8.33986 14.9096 8.64537 14.5532C8.95088 14.1967 8.9096 13.6601 8.55317 13.3546L7.44683 14.6454ZM14.85 21V2H13.15V21H14.85ZM13 0.15H2V1.85H13V0.15ZM0.15 2V20H1.85V2H0.15ZM2 21.85H8.5V20.15H2V21.85ZM0.15 20C0.15 21.0217 0.978273 21.85 2 21.85V20.15C1.91716 20.15 1.85 20.0828 1.85 20H0.15ZM2 0.15C0.978273 0.15 0.15 0.978273 0.15 2H1.85C1.85 1.91716 1.91716 1.85 2 1.85V0.15ZM14.85 2C14.85 0.978273 14.0217 0.15 13 0.15V1.85C13.0828 1.85 13.15 1.91716 13.15 2H14.85ZM18 1.85H20V0.15H18V1.85ZM20.15 2V20H21.85V2H20.15ZM20 20.15H12V21.85H20V20.15ZM20.15 20C20.15 20.0828 20.0828 20.15 20 20.15V21.85C21.0217 21.85 21.85 21.0217 21.85 20H20.15ZM20 1.85C20.0828 1.85 20.15 1.91716 20.15 2H21.85C21.85 0.978273 21.0217 0.15 20 0.15V1.85ZM11 10.15H5V11.85H11V10.15ZM7.44683 7.35463L4.83263 9.59538L5.93897 10.8861L8.55317 8.64537L7.44683 7.35463ZM4.83263 12.4046L7.44683 14.6454L8.55317 13.3546L5.93897 11.1139L4.83263 12.4046ZM4.83263 9.59538C3.97125 10.3337 3.97125 11.6663 4.83263 12.4046L5.93897 11.1139C5.86913 11.054 5.86913 10.946 5.93897 10.8861L4.83263 9.59538Z" fill="#999A9B"/>
</svg>
