<svg width="80" height="25" viewBox="0 0 80 25" fill="none" xmlns="http://www.w3.org/2000/svg">
<path d="M9.20556 2.50037C9.04154 2.50597 8.88361 2.56388 8.75484 2.66563L1.46632 8.40771C0.54126 9.13674 0 10.2507 0 11.4285V21.218C0 21.9172 0.582761 22.5 1.28203 22.5H6.41014C7.1094 22.5 7.69216 21.9172 7.69216 21.218V16.0899C7.69216 15.9386 7.79727 15.8335 7.94857 15.8335H10.5126C10.6639 15.8335 10.769 15.9386 10.769 16.0899V21.218C10.769 21.9172 11.3518 22.5 12.0511 22.5H17.1792C17.8784 22.5 18.4612 21.9172 18.4612 21.218V11.4285C18.4612 10.2507 17.9199 9.13674 16.9949 8.40771L9.70635 2.66563C9.5641 2.55326 9.38675 2.49474 9.20556 2.50037ZM9.2306 4.24914L16.0434 9.61663C16.5993 10.0548 16.9228 10.7211 16.9228 11.4285V20.9616H12.3075V16.0899C12.3075 15.1079 11.4946 14.295 10.5126 14.295H7.94857C6.96656 14.295 6.15373 15.1079 6.15373 16.0899V20.9616H1.53843V11.4285C1.53843 10.7211 1.86188 10.0548 2.41782 9.61663L9.2306 4.24914Z" fill="#2F5496"/>
</svg>
