<svg width="22" height="22" viewBox="0 0 22 22" fill="none" xmlns="http://www.w3.org/2000/svg">
<path d="M19.8275 15.6984C20.6483 14.1563 21.0508 12.4261 20.9949 10.68C20.939 8.93398 20.4266 7.23302 19.5089 5.74656C18.5912 4.2601 17.3 3.03999 15.764 2.20774C14.2281 1.37548 12.5009 0.96012 10.7545 1.00302C9.00803 1.04591 7.30331 1.54557 5.81006 2.45222C4.3168 3.35888 3.08712 4.6409 2.24345 6.17063C1.39978 7.70036 0.971573 9.42441 1.00146 11.1711C1.03136 12.9178 1.5183 14.6262 2.41382 16.1262M17.5 18.5C15.7759 20.4315 13.1738 20.9842 11.0098 20.9998C8.84578 21.0154 6.23681 20.4065 4.5 18.5C4.5 18.5 6.66669 16 11 16C15.3334 16 17.5 18.5 17.5 18.5ZM15 9C15 11.2091 13.2091 13 11 13C8.79086 13 7 11.2091 7 9C7 6.79086 8.79086 5 11 5C13.2091 5 15 6.79086 15 9Z" stroke="#999A9B" stroke-width="1.7" stroke-linecap="round"/>
</svg>
