<svg width="22" height="22" viewBox="0 0 22 22" fill="none" xmlns="http://www.w3.org/2000/svg">
<path d="M1.51562 13.8979L1.16337 15.6551C1.06607 16.2711 1.16509 16.9088 1.58507 17.3742C2.63432 18.5367 5.31727 20.6021 11.1362 20.6021C16.9182 20.6021 19.6039 18.5628 20.6672 17.3964C21.0783 16.9454 21.1863 16.3331 21.1025 15.7332C21.0926 15.6625 21.0823 15.5943 21.0743 15.5233C20.9536 14.4455 19.8672 5.33859 17.5156 4.39795C15.7193 3.6794 14.0156 5.39795 14.0156 5.39795C14.0156 5.39795 14.7267 1.39795 11.1362 1.39795C7.54574 1.39795 8.01562 5.39795 8.01562 5.39795C8.01562 5.39795 6.01562 3.20306 4.51562 4.39795C2.62692 5.90248 2.01562 9.39795 2.01562 9.39795" stroke="#2F5496" stroke-width="1.7" stroke-linecap="round"/>
<circle cx="4.97891" cy="10.2479" r="0.85" fill="#2F5496"/>
<circle cx="7.97891" cy="13.2479" r="0.85" fill="#2F5496"/>
<circle cx="10.9789" cy="9.24795" r="0.85" fill="#2F5496"/>
<circle cx="13.9789" cy="13.2479" r="0.85" fill="#2F5496"/>
<circle cx="16.9789" cy="10.2479" r="0.85" fill="#2F5496"/>
</svg>
