<svg width="22" height="22" viewBox="0 0 22 22" fill="none" xmlns="http://www.w3.org/2000/svg">
<path d="M21.1289 5.94105V15.323C21.1289 15.7018 20.9149 16.048 20.5761 16.2174L15.8525 18.5792L14.6716 19.1697M21.1289 5.94105L16.1289 8.44105M21.1289 5.94105L18.7407 4.74695L17.5466 4.1499L16.3525 3.55285L11.5761 1.16465C11.2946 1.02389 10.9632 1.02389 10.6817 1.16465L6.12891 3.44105M11.1289 10.941L1.30779 6.03049C1.23409 5.99364 1.23409 5.88846 1.30779 5.85161L6.12891 3.44105M11.1289 10.941V19.323C11.1289 20.0664 10.3466 20.5499 9.68169 20.2174L1.68169 16.2174C1.34291 16.048 1.12891 15.7018 1.12891 15.323V10.632V9.45928M11.1289 10.941L16.1289 8.44105M6.12891 3.44105L16.1289 8.44105M16.1289 8.44105V11.941" stroke="#C0CBDD" stroke-width="1.7" stroke-linecap="round"/>
</svg>
