<svg width="20" height="20" viewBox="0 0 20 20" fill="none" xmlns="http://www.w3.org/2000/svg">
<path d="M-4.37114e-07 10C-1.96097e-07 15.5138 4.48618 20 10 20C15.5138 20 20 15.5138 20 10C20 4.48618 15.5138 -6.78131e-07 10 -4.37114e-07C4.48618 -1.96097e-07 -6.78131e-07 4.48618 -4.37114e-07 10ZM1.53846 10C1.53846 5.31851 5.31851 1.53846 10 1.53846C14.6815 1.53846 18.4615 5.31851 18.4615 10C18.4615 14.6815 14.6815 18.4615 10 18.4615C5.31851 18.4615 1.53846 14.6815 1.53846 10ZM5.07212 10.5529L10 15.4808L14.9279 10.5529L13.8462 9.44711L10.7692 12.524L10.7692 4.61538L9.23077 4.61538L9.23077 12.524L6.15385 9.44711L5.07212 10.5529Z" fill="black"/>
</svg>
