<svg width="30" height="16" viewBox="0 0 30 16" fill="none" xmlns="http://www.w3.org/2000/svg">
<path d="M22.183 15.9996C22.4485 15.9917 22.7005 15.8788 22.8858 15.6848L29.7007 8.7392C29.8923 8.5438 30 8.27885 30 8.00258C30 7.72631 29.8923 7.46135 29.7007 7.26596L22.8858 0.320311C22.7916 0.220324 22.6788 0.140497 22.5539 0.0855048C22.4291 0.0305131 22.2947 0.00146322 22.1587 5.36739e-05C22.0227 -0.00135491 21.8878 0.0249054 21.7619 0.0772984C21.636 0.129692 21.5216 0.207164 21.4254 0.305179C21.3293 0.403194 21.2533 0.51978 21.2019 0.648111C21.1504 0.776441 21.1247 0.913935 21.1261 1.05254C21.1274 1.19115 21.1559 1.32808 21.2099 1.45532C21.2639 1.58256 21.3422 1.69755 21.4403 1.79355L26.5102 6.96073L1.0368 6.96073C0.901339 6.95877 0.766848 6.98428 0.641146 7.03576C0.515443 7.08724 0.401036 7.16368 0.304568 7.26061C0.208098 7.35755 0.131495 7.47306 0.079211 7.60044C0.0269268 7.72781 7.11227e-07 7.8645 6.99157e-07 8.00257C6.87086e-07 8.14065 0.0269267 8.27734 0.0792109 8.40471C0.131495 8.53209 0.208098 8.6476 0.304568 8.74454C0.401036 8.84147 0.515443 8.91791 0.641146 8.96939C0.766848 9.02087 0.901339 9.04637 1.0368 9.04442L26.5102 9.04442L21.4403 14.2116C21.2928 14.358 21.1921 14.5463 21.1514 14.752C21.1107 14.9577 21.1319 15.1711 21.2121 15.3643C21.2924 15.5575 21.428 15.7215 21.6012 15.8348C21.7745 15.9482 21.9772 16.0056 22.183 15.9996Z" fill="#2F5496"/>
</svg>
