<svg width="35" height="32" viewBox="0 0 35 32" fill="none" xmlns="http://www.w3.org/2000/svg">
<path d="M24.748 0C22.867 0 21.2641 1.2257 20.6571 2.90909H1.47526C1.28252 2.90637 1.09115 2.94197 0.91229 3.01385C0.733427 3.08572 0.570633 3.19243 0.433368 3.32777C0.296103 3.4631 0.187105 3.62437 0.112708 3.8022C0.0383113 3.98003 0 4.17087 0 4.36364C0 4.5564 0.0383113 4.74724 0.112708 4.92507C0.187105 5.1029 0.296103 5.26417 0.433368 5.39951C0.570633 5.53484 0.733427 5.64155 0.91229 5.71342C1.09115 5.7853 1.28252 5.82091 1.47526 5.81818H20.6571C21.2641 7.50157 22.867 8.72727 24.748 8.72727C26.629 8.72727 28.2318 7.50157 28.8389 5.81818H33.4753C33.668 5.82091 33.8594 5.7853 34.0382 5.71342C34.2171 5.64155 34.3799 5.53484 34.5172 5.39951C34.6544 5.26417 34.7634 5.1029 34.8378 4.92507C34.9122 4.74724 34.9505 4.5564 34.9505 4.36364C34.9505 4.17087 34.9122 3.98003 34.8378 3.8022C34.7634 3.62437 34.6544 3.4631 34.5172 3.32777C34.3799 3.19243 34.2171 3.08572 34.0382 3.01385C33.8594 2.94197 33.668 2.90637 33.4753 2.90909H28.8389C28.2318 1.2257 26.629 0 24.748 0ZM24.748 2.90909C25.539 2.90909 26.1421 3.50373 26.1855 4.28125C26.1823 4.33707 26.1823 4.39304 26.1855 4.44886C26.1407 5.22496 25.538 5.81818 24.748 5.81818C23.957 5.81818 23.3539 5.22355 23.3105 4.44602C23.3137 4.3902 23.3137 4.33423 23.3105 4.27841C23.3553 3.50231 23.9579 2.90909 24.748 2.90909ZM13.1116 11.6364C11.2307 11.6364 9.62778 12.8621 9.02072 14.5455H1.47526C1.28252 14.5427 1.09115 14.5783 0.91229 14.6502C0.733427 14.7221 0.570633 14.8288 0.433368 14.9641C0.296103 15.0995 0.187105 15.2607 0.112708 15.4386C0.0383113 15.6164 0 15.8072 0 16C0 16.1928 0.0383113 16.3836 0.112708 16.5614C0.187105 16.7393 0.296103 16.9005 0.433368 17.0359C0.570633 17.1712 0.733427 17.2779 0.91229 17.3498C1.09115 17.4217 1.28252 17.4573 1.47526 17.4545H9.02072C9.62778 19.1379 11.2307 20.3636 13.1116 20.3636C14.9926 20.3636 16.5955 19.1379 17.2025 17.4545H33.4753C33.668 17.4573 33.8594 17.4217 34.0382 17.3498C34.2171 17.2779 34.3799 17.1712 34.5172 17.0359C34.6544 16.9005 34.7634 16.7393 34.8378 16.5614C34.9122 16.3836 34.9505 16.1928 34.9505 16C34.9505 15.8072 34.9122 15.6164 34.8378 15.4386C34.7634 15.2607 34.6544 15.0995 34.5172 14.9641C34.3799 14.8288 34.2171 14.7221 34.0382 14.6502C33.8594 14.5783 33.668 14.5427 33.4753 14.5455H17.2025C16.5955 12.8621 14.9926 11.6364 13.1116 11.6364ZM13.1116 14.5455C13.9027 14.5455 14.5057 15.1401 14.5491 15.9176C14.5459 15.9734 14.5459 16.0294 14.5491 16.0852C14.5043 16.8613 13.9017 17.4545 13.1116 17.4545C12.3206 17.4545 11.7176 16.8599 11.6741 16.0824C11.6773 16.0266 11.6773 15.9706 11.6741 15.9148C11.7189 15.1387 12.3216 14.5455 13.1116 14.5455ZM18.9298 23.2727C17.0489 23.2727 15.446 24.4984 14.8389 26.1818H1.47526C1.28252 26.1791 1.09115 26.2147 0.91229 26.2866C0.733427 26.3585 0.570633 26.4652 0.433368 26.6005C0.296103 26.7358 0.187105 26.8971 0.112708 27.0749C0.0383113 27.2528 0 27.4436 0 27.6364C0 27.8291 0.0383113 28.02 0.112708 28.1978C0.187105 28.3756 0.296103 28.5369 0.433368 28.6722C0.570633 28.8076 0.733427 28.9143 0.91229 28.9862C1.09115 29.058 1.28252 29.0936 1.47526 29.0909H14.8389C15.446 30.7743 17.0489 32 18.9298 32C20.8108 32 22.4137 30.7743 23.0207 29.0909H33.4753C33.668 29.0936 33.8594 29.058 34.0382 28.9862C34.2171 28.9143 34.3799 28.8076 34.5172 28.6722C34.6544 28.5369 34.7634 28.3756 34.8378 28.1978C34.9122 28.02 34.9505 27.8291 34.9505 27.6364C34.9505 27.4436 34.9122 27.2528 34.8378 27.0749C34.7634 26.8971 34.6544 26.7358 34.5172 26.6005C34.3799 26.4652 34.2171 26.3585 34.0382 26.2866C33.8594 26.2147 33.668 26.1791 33.4753 26.1818H23.0207C22.4137 24.4984 20.8108 23.2727 18.9298 23.2727ZM18.9298 26.1818C19.7208 26.1818 20.3239 26.7765 20.3673 27.554C20.3641 27.6098 20.3641 27.6658 20.3673 27.7216C20.3225 28.4977 19.7199 29.0909 18.9298 29.0909C18.1388 29.0909 17.5357 28.4963 17.4923 27.7188C17.4955 27.6629 17.4955 27.607 17.4923 27.5511C17.5371 26.775 18.1398 26.1818 18.9298 26.1818Z" fill="black"/>
</svg>
