<svg width="30" height="30" viewBox="0 0 30 30" fill="none" xmlns="http://www.w3.org/2000/svg">
<path d="M11.7391 0C5.26627 0 0 5.26627 0 11.7391C0 18.2119 5.26627 23.4781 11.7391 23.4781C14.432 23.4781 16.9084 22.5568 18.8913 21.0261L27.423 29.5578C28.0126 30.1474 28.9683 30.1474 29.5578 29.5578C30.1474 28.9683 30.1474 28.0126 29.5578 27.423L21.0261 18.8913C22.5568 16.9084 23.4781 14.432 23.4781 11.7391C23.4781 5.26627 18.2119 0 11.7391 0ZM11.7391 2.60868C16.7732 2.60868 20.8694 6.70496 20.8694 11.7391C20.8694 16.7732 16.7732 20.8694 11.7391 20.8694C6.70496 20.8694 2.60868 16.7732 2.60868 11.7391C2.60868 6.70496 6.70496 2.60868 11.7391 2.60868Z" fill="#C0CBDD"/>
</svg>
