<svg width="192" height="49" viewBox="0 0 192 49" fill="none" xmlns="http://www.w3.org/2000/svg">
<path d="M185.466 7.14134V2.42841C185.466 2.42841 186.044 2.15859 187.253 2.15859C188.462 2.15859 189.184 2.95007 189.184 3.74156C189.184 4.53304 188.372 5.16263 188.372 5.16263L189.455 7.08737H188.083L186.983 4.96476C186.983 4.96476 187.831 4.69493 187.831 3.86747C187.831 3.04001 186.73 3.29185 186.73 3.29185L186.676 7.15932H185.484L185.466 7.14134ZM182.507 4.82085C182.507 2.21256 184.636 0.0899413 187.253 0.0899413C189.87 0.0899413 192 2.21256 192 4.82085C192 7.42915 189.87 9.55176 187.253 9.55176C184.636 9.55176 182.507 7.42915 182.507 4.82085ZM183.481 4.82085C183.481 6.8895 185.178 8.5804 187.253 8.5804C189.329 8.5804 191.025 6.8895 191.025 4.82085C191.025 2.7522 189.329 1.06131 187.253 1.06131C185.178 1.06131 183.481 2.7522 183.481 4.82085ZM181.785 38.5128V39.0165L181.748 39.4842L181.676 39.9519L181.604 40.4196L181.514 40.8873L181.406 41.319L181.279 41.7327L181.117 42.1645L180.936 42.5782L180.756 42.9739L180.557 43.3877L180.341 43.7654L180.106 44.1432L179.871 44.5209L179.601 44.8627L179.312 45.2045L179.023 45.5283L178.644 45.906L178.121 46.3917L177.579 46.8234L177.002 47.2192L176.406 47.5969L175.774 47.9027L175.125 48.1905L174.475 48.4244L173.771 48.6043L173.157 48.7482L172.58 48.8381L172.056 48.928H171.587L171.046 48.964H151.752L151.445 48.928H151.21L150.777 48.8381L150.29 48.7302L149.875 48.6043L149.46 48.4244L149.063 48.2445L148.666 48.0466L148.323 47.8128L147.998 47.5789L147.691 47.2911L147.402 47.0033L147.131 46.6975L146.915 46.3737L146.716 46.0319L146.536 45.6902L146.409 45.3124L146.319 44.9347L146.247 44.5389V44.1252V43.7834L146.283 43.4596L146.355 43.1178L146.464 42.7941L146.59 42.4703L146.752 42.1645L146.933 41.8767L147.131 41.5888L147.348 41.301L147.619 41.0312L147.889 40.7974L148.178 40.5815L148.485 40.3656L148.792 40.1678L149.135 39.9879L149.478 39.826L149.767 39.7181L150.073 39.6101L150.398 39.5202L150.705 39.4482L151.03 39.3763L151.373 39.3403H151.698L152.041 39.3043H155.127L161.029 39.3223H167.689L168.609 39.2324L169.241 39.1424L169.512 39.1065L169.692 39.0705L169.963 38.9446L170.161 38.8007L170.27 38.5668L170.306 38.279V38.0631L170.197 37.7214L170.107 37.5415L169.981 37.3616L169.638 37.0738L169.349 36.9299L169.078 36.822L168.754 36.714L168.338 36.5881L167.815 36.4622L167.201 36.3183L166.479 36.1564L165.631 35.9765L164.62 35.7786L163.592 35.5988L162.4 35.4009L161.083 35.203L159.621 35.0051L159.224 34.9692L158.231 34.8073L157.906 34.7713L156.661 34.5554L155.434 34.3216L154.802 34.1777L154.17 33.9978L153.539 33.8179L152.925 33.6021L152.311 33.4042L151.734 33.1883L151.445 33.0804L151.246 32.9725L150.615 32.6487L150.001 32.2529L149.424 31.8392L148.882 31.3715L148.377 30.8858L147.889 30.3642L147.456 29.7885L147.041 29.2129L146.698 28.5833L146.373 27.9537L146.103 27.3062L145.868 26.6046L145.688 25.9031L145.597 25.5253L145.561 25.1836L145.489 24.8058V24.428L145.453 24.0323V23.1329L145.489 22.6652L145.525 22.1975L145.615 21.7298L145.706 21.2981L145.814 20.8664L145.94 20.4347L146.103 20.0209L146.265 19.6072L146.464 19.1935L146.662 18.7977L146.879 18.402L147.095 18.0242L147.366 17.6465L147.637 17.3047L147.908 16.9809L148.214 16.6391L148.521 16.3333L149.045 15.8476L149.586 15.38L150.164 14.9842L150.777 14.6065L151.409 14.2827L152.059 13.9949L152.745 13.761L153.466 13.5631L154.116 13.4192L154.748 13.3113L155.289 13.2394H155.777L156.102 13.2034H160.487L173.861 13.2214H174.258H175.107H175.431L175.919 13.2573L176.208 13.2933L176.713 13.3833L177.2 13.5092L177.669 13.6891L178.139 13.8869L178.554 14.1028L178.933 14.3366L179.312 14.6244L179.637 14.9303L179.944 15.254L180.214 15.5958L180.449 15.9376L180.647 16.3333L180.81 16.7291L180.918 17.1428L180.99 17.5745V18.0062L181.008 18.348L180.972 18.6898L180.882 19.0136L180.792 19.3374L180.666 19.6612L180.503 19.967L180.323 20.2548L180.106 20.5426L179.889 20.8304L179.655 21.1002L179.384 21.3341L179.095 21.5499L178.788 21.7658L178.464 21.9637L178.139 22.1435L177.796 22.3054L177.489 22.4314L177.182 22.5213L176.875 22.6112L176.55 22.6832L176.226 22.7551L175.901 22.7911H175.558L175.215 22.8271H159.585L158.646 22.899L158.033 22.989L157.762 23.025L157.563 23.0609L157.329 23.1869L157.13 23.3488L157.022 23.5826L156.95 23.8884V24.1043L157.076 24.428L157.166 24.6079L157.293 24.7878L157.636 25.0936L157.924 25.2555L158.195 25.3454L158.52 25.4534L158.935 25.5793L159.44 25.7052L160.072 25.8491L160.794 26.029L161.642 26.2089L162.635 26.3888L163.682 26.5686L164.873 26.7665L166.191 26.9644L167.653 27.1802L168.05 27.2162L169.006 27.3421L169.331 27.3781L170.576 27.594L171.804 27.8638L172.435 28.0257L173.067 28.1696L173.699 28.3675L174.312 28.5653L174.944 28.7632L175.486 28.9791L175.774 29.105L175.991 29.2129L176.623 29.5367L177.218 29.9145L177.814 30.3282L178.337 30.7959L178.861 31.2996L179.348 31.8212L179.781 32.3609L180.178 32.9545L180.557 33.5661L180.882 34.1957L181.153 34.8792L181.387 35.5628L181.568 36.2823L181.64 36.6241L181.712 37.0018L181.748 37.3796L181.785 37.7573V38.1351L181.803 38.5308L181.785 38.5128ZM73.8725 17.5385L74.035 18.5459L74.2155 20.0029L74.3057 20.9023L74.3779 21.8917L74.4501 22.971L74.5223 24.1043V25.3095V26.5507L74.4862 27.8638L74.414 29.1949L74.2877 30.5441L74.1072 31.9471L73.9989 32.6307L73.8725 33.3322L73.7462 34.0338L73.5838 34.7173L73.4033 35.4189L73.2228 36.1024L73.0243 36.786L72.7896 37.4695L72.555 38.1531L72.2843 38.8007L71.9955 39.4302L71.7067 40.0778L71.3818 40.6894L71.0389 41.301L70.6599 41.8946L70.2628 42.4883L69.8477 43.0639L69.3785 43.6035L68.9092 44.1252L68.4038 44.6289L67.8985 45.1145L67.3209 45.5822L66.7434 46.014L66.1297 46.4277L65.498 46.8234L64.8483 47.1652L64.1444 47.489L63.4224 47.7948L62.6464 48.0646L61.8522 48.2985L61.022 48.4963L60.1737 48.6762L59.2713 48.8021L58.3328 48.9101L57.3762 48.946H56.3655L55.5714 48.964L54.7772 48.928L53.9831 48.8561L53.2431 48.7662L52.5212 48.6582L51.8173 48.5323L51.1314 48.3524L50.4456 48.1725L49.8139 47.9747L49.2002 47.7588L48.6046 47.525L48.0271 47.2551L47.4856 46.9673L46.9442 46.6615L46.4388 46.3557L45.9334 46.0319L45.4642 45.6902L44.9949 45.3124L44.5618 44.9347L44.1466 44.5389L43.7496 44.1252L43.3525 43.7115L42.9735 43.2797L42.6306 42.848L42.3057 42.3803L41.9989 41.8946L41.6921 41.4269L41.4033 40.9233L41.1145 40.4376L40.8799 39.9159L40.6091 39.4123L40.3926 38.8906L40.176 38.3689L39.9774 37.8473L39.7789 37.3256L39.5984 36.786L39.2916 35.6887L39.0028 34.5914L38.7862 33.4761L38.5877 32.3609L38.4253 31.2636L38.317 30.1663L38.2267 29.069L38.1545 28.0257L38.1184 27.0004V25.0037L38.1545 24.0863L38.1906 23.1869L38.2267 22.3594L38.2628 21.7478L38.3892 20.3087L38.4794 19.4813L38.5697 18.6718L38.6779 17.9703L38.7501 17.6825L38.8223 17.4486L38.9306 17.0169L39.0389 16.6931L39.1472 16.3693L39.3096 16.0635L39.454 15.7577L39.7428 15.344L39.8691 15.1641L40.0496 14.9662L40.2482 14.7863L40.4287 14.5885L40.6452 14.4446L40.8438 14.2647L41.0604 14.1388L41.295 13.9769L41.5116 13.8689L41.7462 13.761L42.0169 13.6531L42.2877 13.5631L42.5584 13.4912L42.8291 13.4552L43.0998 13.4192H43.3886L43.6774 13.4012H44.1827L44.6701 13.4912L45.1393 13.6171L45.6086 13.779L46.0237 13.9949L46.4388 14.2287L46.8178 14.5165L47.1607 14.8223L47.4676 15.1641L47.7563 15.5418L47.991 15.9556L48.2076 16.3693L48.37 16.837L48.4963 17.3047L48.5685 17.7904V18.2941L48.5866 18.5819V18.8517L48.0451 22.6112L47.9729 23.8344L47.9007 25.1656V26.5507V27.2702V27.9717L47.9729 28.6913L48.0451 29.4288L48.1173 30.1483L48.2256 30.8499L48.3339 31.5694L48.4602 32.2709L48.6407 32.9725L48.8212 33.62L49.0378 34.2676L49.2724 34.8972L49.5612 35.5088L49.85 36.1024L50.1929 36.6421L50.5358 37.1637L50.9509 37.6494L51.1675 37.8653L51.3841 38.0811L51.6007 38.297L51.8353 38.4949L52.106 38.6747L52.3768 38.8546L52.6475 39.0165L52.9363 39.1604L53.225 39.2863L53.5319 39.4123L53.8387 39.5202L54.1636 39.6281L54.4884 39.7001L54.8314 39.79L55.2104 39.826L55.5533 39.862H55.8962L56.2933 39.88H56.9791L57.6108 39.79L58.2245 39.6821L58.802 39.5022L59.3254 39.3043L59.8488 39.0705L60.3362 38.7827L60.7693 38.4769L61.1844 38.1351L61.5815 37.7394L61.9244 37.3256L62.2673 36.8939L62.5742 36.4262L62.8629 35.9405L63.1337 35.4189L63.3683 34.8972L63.5849 34.3576L63.7834 33.7819L63.9639 33.1883L64.1263 32.5947L64.2527 31.9831L64.361 31.3715L64.4693 30.7419L64.5595 30.1123L64.6317 29.5007L64.7039 28.8711L64.7761 27.612L64.8122 26.3708V25.1656L64.5776 22.7012L64.2346 19.0496L64.1624 18.6718V18.2761L64.1805 17.7724L64.2527 17.2867L64.379 16.819L64.5415 16.3513L64.74 15.9376L65.0107 15.5239L65.2995 15.1461L65.6063 14.8043L65.9492 14.4985L66.3283 14.2107L66.7253 13.9769L67.1585 13.761L67.5917 13.5991L68.079 13.4732L68.5663 13.4012H69.0716L69.4867 13.3833L69.9019 13.4552L70.317 13.5452L70.696 13.6531L71.075 13.797L71.454 13.9769L71.7789 14.1927L72.1038 14.4266L72.4106 14.6964L72.6813 14.9662L72.9521 15.272L73.1867 15.5958L73.3852 15.9376L73.5657 16.2794L73.7281 16.6751L73.8364 17.0709L73.9267 17.5385H73.8725ZM18.1387 13.3833H19.0412L19.8895 13.4192L20.7197 13.5092L21.5319 13.5991L22.326 13.725L23.066 13.9049L23.7879 14.0848L24.4918 14.2827L25.1777 14.5165L25.8094 14.7863L26.4411 15.0742L27.0367 15.362L27.6323 15.6858L28.1737 16.0275L28.6971 16.4053L29.2025 16.783L29.6898 17.1788L30.1771 17.5925L30.6103 18.0242L31.0254 18.4919L31.4224 18.9596L31.8195 19.4453L32.1985 19.949L32.5234 20.4526L32.8483 20.9563L33.1551 21.478L33.4619 22.0176L33.7327 22.5573L34.0034 23.1329L34.238 23.6725L34.4546 24.2662L34.6712 24.8418L34.8697 25.4354L35.0502 26.029L35.2307 26.6226L35.3751 27.2162L35.6458 28.4035L35.8624 29.6087L36.0609 30.8139L36.1873 32.0011L36.2775 33.1883L36.3497 34.3216L36.3858 35.4369V37.5775L36.3497 38.5668L36.3136 39.5022L36.2414 40.4016L36.1151 41.9486L36.079 42.4523L36.0068 43.0279L35.9165 43.6755L35.8082 44.413L35.6278 45.1505L35.5375 45.4923L35.4292 45.8161L35.3029 46.1219L35.1765 46.4097L34.9961 46.6795L34.8156 46.9673L34.617 47.2372L34.4005 47.471L34.1839 47.6869L33.9492 47.9027L33.6785 48.1006L33.4078 48.2805L33.119 48.4604L32.8122 48.5863L32.5054 48.7122L32.1985 48.8201L31.8737 48.8921L31.5488 48.964L31.2059 49H30.3756L29.8703 48.9101L29.401 48.7841L28.9318 48.6402L28.5166 48.4244L28.1015 48.1905L27.7225 47.9027L27.3796 47.5969L27.0728 47.2551L26.784 46.8774L26.5494 46.4637L26.3328 46.0499L26.1703 45.5822L26.044 45.1145L25.9718 44.6289V44.1252L25.9538 43.9453V43.6575L26.0259 43.3697L26.405 40.0239L26.5674 38.3689L26.6576 37.4156V36.2104V34.9692L26.5854 33.71L26.5494 33.0624L26.4772 32.4328L26.3869 31.8032L26.2967 31.1736L26.1884 30.562L26.062 29.9504L25.9177 29.3388L25.7372 28.7452L25.5386 28.1696L25.3221 27.594L25.1055 27.0543L24.8347 26.5327L24.546 26.047L24.2391 25.5613L23.9143 25.1296L23.5353 24.6979L23.1382 24.3201L22.7231 23.9424L22.2899 23.6366L21.8026 23.3488L21.2972 23.0789L20.7558 22.8811L20.1602 22.7012L19.5646 22.5932L18.9148 22.5213L18.229 22.4853H17.85L17.5251 22.5213H17.1822L16.8573 22.5932L16.5505 22.6652L16.2256 22.7372L15.9368 22.8271L15.63 22.917L15.3593 23.025L15.0705 23.1329L14.7998 23.2588L14.529 23.3847L14.0417 23.6905L13.5725 24.0143L13.1574 24.3921L12.7603 24.8058L12.3813 25.2375L12.0384 25.7232L11.7315 26.2269L11.4428 26.7485L11.2081 27.2882L10.9735 27.8638L10.7569 28.4394L10.5764 29.051L10.3959 29.6626L10.2335 30.2922L10.1252 30.9218L10.0169 31.5694L9.90863 32.217L9.83644 32.8645L9.76424 33.5121L9.72814 34.1597L9.69205 35.4548V37.9732L9.87253 39.5742L10.0711 41.409L10.3057 43.6035V43.8374L10.3418 44.1072V44.6109L10.2335 45.0965L10.1252 45.5642L9.94473 46.0319L9.74619 46.4457L9.51156 46.8594L9.22279 47.2372L8.89791 47.5789L8.57304 47.8847L8.17597 48.1725L7.77891 48.4064L7.34574 48.6222L6.91258 48.7662L6.42527 48.8921L5.93796 48.964H5.4326H5.01748L4.60237 48.928L4.2053 48.8381L3.80823 48.7302L3.42922 48.5683L3.08629 48.3704L2.74337 48.1725L2.4185 47.9387L2.12972 47.6689L1.84095 47.3811L1.57022 47.0753L1.35364 46.7695L1.13706 46.4277L0.956571 46.0499L0.830231 45.6722L0.703892 45.2764L0.613649 44.8087L0.48731 43.8014L0.288776 42.3443L0.198534 41.4449L0.12634 40.4556L0.0541455 39.3763L0.0180485 38.243V37.0378L0 35.7786L0.036097 34.4835L0.12634 33.1524L0.234631 31.7673L0.415116 30.3822L0.523407 29.6806L0.649746 28.9971L0.776086 28.2955L0.938522 27.594L1.11901 26.9104L1.29949 26.2089L1.51607 25.5253L1.73266 24.8778L1.96729 24.1942L2.23801 23.5466L2.52679 22.899L2.83362 22.2695L3.15849 21.6579L3.50141 21.0463L3.84433 20.4526L4.2414 19.859L4.67456 19.2834L5.10773 18.7438L5.57699 18.2221L6.08235 17.7184L6.60575 17.2327L7.14721 16.7651L7.72476 16.3333L8.33841 15.9196L8.97011 15.5239L9.61985 15.1821L10.3237 14.8583L11.0637 14.5525L11.8037 14.2827L12.6159 14.0488L13.4281 13.833L14.3125 13.6711L15.2149 13.5452L16.1354 13.4372L17.128 13.3653H18.1207L18.1387 13.3833ZM102.317 39.2863L102.804 39.3223L103.274 39.3943L103.743 39.5022L104.176 39.6821L104.573 39.88L104.97 40.1138L105.349 40.4016L105.674 40.7074L105.981 41.0492L106.27 41.4269L106.486 41.8227L106.685 42.2364L106.865 42.7041L106.973 43.1718L107.046 43.6575V44.1432V44.6468L106.973 45.1325L106.865 45.6002L106.685 46.0319L106.486 46.4637L106.27 46.8594L105.981 47.2372L105.674 47.5789L105.349 47.8847L104.97 48.1725L104.573 48.4064L104.176 48.6043L103.743 48.7482L103.274 48.8741L102.804 48.946H102.317L101.631 48.964H100.981L100.35 48.8921L99.736 48.8561L99.1224 48.7662L98.5448 48.6942L97.9492 48.5863L97.4078 48.4783L96.8663 48.3524L96.3429 48.2265L95.8195 48.0646L95.3142 47.9207L94.8269 47.7408L94.3395 47.5609L93.8703 47.3631L93.4371 47.1472L93.0039 46.9493L92.5888 46.7155L92.1737 46.4996L91.7766 46.2658L91.3976 45.996L91.0186 45.7621L90.3147 45.2225L89.665 44.6468L89.0333 44.0712L88.4557 43.4596L87.9323 42.83L87.445 42.2004L86.9757 41.5709L86.5606 40.9233L86.1816 40.2757L85.8387 39.6281L85.5319 38.9805L85.2431 38.333L84.9724 37.7034L84.7558 37.0738L84.5572 36.4622L84.3768 35.8686L84.2143 35.2929L84.088 34.7533L83.9797 34.2316L83.7992 33.2963L83.7631 33.1164V32.8825L83.6729 32.2889L83.6007 31.5694V31.2996L83.5826 30.8139L83.5465 28.9971V27.2522V25.4354V22.989H80.5144L80.0271 22.8811L79.5578 22.7731L79.1427 22.5932L78.7276 22.3954L78.3305 22.1615L77.9515 21.8737L77.6266 21.5679L77.3198 21.2261L77.0491 20.8484L76.8144 20.4526L76.6159 20.0389L76.4535 19.6072L76.3271 19.1215L76.2549 18.6358V18.1501V17.7544L76.291 17.3767L76.3632 17.0349L76.4535 16.6571L76.5798 16.3333L76.7422 16.0095L76.9047 15.6858L77.1032 15.3979L77.3198 15.1101L77.5544 14.8223L77.7891 14.5885L78.0598 14.3546L78.3486 14.1568L78.6554 13.9589L78.9622 13.815L79.2871 13.6531L79.5037 13.5811L79.9729 13.4552L80.37 13.3653L80.8934 13.2933H81.2905L81.6695 13.2753H83.5285V2.93209L83.6187 2.6083L83.7451 2.3025L83.9075 1.9967L84.106 1.70888L84.3407 1.43906L84.6294 1.16924L84.9363 0.953377L85.2792 0.737518L85.6582 0.539648L86.0553 0.395742L86.4884 0.269824L86.9216 0.161894L87.3909 0.071953L87.8782 0.0359765H88.3835H88.8708L89.3401 0.071953L89.8094 0.143906L90.2425 0.251836L90.6576 0.377753L91.0547 0.557636L91.4337 0.737518L91.7766 0.935389L92.0835 1.16924L92.3723 1.40308L92.6069 1.67291L92.8054 1.94273L92.9859 2.24853L93.1122 2.55433L93.2025 2.86013V3.18392L93.2205 13.0235V13.2034H100.35L100.855 13.2394L101.144 13.2753L101.433 13.3473L101.848 13.4372L102.245 13.5631L102.624 13.707L102.967 13.9049L103.201 14.0488L103.418 14.2107L103.635 14.3906L103.851 14.6065L104.158 14.9303L104.447 15.326L104.717 15.7217L104.916 16.1535L105.096 16.6211L105.223 17.0888L105.295 17.5925V18.0962V18.4919L105.259 18.9057L105.187 19.2834L105.078 19.6612L104.916 20.0389L104.754 20.3807L104.555 20.7045L104.356 21.0103L104.122 21.3161L103.851 21.5859L103.562 21.8557L103.274 22.0716L102.949 22.2874L102.624 22.4673L102.281 22.6292L101.938 22.7551L101.613 22.8451L101.18 22.917H100.711L99.8263 22.953H93.2205V23.9604L93.2566 25.5253L93.2927 26.5327L93.3649 27.6659L93.4552 28.8172L93.5454 29.9684L93.7439 31.0657L93.9605 32.091L94.2312 33.0804L94.3937 33.5481L94.5561 34.0158L94.7727 34.4835L94.9893 34.9512L95.2239 35.3469L95.4405 35.7427L95.7112 36.1204L95.9459 36.4442L96.1805 36.768L96.4512 37.0558L96.7219 37.3256L96.9927 37.5954L97.2634 37.8113L97.5341 38.0272L97.8048 38.225L98.0756 38.4049L98.3463 38.5668L98.617 38.6927L99.1224 38.9266L99.6278 39.1065L100.097 39.2324L100.53 39.3403L100.945 39.3763L101.288 39.4123H101.884L102.118 39.3763H102.353L102.317 39.2863ZM127.477 13.2573H127.982L128.469 13.3473L128.939 13.4732L129.372 13.6171L129.805 13.833L130.202 14.0668L130.581 14.3366L130.924 14.6604L131.231 14.9842L131.519 15.362L131.754 15.7757L131.953 16.1894L132.097 16.6211L132.223 17.0888L132.296 17.5745V18.0782V18.5639L132.223 19.0496L132.097 19.5352L131.953 19.967L131.754 20.3807L131.519 20.7764L131.231 21.1542L130.924 21.496L130.581 21.8018L130.202 22.0896L129.805 22.3234L129.372 22.5213L128.939 22.7012L128.469 22.8091L127.982 22.899H127.477H127.206H125.997L125.455 22.971L124.86 23.0609L124.246 23.1869L123.921 23.2768L123.614 23.3847L123.289 23.5106L122.983 23.6366L122.676 23.7805L122.369 23.9604L122.08 24.1582L121.791 24.3741L121.521 24.6079L121.25 24.8778L121.015 25.1656L120.817 25.4714L120.618 25.8131L120.438 26.1909L120.275 26.5866L120.167 27.0004L119.968 27.9178L119.788 28.8711L119.662 29.8785L119.535 30.9218L119.427 32.0011L119.337 33.0984L119.265 34.2137L119.228 35.3289L119.138 37.5954V39.844L119.102 42.0385V44.4849L119.03 44.8087L118.94 45.2405L118.831 45.6542L118.669 46.0499L118.47 46.4457L118.254 46.7874L117.983 47.1292L117.712 47.435L117.406 47.7408L117.081 48.0106L116.738 48.2445L116.359 48.4424L115.962 48.6222L115.547 48.7482L115.131 48.8561L114.698 48.8921H114.229L113.904 48.9101L113.579 48.8741L113.272 48.8381L112.966 48.7482L112.659 48.6582L112.37 48.5503L112.081 48.4244L111.792 48.2805L111.522 48.1366L111.287 47.9387L111.052 47.7408L110.836 47.543L110.619 47.3091L110.421 47.0932L110.24 46.8234L110.096 46.5536L109.988 46.3737L109.717 45.87L109.609 45.5283L109.5 45.1865L109.392 44.6109L109.356 44.377L109.248 43.5675L109.085 42.2364L108.995 41.409L108.923 40.4736L108.851 39.4482V38.333L108.814 37.1457V35.9225L108.851 34.6274L108.941 33.2963L109.067 31.9112L109.266 30.5261L109.374 29.8245L109.482 29.123L109.627 28.4214L109.789 27.7379L109.97 27.0363L110.168 26.3348L110.367 25.6512L110.601 24.9497L110.836 24.3021L111.107 23.6186L111.413 22.971L111.72 22.3234L112.045 21.6938L112.388 21.0822L112.785 20.4706L113.182 19.877L113.615 19.3014L114.049 18.7258L114.536 18.2041L115.041 17.6825L115.583 17.1968L116.16 16.7111L116.756 16.2794L117.369 15.8476L118.019 15.4519L118.705 15.0742L119.427 14.7504L120.167 14.4446L120.961 14.1568L121.773 13.9229L122.622 13.707L123.506 13.5272L124.426 13.4012L125.383 13.3113L126.376 13.2394H127.404L127.477 13.2573ZM138.937 9.76762L138.432 9.73164L137.945 9.65969L137.457 9.55176L137.024 9.37188L136.591 9.17401L136.194 8.90418L135.815 8.63436L135.472 8.31057L135.147 7.9688L134.858 7.59104L134.624 7.1953L134.425 6.76358L134.245 6.33186L134.136 5.84618L134.046 5.3605V4.85683V4.35316L134.136 3.86747L134.245 3.39978L134.425 2.93209L134.624 2.51836L134.858 2.10463L135.147 1.72687L135.472 1.3851L135.815 1.0793L136.194 0.791483L136.591 0.557636L137.024 0.341777L137.457 0.197871L137.945 0.071953L138.432 0H138.937H139.443L139.93 0.071953L140.399 0.197871L140.869 0.341777L141.284 0.557636L141.699 0.791483L142.078 1.0793L142.421 1.3851L142.728 1.72687L143.016 2.10463L143.251 2.51836L143.45 2.93209L143.63 3.39978L143.738 3.86747L143.829 4.35316V4.85683V5.3605L143.738 5.84618L143.63 6.33186L143.45 6.76358L143.251 7.1953L143.016 7.59104L142.728 7.9688L142.421 8.31057L142.078 8.63436L141.699 8.90418L141.284 9.17401L140.869 9.37188L140.399 9.55176L139.93 9.65969L139.443 9.73164L138.937 9.76762ZM143.702 17.8264V18.6718V22.1076V44.6468L143.666 44.9886L143.63 45.2045L143.558 45.4923L143.45 45.7981L143.287 46.1399L143.089 46.5176L142.818 46.8954L142.655 47.1112L142.475 47.3271L142.276 47.525L142.06 47.7228L141.843 47.9207L141.627 48.1006L141.392 48.2445L141.157 48.3704L140.887 48.4963L140.616 48.6043L140.327 48.7122L140.038 48.7841L139.75 48.8561L139.461 48.928H139.154L138.847 48.946H138.504L138.179 48.9101L137.854 48.8381L137.53 48.7662L137.205 48.6582L136.898 48.5323L136.609 48.4064L136.32 48.2265L136.05 48.0466L135.779 47.8488L135.544 47.6329L135.328 47.399L135.111 47.1652L134.913 46.8954L134.732 46.6255L134.588 46.3198L134.407 46.014L134.299 45.7441L134.191 45.4743L134.118 45.2405L134.028 44.8987V44.6648L134.01 18.0782V17.5745L134.118 17.0888L134.227 16.6211L134.407 16.1894L134.606 15.7757L134.84 15.362L135.129 14.9842L135.436 14.6604L135.779 14.3366L136.158 14.0668L136.555 13.833L136.97 13.6171L137.439 13.4732L137.909 13.3473L138.396 13.2753H138.883H139.371L139.84 13.3473L140.309 13.4552L140.742 13.5991L141.139 13.797L141.536 14.0128L141.915 14.2827L142.24 14.5885L142.547 14.8943L142.836 15.272L143.07 15.6498L143.287 16.0455L143.468 16.4593L143.594 16.891L143.684 17.3587L143.72 17.8443L143.702 17.8264Z" fill="white"/>
</svg>
