<svg width="57" height="58" viewBox="0 0 57 58" fill="none" xmlns="http://www.w3.org/2000/svg">
<path d="M2 34.6336C4.14759 47.6808 15.4783 57.6336 29.1336 57.6336C30.9281 57.6336 32.6825 57.4617 34.3811 57.1335M54.3454 41.1335C55.8172 37.765 56.6336 34.0446 56.6336 30.1336C56.6336 16.4783 46.6809 5.14766 33.6338 3" stroke="#231F20" stroke-width="0.5" stroke-linecap="round"/>
<path d="M50.6348 40.0132C51.723 37.577 52.3886 34.9488 52.5783 32.2398C52.9869 26.4068 51.1584 20.6373 47.4649 16.1043L46.8976 15.4407M34.1348 53.1884C32.6153 53.4916 31.0588 53.6425 29.4874 53.6324C24.0214 53.5974 18.7597 51.6176 14.6348 48.0687M33.6348 7.9834C37.0801 8.59197 40.3714 9.98387 43.2404 12.0888L43.6348 12.3843M11.3861 44.6328C9.03754 41.5715 7.4916 37.9607 6.90234 34.1328" stroke="#231F20" stroke-width="0.5" stroke-linecap="round"/>
<path d="M16.6328 39.6333L11.6328 44.6333M43.6328 12.6333L38.6328 17.6333M46.6328 15.6333L41.6328 20.6333M19.6328 42.6333L14.3838 47.8823" stroke="#231F20" stroke-width="0.5" stroke-linecap="round"/>
<path d="M43.6328 30.1333C43.6328 31.3522 41.7432 32.3068 41.4446 33.4328C41.1313 34.5979 42.2817 36.3651 41.6943 37.3882C41.097 38.4211 38.9822 38.3085 38.1451 39.1456C37.308 39.9827 37.4206 42.0975 36.3877 42.6947C35.3695 43.2822 33.5974 42.1367 32.4323 42.4451C31.3063 42.7437 30.3518 44.6333 29.1328 44.6333C27.9139 44.6333 26.9593 42.7437 25.8334 42.4451C24.6683 42.1318 22.901 43.2822 21.8779 42.6947C20.845 42.0975 20.9576 39.9827 20.1205 39.1456C19.2834 38.3085 17.1686 38.4211 16.5714 37.3882C15.9839 36.37 17.1294 34.5979 16.821 33.4328C16.5224 32.3068 14.6328 31.3522 14.6328 30.1333C14.6328 28.9144 16.5224 27.9598 16.821 26.8338C17.1343 25.6687 15.9839 23.9015 16.5714 22.8784C17.1686 21.8455 19.2834 21.9581 20.1205 21.121C20.9576 20.2839 20.845 18.1691 21.8779 17.5719C22.8961 16.9844 24.6683 18.1299 25.8334 17.8215C26.9593 17.5229 27.9139 15.6333 29.1328 15.6333C30.3518 15.6333 31.3063 17.5229 32.4323 17.8215C33.5974 18.1348 35.3646 16.9844 36.3877 17.5719C37.4206 18.1691 37.308 20.2839 38.1451 21.121C38.9822 21.9581 41.097 21.8455 41.6943 22.8784C42.2817 23.8966 41.1362 25.6687 41.4446 26.8338C41.7432 27.9598 43.6328 28.9144 43.6328 30.1333Z" fill="#231F20"/>
<path d="M39.0388 31.9133C39.0644 33.031 40.2077 34.1232 39.781 35.0276C39.3543 35.932 37.3577 36.6487 36.4789 37.3398C35.6 38.0308 35.8644 39.8141 34.9856 40.5052C34.1067 41.1963 33.4156 40.3174 31.6323 40.5818" stroke="#F2F2F2" stroke-linecap="round"/>
<path d="M42.9328 51.9464L42.6381 52.1452L43.5383 53.4799C43.6568 53.6555 43.7054 53.8111 43.684 53.9464C43.6626 54.0818 43.5895 54.1915 43.4649 54.2756C43.3307 54.3661 43.1975 54.3927 43.0652 54.3555C42.933 54.3183 42.8101 54.2156 42.6967 54.0475L40.5408 50.8512C40.4184 50.6698 40.3705 50.5111 40.3969 50.3751C40.4234 50.2391 40.5273 50.1099 40.7086 49.9876L42.0773 49.0644C42.2662 48.937 42.4334 48.8366 42.579 48.7631C42.7233 48.6878 42.8659 48.6383 43.0067 48.6148C43.174 48.5817 43.3421 48.5823 43.511 48.6168C43.68 48.6513 43.8358 48.7193 43.9786 48.821C44.1219 48.9194 44.2446 49.0442 44.3465 49.1953C44.5555 49.5051 44.6346 49.8118 44.5837 50.1155C44.5348 50.4178 44.3589 50.7275 44.056 51.0445C44.2588 51.0232 44.4804 51.0441 44.7209 51.1073C44.9614 51.1704 45.1938 51.2542 45.4181 51.3585C45.643 51.4597 45.8325 51.5614 45.9866 51.6635C46.1413 51.7626 46.2366 51.8385 46.2722 51.8914C46.3092 51.9462 46.3282 52.0131 46.3293 52.0921C46.3309 52.1679 46.3117 52.2413 46.2717 52.3123C46.2329 52.3852 46.1738 52.4484 46.0945 52.5019C46 52.5656 45.9054 52.5965 45.8106 52.5945C45.717 52.5943 45.6237 52.5762 45.5306 52.5401C45.4394 52.5026 45.3095 52.4446 45.141 52.3658L44.4254 52.0322C44.1656 51.9079 43.9512 51.8243 43.7822 51.7816C43.6151 51.7377 43.4691 51.729 43.3441 51.7556C43.2191 51.7822 43.082 51.8458 42.9328 51.9464ZM42.2371 49.876L41.4607 50.3997L42.231 51.5417L42.9847 51.0332C43.1868 50.8969 43.3454 50.7652 43.4604 50.6382C43.5741 50.5093 43.6388 50.3791 43.6545 50.2475C43.6708 50.1128 43.6293 49.9718 43.5299 49.8245C43.4522 49.7092 43.3547 49.6279 43.2375 49.5805C43.1191 49.5312 42.9933 49.5199 42.8601 49.5465C42.7338 49.5712 42.5262 49.6811 42.2371 49.876Z" fill="#231F20"/>
<path d="M47.3143 45.4076L45.6974 47.0245L46.5675 47.8946L48.0563 46.4058C48.1658 46.2962 48.2722 46.2398 48.3753 46.2366C48.4784 46.2302 48.5703 46.2672 48.6508 46.3478C48.7314 46.4284 48.7709 46.521 48.7692 46.6257C48.766 46.7289 48.7088 46.836 48.5976 46.9472L47.1089 48.436L48.1167 49.4438L49.7892 47.7713C49.9019 47.6585 50.0131 47.6005 50.1227 47.5973C50.2323 47.5909 50.3305 47.6312 50.4175 47.7182C50.5013 47.8019 50.5408 47.8994 50.536 48.0106C50.5311 48.1186 50.4723 48.2289 50.3595 48.3417L48.4091 50.2921C48.2528 50.4484 48.1054 50.5266 47.9668 50.5266C47.8299 50.5249 47.6841 50.4468 47.5294 50.2921L44.866 47.6287C44.7629 47.5256 44.6944 47.4265 44.6606 47.3315C44.6251 47.2348 44.6251 47.1397 44.6606 47.0463C44.696 46.9496 44.7645 46.8505 44.866 46.749L46.7608 44.8542C46.8752 44.7398 46.9856 44.681 47.0919 44.6777C47.1983 44.6713 47.2925 44.7092 47.3747 44.7913C47.4585 44.8751 47.498 44.971 47.4931 45.0789C47.4883 45.1837 47.4287 45.2932 47.3143 45.4076Z" fill="#231F20"/>
<path d="M49.9577 42.0164L48.8144 43.9966L49.88 44.6119L50.9328 42.7885C51.0102 42.6543 51.0984 42.5723 51.1971 42.5425C51.2951 42.5096 51.3934 42.5216 51.492 42.5786C51.5907 42.6355 51.6528 42.7148 51.6784 42.8164C51.702 42.9168 51.6744 43.0351 51.5958 43.1713L50.5431 44.9947L51.7774 45.7073L52.96 43.659C53.0398 43.5208 53.1322 43.436 53.2372 43.4046C53.3413 43.37 53.4467 43.3834 53.5533 43.445C53.6559 43.5042 53.7192 43.5882 53.7433 43.6968C53.7666 43.8023 53.7384 43.9241 53.6586 44.0623L52.2795 46.451C52.1689 46.6425 52.0468 46.7561 51.9129 46.792C51.7802 46.8259 51.6191 46.7881 51.4297 46.6787L48.1677 44.7954C48.0414 44.7225 47.9496 44.6445 47.8924 44.5615C47.8331 44.4773 47.8085 44.3854 47.8185 44.286C47.8278 44.1834 47.8683 44.07 47.94 43.9457L49.2799 41.625C49.3608 41.4849 49.4522 41.3995 49.554 41.3689C49.6551 41.3351 49.7559 41.3473 49.8566 41.4054C49.9592 41.4647 50.0221 41.547 50.0454 41.6526C50.0678 41.755 50.0386 41.8762 49.9577 42.0164Z" fill="#231F20"/>
<path d="M38.9083 51.737L37.0294 52.4208L37.4678 53.6253L39.0384 53.0536C39.184 53.0006 39.3042 52.9945 39.399 53.0351C39.4952 53.0729 39.5632 53.1463 39.6029 53.2555C39.6427 53.3647 39.6378 53.4647 39.5884 53.5554C39.539 53.6462 39.4425 53.7177 39.2991 53.7699L37.7285 54.3415L38.2931 55.8928C38.3648 56.0898 38.3732 56.2529 38.3184 56.382C38.2649 56.5081 38.1685 56.5965 38.0294 56.6472C37.888 56.6986 37.7549 56.6925 37.6299 56.6289C37.507 56.5645 37.4101 56.4349 37.3392 56.24L36.0206 52.6171C35.9707 52.48 35.9505 52.3613 35.96 52.2608C35.9687 52.1582 36.0089 52.0721 36.0805 52.0024C36.1535 51.9297 36.2575 51.8689 36.3924 51.8198L38.6406 51.0015C38.7927 50.9461 38.9176 50.9395 39.0153 50.9815C39.1144 51.0206 39.1838 51.0947 39.2236 51.2039C39.2641 51.3153 39.2594 51.4189 39.2094 51.5147C39.1607 51.6075 39.0604 51.6816 38.9083 51.737Z" fill="#231F20"/>
<path d="M25.6328 21.6333C26.6328 21.1333 27.1328 19.6333 28.1328 19.6333C29.1328 19.6333 30.6328 21.1333 31.6328 21.6333C32.6328 22.1333 34.1328 21.1333 35.1328 21.6333C36.1328 22.1333 35.6328 23.1333 36.6328 24.6333" stroke="#F2F2F2" stroke-linecap="round"/>
<path d="M23.573 37.3686C22.5904 36.8353 21.0745 37.2846 20.5017 36.4649C19.9289 35.6451 20.2994 33.5564 20.1365 32.4503C19.9736 31.3442 18.2947 30.6874 18.1318 29.5813C17.9689 28.4752 19.075 28.3123 19.7318 26.6334" stroke="#F2F2F2" stroke-linecap="round"/>
<path d="M23.5721 30.5072C23.5721 30.5072 22.6996 29.3403 23.0726 29.0074C23.4456 28.6744 23.5635 28.6218 23.9365 28.2888C24.3096 27.9559 23.6837 26.5039 24.0568 26.1709C24.4298 25.838 25.6992 26.3403 26.0723 26.0073C26.4453 25.6744 26.6992 25.3403 27.0723 25.0073C27.4453 24.6744 28.5723 25.5073 28.5723 25.5073" stroke="#F2F2F2" stroke-linecap="round"/>
<path d="M32.6352 26.5414C32.6352 26.5414 34.0537 26.2086 34.2096 26.6836C34.3656 27.1587 34.3666 27.2878 34.5225 27.7629C34.6785 28.238 36.2596 28.2453 36.4155 28.7204C36.5714 29.1954 35.6032 30.1579 35.7591 30.633C35.915 31.1081 36.1196 31.4745 36.2755 31.9496C36.4314 32.4246 35.2172 33.1243 35.2172 33.1243" stroke="#F2F2F2" stroke-linecap="round"/>
<path d="M32.2423 35.764C32.2423 35.764 31.684 37.1099 31.2073 36.9589C30.7306 36.808 30.6252 36.7335 30.1485 36.5826C29.6718 36.4317 28.7424 37.7108 28.2657 37.5599C27.789 37.409 27.5733 36.0609 27.0966 35.91C26.6199 35.7591 26.203 35.7111 25.7263 35.5602C25.2496 35.4093 25.3909 34.0151 25.3909 34.0151" stroke="#F2F2F2" stroke-linecap="round"/>
<circle cx="29.1328" cy="29.1333" r="0.5" fill="#F2F2F2"/>
<circle cx="32.1328" cy="30.1333" r="0.5" fill="#F2F2F2"/>
<circle cx="29.1328" cy="33.1333" r="0.5" fill="#F2F2F2"/>
<circle cx="44.1328" cy="25.1333" r="0.5" fill="#231F20"/>
<circle cx="41.1328" cy="42.1333" r="0.5" fill="#231F20"/>
<circle cx="33.1328" cy="15.1333" r="0.5" fill="#231F20"/>
<circle cx="17.1328" cy="19.1333" r="0.5" fill="#231F20"/>
<circle cx="25.1328" cy="45.1333" r="0.5" fill="#231F20"/>
<circle cx="14.1328" cy="35.1333" r="0.5" fill="#231F20"/>
<path d="M5.6705 29.2128L5.17232 29.5034L5.4584 31.2259L6.03534 31.338C6.2604 31.3818 6.41514 31.4254 6.49957 31.4688C6.58206 31.5125 6.63387 31.5979 6.65499 31.7251C6.67291 31.833 6.64925 31.9349 6.58402 32.0309C6.51878 32.1269 6.43607 32.1832 6.33588 32.1998C6.27808 32.2094 6.21675 32.2097 6.15189 32.2007C6.08704 32.1917 5.99602 32.1741 5.87883 32.148L2.94746 31.5212C2.86334 31.5035 2.76285 31.4826 2.64599 31.4584C2.52688 31.4327 2.42671 31.4018 2.3455 31.3658C2.26396 31.3278 2.19448 31.2731 2.13704 31.2014C2.07736 31.1282 2.03776 31.0328 2.01824 30.9153C1.9984 30.7958 2.00504 30.6927 2.03816 30.6061C2.06904 30.5178 2.11612 30.4436 2.17941 30.3836C2.24238 30.3217 2.31257 30.2675 2.38998 30.2209C2.46514 30.1728 2.5668 30.1114 2.69496 30.0367L5.24515 28.4757C5.43884 28.3544 5.58288 28.2859 5.67729 28.2702C5.77556 28.2539 5.87299 28.2803 5.9696 28.3494C6.06397 28.4169 6.12075 28.5084 6.13995 28.624C6.15115 28.6915 6.14822 28.7514 6.13118 28.8037C6.11606 28.8557 6.09099 28.9014 6.05596 28.9409C6.01902 28.9807 5.96135 29.0269 5.88298 29.0795C5.80235 29.1305 5.73153 29.175 5.6705 29.2128ZM4.77647 31.1075L4.56623 29.8417L2.9238 30.7708L4.77647 31.1075Z" fill="#231F20"/>
<path d="M2.23324 25.4648L5.35196 25.6776L5.47202 23.918C5.4816 23.7777 5.52301 23.6729 5.59626 23.6035C5.66965 23.5321 5.75798 23.5 5.86126 23.507C5.96648 23.5142 6.04969 23.5571 6.11089 23.6357C6.17014 23.7141 6.19492 23.8244 6.18521 23.9667L6.04221 26.0624C6.02932 26.2514 5.97811 26.385 5.88861 26.463C5.79923 26.5392 5.66101 26.5708 5.47395 26.5581L2.174 26.3329C1.99863 26.3209 1.86976 26.273 1.78739 26.1891C1.70516 26.1032 1.66843 25.9959 1.6772 25.8673C1.68611 25.7368 1.73713 25.6346 1.83027 25.5606C1.92159 25.4847 2.05592 25.4527 2.23324 25.4648Z" fill="#231F20"/>
<path d="M3.19546 19.8191L6.18104 20.7454L6.70365 19.0609C6.74532 18.9266 6.8098 18.8341 6.89708 18.7835C6.98494 18.731 7.0783 18.7201 7.17717 18.7508C7.2779 18.782 7.34898 18.8429 7.39042 18.9335C7.42998 19.0235 7.42864 19.1365 7.38639 19.2727L6.76394 21.279C6.7078 21.4599 6.62719 21.578 6.52209 21.6334C6.41757 21.6868 6.27577 21.6858 6.09669 21.6302L2.93762 20.6501C2.76973 20.598 2.65539 20.5216 2.5946 20.421C2.53439 20.3184 2.52338 20.2056 2.56158 20.0825C2.60035 19.9575 2.67358 19.8698 2.78125 19.8194C2.88763 19.7665 3.0257 19.7664 3.19546 19.8191Z" fill="#231F20"/>
<path d="M6.5315 13.1167L5.53467 14.8043L6.44277 15.3407L7.36062 13.7868C7.42817 13.6725 7.5044 13.603 7.58931 13.5783C7.67353 13.5509 7.75768 13.562 7.84177 13.6117C7.92585 13.6614 7.97841 13.7298 7.99944 13.8171C8.01879 13.9034 7.9942 14.0046 7.92565 14.1206L7.0078 15.6745L8.05968 16.2958L9.09077 14.5502C9.16031 14.4325 9.2402 14.3606 9.33046 14.3345C9.42004 14.3058 9.51023 14.3182 9.60104 14.3719C9.68849 14.4235 9.74208 14.496 9.76181 14.5893C9.78086 14.68 9.75561 14.7842 9.68608 14.9019L8.48363 16.9375C8.38728 17.1006 8.28159 17.197 8.16656 17.2266C8.05253 17.2545 7.9148 17.2208 7.75336 17.1254L4.97358 15.4834C4.86596 15.4199 4.78795 15.3522 4.73955 15.2805C4.68948 15.2079 4.66918 15.129 4.67864 15.0438C4.68742 14.956 4.72309 14.8591 4.78567 14.7532L5.95385 12.7755C6.02437 12.6561 6.10343 12.5837 6.19102 12.5583C6.27792 12.5303 6.36425 12.5416 6.45001 12.5922C6.53746 12.6439 6.5907 12.715 6.60975 12.8057C6.62811 12.8937 6.60202 12.9973 6.5315 13.1167Z" fill="#231F20"/>
<path d="M10.0388 11.5693L9.82748 11.7888L10.8217 12.7457C10.9526 12.8717 11.0212 12.9933 11.0276 13.1106C11.034 13.2279 10.9925 13.3329 10.9031 13.4258C10.8069 13.5257 10.7001 13.572 10.5825 13.5646C10.465 13.5571 10.3436 13.4932 10.2183 13.3726L7.83726 11.081C7.70216 10.951 7.63348 10.8266 7.6312 10.7078C7.62893 10.5891 7.69281 10.4622 7.82283 10.3271L8.80408 9.30753C8.93952 9.16681 9.06165 9.05258 9.17048 8.96486C9.2779 8.87578 9.3885 8.80874 9.50229 8.76374C9.63655 8.70592 9.77757 8.67628 9.92534 8.67484C10.0731 8.67339 10.2159 8.70243 10.3538 8.76195C10.4917 8.8187 10.6169 8.90126 10.7295 9.00961C10.9603 9.23173 11.0816 9.47459 11.0936 9.73819C11.1069 10.0004 11.0151 10.2915 10.8181 10.6116C10.9842 10.5573 11.1737 10.5351 11.3867 10.5448C11.5996 10.5545 11.8094 10.583 12.0161 10.6301C12.2228 10.6745 12.3999 10.7257 12.5474 10.7837C12.6949 10.8388 12.7883 10.8854 12.8277 10.9233C12.8685 10.9626 12.8965 11.0152 12.9115 11.0813C12.9266 11.1445 12.9237 11.2095 12.9028 11.2762C12.8834 11.3443 12.8453 11.4078 12.7884 11.4669C12.7207 11.5373 12.6469 11.5802 12.5671 11.5955C12.4887 11.6122 12.4072 11.6137 12.3227 11.6002C12.2395 11.5852 12.1202 11.5598 11.9648 11.5241L11.3051 11.3731C11.0651 11.3155 10.8704 11.284 10.7211 11.2786C10.5732 11.2718 10.4492 11.2907 10.3492 11.3354C10.2492 11.3802 10.1458 11.4581 10.0388 11.5693ZM9.08383 9.959L8.52718 10.5374L9.37786 11.3561L9.91826 10.7946C10.0632 10.644 10.1724 10.5052 10.2459 10.3781C10.3181 10.2496 10.3489 10.1289 10.3385 10.0158C10.328 9.89996 10.2678 9.78922 10.1581 9.68358C10.0722 9.60096 9.97594 9.55032 9.86922 9.53164C9.7611 9.51161 9.6536 9.52472 9.54675 9.57096C9.44536 9.61434 9.29105 9.74369 9.08383 9.959Z" fill="#231F20"/>
<path d="M16.3462 6.6948L16.7917 7.38708C16.8509 7.47905 16.8894 7.55878 16.9073 7.62625C16.9241 7.69207 16.9221 7.76301 16.9014 7.83907C16.8823 7.91406 16.8482 7.9964 16.7991 8.08608C16.6567 8.34491 16.502 8.56643 16.3348 8.75064C16.1677 8.93485 15.9651 9.10358 15.7269 9.25684C15.4493 9.43547 15.1689 9.55554 14.8857 9.61705C14.6024 9.67857 14.328 9.67981 14.0624 9.6208C13.7968 9.56178 13.546 9.4445 13.3099 9.26893C13.0754 9.09232 12.8663 8.86112 12.6824 8.57534C12.5016 8.29449 12.3781 8.0105 12.3117 7.72337C12.2454 7.43624 12.2412 7.15906 12.2992 6.89182C12.3572 6.62458 12.4753 6.37321 12.6535 6.13772C12.8307 5.90058 13.0671 5.68689 13.3628 5.49663C13.6059 5.3402 13.8421 5.23459 14.0717 5.17979C14.3001 5.12335 14.5044 5.10688 14.6844 5.13038C14.8644 5.15388 15.0194 5.20162 15.1494 5.27361C15.2793 5.3456 15.3717 5.4243 15.4267 5.50971C15.4859 5.60168 15.5021 5.70271 15.4754 5.8128C15.4493 5.92019 15.3886 6.00454 15.2934 6.06584C15.2408 6.09967 15.182 6.12011 15.1169 6.12719C15.0534 6.1332 14.9909 6.12461 14.9295 6.1014C14.7483 6.01829 14.6032 5.96068 14.4943 5.92858C14.3854 5.89648 14.2617 5.89014 14.1232 5.90957C13.9864 5.92795 13.8359 5.98998 13.6716 6.09568C13.5025 6.20455 13.3704 6.33135 13.2754 6.47609C13.1794 6.61919 13.1197 6.77724 13.0963 6.95022C13.0735 7.12051 13.0884 7.30252 13.1411 7.49624C13.1954 7.68891 13.2854 7.88296 13.4112 8.07841C13.6839 8.50215 13.9906 8.76581 14.3313 8.86938C14.6737 8.9719 15.019 8.91111 15.3672 8.68704C15.5364 8.57817 15.6806 8.454 15.7999 8.31453C15.9208 8.174 16.0312 8.01352 16.1311 7.8331L15.7537 7.24676L15.1871 7.61142C15.0508 7.69915 14.9341 7.74521 14.8371 7.7496C14.7417 7.75293 14.6622 7.70532 14.5988 7.60678C14.547 7.5263 14.533 7.44128 14.5566 7.35173C14.5819 7.26113 14.6447 7.18358 14.7449 7.11911L15.5751 6.58481C15.6769 6.51928 15.769 6.47282 15.8512 6.44544C15.9335 6.41805 16.016 6.42183 16.0989 6.45676C16.1834 6.49063 16.2658 6.56998 16.3462 6.6948Z" fill="#231F20"/>
<path d="M20.0619 3.24006L18.2136 3.89204L18.5644 4.88667L20.2663 4.28633C20.3916 4.24215 20.4947 4.23789 20.5756 4.27355C20.6577 4.30671 20.715 4.36934 20.7475 4.46144C20.78 4.55353 20.7762 4.63977 20.7362 4.72015C20.6956 4.79869 20.6117 4.86038 20.4846 4.90521L18.7827 5.50554L19.1891 6.65765L21.101 5.98324C21.2299 5.93776 21.3374 5.93405 21.4233 5.97209C21.5104 6.00764 21.5715 6.07515 21.6065 6.17461C21.6403 6.27039 21.6348 6.36036 21.5899 6.44453C21.5462 6.52621 21.4599 6.58979 21.331 6.63527L19.1014 7.42175C18.9227 7.48477 18.7798 7.49065 18.6727 7.43939C18.5674 7.38748 18.4836 7.27311 18.4212 7.09629L17.3472 4.05164C17.3056 3.93376 17.2893 3.83181 17.2983 3.74579C17.3067 3.65792 17.3419 3.58442 17.4039 3.52528C17.467 3.46364 17.5566 3.41236 17.6727 3.37143L19.8387 2.60737C19.9695 2.56124 20.0766 2.5566 20.16 2.59345C20.2446 2.62781 20.3035 2.69195 20.3366 2.78589C20.3704 2.88167 20.3655 2.9704 20.3218 3.05208C20.2793 3.13127 20.1927 3.19393 20.0619 3.24006Z" fill="#231F20"/>
<path d="M23.5708 2.30525L25.5031 4.64452L25.2317 2.10428C25.2141 1.9392 25.2359 1.81215 25.2971 1.72311C25.36 1.63193 25.4517 1.57991 25.5721 1.56704C25.6964 1.55377 25.7989 1.58505 25.8797 1.66088C25.9603 1.73478 26.0094 1.85426 26.027 2.01934L26.3858 5.37816C26.4258 5.75298 26.2905 5.95699 25.9797 5.99018C25.902 5.99847 25.8309 5.99429 25.7663 5.97762C25.7018 5.9629 25.6398 5.93416 25.5803 5.89142C25.5207 5.84867 25.4642 5.79775 25.4107 5.73864C25.3571 5.67758 25.3033 5.61556 25.2494 5.55257L23.3611 3.23807L23.6284 5.74044C23.6458 5.90358 23.6211 6.03094 23.5543 6.12254C23.4875 6.21414 23.3948 6.26627 23.2764 6.27892C23.154 6.29199 23.0515 6.26071 22.9688 6.18508C22.8858 6.10751 22.8358 5.98813 22.8185 5.82694L22.4666 2.5322C22.4517 2.39237 22.4555 2.28099 22.4781 2.19804C22.5056 2.10671 22.5593 2.02929 22.6389 1.96578C22.7183 1.90033 22.8076 1.86232 22.9066 1.85174C22.9843 1.84345 23.0517 1.84902 23.1088 1.86846C23.1678 1.88769 23.22 1.91649 23.2653 1.95486C23.3126 1.99302 23.3612 2.04381 23.4112 2.10721C23.4631 2.17042 23.5164 2.23643 23.5708 2.30525Z" fill="#231F20"/>
<path d="M31.4803 5.05988C31.4476 5.31758 31.3513 5.54063 31.1915 5.72903C31.0337 5.91768 30.8195 6.0539 30.549 6.13768C30.2785 6.22145 29.9679 6.24108 29.6172 6.19654C29.1967 6.14315 28.86 6.01967 28.607 5.8261C28.4277 5.68718 28.2891 5.51503 28.1912 5.30965C28.0954 5.10258 28.0589 4.90894 28.0818 4.72875C28.0951 4.62412 28.1423 4.53954 28.2233 4.47502C28.3065 4.4088 28.4043 4.38283 28.5167 4.3971C28.6078 4.40867 28.6806 4.44745 28.7353 4.51345C28.7918 4.57969 28.8351 4.6728 28.8652 4.79278C28.9022 4.9353 28.9459 5.05603 28.9964 5.15497C29.0487 5.25415 29.1283 5.34103 29.235 5.41561C29.3419 5.48826 29.4884 5.53639 29.6744 5.56001C29.9301 5.59248 30.145 5.55971 30.3188 5.4617C30.4949 5.36199 30.5943 5.22301 30.6169 5.04475C30.6349 4.90331 30.6058 4.78346 30.5297 4.68519C30.4557 4.58524 30.3529 4.50328 30.2213 4.43931C30.0915 4.37558 29.9157 4.30305 29.6937 4.2217C29.3967 4.11114 29.1505 3.99522 28.9553 3.87396C28.7622 3.751 28.6151 3.59942 28.5139 3.41923C28.4149 3.23735 28.3811 3.02337 28.4123 2.7773C28.4421 2.54285 28.5325 2.34268 28.6835 2.17679C28.8345 2.0109 29.0372 1.89489 29.2917 1.82876C29.5465 1.7607 29.8376 1.74746 30.165 1.78904C30.4266 1.82226 30.6481 1.88386 30.8297 1.97385C31.0134 2.06214 31.1613 2.16854 31.2735 2.29304C31.3859 2.4156 31.4636 2.53966 31.5067 2.66523C31.5499 2.79081 31.5643 2.90978 31.55 3.02216C31.537 3.12485 31.4884 3.21318 31.4042 3.28715C31.3221 3.35942 31.2269 3.38867 31.1184 3.37489C31.0195 3.36234 30.9471 3.32853 30.9009 3.27345C30.8569 3.21667 30.812 3.12828 30.7662 3.00828C30.7091 2.83762 30.632 2.70083 30.5348 2.59793C30.4379 2.49308 30.2693 2.42541 30.029 2.3949C29.8062 2.36661 29.6197 2.39313 29.4696 2.47448C29.3217 2.55414 29.239 2.66275 29.2215 2.80032C29.2107 2.88557 29.2246 2.96215 29.2632 3.03006C29.3019 3.09796 29.359 3.15936 29.4348 3.21426C29.5105 3.26916 29.5884 3.31449 29.6685 3.35026C29.7486 3.38603 29.8815 3.44031 30.0672 3.51311C30.3003 3.5998 30.5094 3.68936 30.6946 3.78178C30.8817 3.87445 31.0369 3.97783 31.1602 4.09193C31.2855 4.20628 31.3764 4.34284 31.433 4.50163C31.4918 4.65873 31.5076 4.84481 31.4803 5.05988Z" fill="#231F20"/>
</svg>
