<svg width="55" height="55" viewBox="0 0 55 55" fill="none" xmlns="http://www.w3.org/2000/svg">
<circle cx="27.5" cy="27.5" r="27.5" fill="#231F20"/>
<ellipse cx="27.728" cy="27.7211" rx="22.8061" ry="22.8061" stroke="white" stroke-width="1.5"/>
<path d="M20.088 18.0473C20.088 18.0473 23.9638 26.598 29.4409 32.1244C34.918 37.6509 36.5598 39.1162 41.761 41.3885" stroke="white" stroke-linecap="round"/>
<path d="M21.7657 16.2162C20.99 17.3288 21.1245 18.9002 21.3294 19.9085C21.4412 20.4584 22.0224 20.7237 22.5167 20.4579C23.4194 19.9726 24.7106 19.106 25.0821 17.9724C25.4138 16.9605 25.3697 15.6469 25.2678 14.6921C25.1989 14.0452 24.5163 13.72 23.9813 14.0902C23.291 14.5679 22.4112 15.2905 21.7657 16.2162Z" stroke="white"/>
<path d="M19.828 27.474C18.0667 27.1381 16.5427 25.5573 15.6879 24.4858C15.2879 23.9844 15.5359 23.2814 16.1573 23.1226C17.4673 22.7879 19.5648 22.3923 20.9705 22.8257C22.4196 23.2725 23.6809 24.7048 24.3622 25.6126C24.6815 26.038 24.5512 26.6209 24.0689 26.8451C23.1478 27.2733 21.562 27.8047 19.828 27.474Z" stroke="white"/>
<path d="M23.6019 32.9443C21.8089 32.9348 20.0225 31.658 18.9869 30.7601C18.5022 30.3399 18.618 29.6036 19.2001 29.3342C20.4273 28.7665 22.4176 27.9955 23.8787 28.1656C25.385 28.341 26.886 29.5197 27.7213 30.2883C28.1127 30.6484 28.0908 31.2453 27.6574 31.5536C26.8297 32.1424 25.3672 32.9536 23.6019 32.9443Z" stroke="white"/>
<path d="M27.9864 37.645C26.2077 37.8719 24.2686 36.8417 23.1237 36.0882C22.5879 35.7355 22.6056 34.9903 23.1471 34.6466C24.2887 33.922 26.1601 32.8954 27.6308 32.8715C29.1438 32.8469 30.8285 33.8626 31.7894 34.5476C32.2376 34.8671 32.278 35.4878 31.8572 35.8427C31.0772 36.5007 29.7092 37.4251 27.9864 37.645Z" stroke="white"/>
<path d="M32.5549 41.8687C30.8148 42.3012 28.7689 41.5038 27.544 40.8886C26.9708 40.6008 26.9016 39.8586 27.3995 39.4542C28.449 38.6016 30.1881 37.3641 31.646 37.1691C33.1467 36.9684 34.9528 37.806 35.9955 38.3905C36.4798 38.6619 36.5845 39.2813 36.197 39.6789C35.4876 40.4069 34.2298 41.4524 32.5549 41.8687Z" stroke="white"/>
<path d="M16.9051 15.2635C16.0408 13.0883 16.7639 11.4769 17.2491 10.7321C17.4445 10.4321 17.8155 10.3317 18.1302 10.5025C18.7599 10.8443 19.8217 11.6471 20.589 13.4048C21.4726 15.4288 20.7171 17.0658 20.3085 17.7289C20.1773 17.9419 19.9484 18.0684 19.7007 18.0335C19.0655 17.944 17.7849 17.4774 16.9051 15.2635Z" stroke="white"/>
<path d="M18.4102 18.2127C19.7695 18.4895 20.6986 19.5445 21.1786 20.241C21.4289 20.6042 21.3349 21.0811 20.957 21.3087C20.228 21.7476 18.9057 22.2998 17.3616 21.8159C16.0994 21.4203 14.8606 20.5209 13.9817 19.7702C13.3963 19.2703 13.6697 18.3899 14.4321 18.2839C15.6472 18.1151 17.262 17.9788 18.4102 18.2127Z" stroke="white"/>
<path d="M23.6244 21.6671C23.0447 23.1927 23.8528 24.8394 24.4229 25.7295C24.6795 26.1303 25.1961 26.2169 25.5478 25.8964C26.1448 25.3523 27.0336 24.3155 27.6785 22.5682C28.3062 20.8674 28.0688 19.2263 27.771 18.171C27.5964 17.5523 26.8713 17.3995 26.4154 17.8527C25.5021 18.7604 24.161 20.2549 23.6244 21.6671Z" stroke="white"/>
<path d="M26.8916 26.1132C26.312 27.6383 27.2251 29.3132 27.8621 30.2217C28.1467 30.6275 28.691 30.6812 29.0265 30.3163C29.5571 29.7391 30.3254 28.6948 30.9457 27.0142C31.5734 25.3134 31.3361 23.6724 31.0382 22.617C30.8636 21.9983 30.1385 21.8455 29.6826 22.2987C28.7693 23.2064 27.4282 24.7009 26.8916 26.1132Z" stroke="white"/>
<path d="M30.7404 30.932C30.4931 32.5462 31.4422 33.9271 32.0675 34.6394C32.3532 34.9647 32.8255 34.9964 33.1326 34.6912C33.7238 34.104 34.6119 32.9254 34.8933 30.9637C35.1508 29.1691 34.5748 27.6142 34.0625 26.6447C33.7621 26.0763 33.0211 26.0788 32.6702 26.6175C31.9674 27.6964 30.9692 29.4387 30.7404 30.932Z" stroke="white"/>
<path d="M34.7953 34.6114C34.5445 36.2484 35.5828 37.614 36.2433 38.2976C36.5339 38.5984 36.9886 38.6172 37.2804 38.3176C37.8356 37.7478 38.6677 36.5979 38.9482 34.6431C39.2056 32.8485 38.6297 31.2936 38.1174 30.3241C37.817 29.7557 37.076 29.7582 36.7251 30.2969C36.0223 31.3758 35.0241 33.1181 34.7953 34.6114Z" stroke="white"/>
<path d="M5.5 43L42.39 6.00098L49.4491 12.517L12 50L5.5 43Z" fill="#231F20"/>
<path d="M14.0969 43.9382L13.4298 44.6052L12.4748 44.1806L11.2609 45.3945L11.7001 46.335L11.0496 46.9855L9.19549 42.7657L9.8439 42.1172L14.0969 43.9382ZM11.7663 43.8657L10.2209 43.1572L10.9377 44.6943L11.7663 43.8657ZM14.4408 43.5943L11.4287 40.5822L12.0419 39.969L14.5423 42.4694L16.067 40.9447L16.5787 41.4564L14.4408 43.5943ZM17.0344 41.0007L14.0223 37.9885L14.6355 37.3754L17.1359 39.8758L18.6606 38.3511L19.1723 38.8628L17.0344 41.0007ZM19.6115 38.4236L16.5745 35.3866L18.8264 33.1348L19.3401 33.6485L17.7015 35.2872L18.3748 35.9604L19.8995 34.4357L20.4111 34.9474L18.8864 36.4721L19.713 37.2987L21.4097 35.6021L21.9213 36.1137L19.6115 38.4236ZM22.4434 35.5917L19.4064 32.5547L20.697 31.2641C21.0216 30.9396 21.2847 30.7317 21.4863 30.6406C21.6879 30.5467 21.9027 30.5253 22.1306 30.5764C22.3584 30.6275 22.5622 30.7428 22.7417 30.9223C22.9696 31.1502 23.0911 31.4057 23.1063 31.6888C23.1201 31.9705 23.0131 32.264 22.7852 32.5692C22.9951 32.514 23.1892 32.4898 23.3673 32.4967C23.5469 32.5023 23.8279 32.5499 24.2105 32.6397L25.1738 32.8613L24.4404 33.5947L23.3362 33.3772C22.9426 33.2984 22.6865 33.2577 22.5677 33.2549C22.4475 33.2508 22.3439 33.2701 22.2569 33.3129C22.1686 33.3544 22.0539 33.4455 21.9131 33.5864L21.7888 33.7107L23.0566 34.9785L22.4434 35.5917ZM21.304 33.2259L21.7577 32.7723C22.0519 32.4781 22.2231 32.282 22.2714 32.1839C22.3198 32.0859 22.3343 31.9857 22.3149 31.8835C22.2956 31.7813 22.2404 31.6847 22.1492 31.5935C22.047 31.4913 21.9372 31.4368 21.8198 31.4299C21.7024 31.4202 21.5857 31.4568 21.4697 31.5396C21.4131 31.5825 21.2605 31.7282 21.0119 31.9768L20.5334 32.4553L21.304 33.2259ZM25.8035 29.9984L25.2918 29.4867L26.6135 28.165L27.8233 29.3748C27.8192 29.6276 27.7425 29.9238 27.5934 30.2635C27.4442 30.6005 27.2447 30.894 26.9947 31.144C26.677 31.4616 26.3339 31.6722 25.9651 31.7758C25.595 31.878 25.2269 31.8649 24.8609 31.7364C24.4936 31.6066 24.1642 31.396 23.8728 31.1046C23.5565 30.7883 23.3418 30.441 23.2285 30.0626C23.1153 29.6842 23.1208 29.3016 23.2451 28.9149C23.339 28.6194 23.531 28.3266 23.821 28.0366C24.198 27.6595 24.5716 27.4448 24.9417 27.3923C25.3119 27.3371 25.6668 27.4185 26.0065 27.6367L25.5114 28.3597C25.3195 28.2534 25.1213 28.2168 24.9169 28.2499C24.7125 28.2803 24.5219 28.3839 24.3451 28.5607C24.0772 28.8286 23.9487 29.1269 23.9598 29.4556C23.9722 29.7829 24.1456 30.1137 24.4798 30.4479C24.8402 30.8084 25.191 30.999 25.5321 31.0197C25.8719 31.039 26.1716 30.9189 26.4312 30.6592C26.5597 30.5308 26.6632 30.3775 26.742 30.1993C26.8207 30.0184 26.8704 29.8458 26.8911 29.6814L26.5058 29.2961L25.8035 29.9984ZM28.8094 29.2257L25.7724 26.1887L28.0243 23.9369L28.538 24.4506L26.8994 26.0893L27.5727 26.7625L29.0974 25.2378L29.6091 25.7495L28.0844 27.2742L28.9109 28.1008L30.6076 26.4041L31.1193 26.9158L28.8094 29.2257ZM31.6454 26.3896L28.6085 23.3527L29.2051 22.7561L32.4762 23.5412L30.4481 21.5131L31.0177 20.9434L34.0547 23.9804L33.4394 24.5956L30.2347 23.8395L32.2151 25.82L31.6454 26.3896ZM35.8902 22.1449L32.8532 19.108L34.9351 17.026L35.4489 17.5398L33.9801 19.0085L34.699 19.7274L35.9668 18.4596L36.4806 18.9733L35.2127 20.2411L36.5033 21.5317L35.8902 22.1449ZM38.4817 19.5534L35.4448 16.5164L36.7354 15.2258C37.0599 14.9012 37.323 14.6934 37.5246 14.6022C37.7263 14.5083 37.941 14.4869 38.1689 14.538C38.3968 14.5891 38.6005 14.7044 38.78 14.884C39.0079 15.1118 39.1294 15.3673 39.1446 15.6505C39.1584 15.9322 39.0514 16.2257 38.8235 16.5309C39.0335 16.4757 39.2275 16.4515 39.4057 16.4584C39.5852 16.4639 39.8662 16.5116 40.2488 16.6013L41.2121 16.823L40.4787 17.5563L39.3746 17.3388C38.981 17.2601 38.7248 17.2194 38.606 17.2166C38.4859 17.2125 38.3823 17.2318 38.2953 17.2746C38.2069 17.316 38.0923 17.4072 37.9514 17.5481L37.8271 17.6723L39.0949 18.9402L38.4817 19.5534ZM37.3423 17.1876L37.796 16.7339C38.0902 16.4397 38.2614 16.2436 38.3098 16.1456C38.3581 16.0475 38.3726 15.9474 38.3533 15.8452C38.334 15.743 38.2787 15.6463 38.1876 15.5552C38.0854 15.453 37.9756 15.3984 37.8582 15.3915C37.7408 15.3818 37.6241 15.4184 37.5081 15.5013C37.4514 15.5441 37.2988 15.6898 37.0502 15.9384L36.5717 16.417L37.3423 17.1876ZM41.5456 16.4895L38.5087 13.4525L40.7605 11.2007L41.2742 11.7144L39.6356 13.3531L40.3089 14.0263L41.8336 12.5016L42.3453 13.0133L40.8206 14.538L41.6471 15.3646L43.3438 13.6679L43.8555 14.1796L41.5456 16.4895ZM44.3754 13.6597L41.3385 10.6227L43.5903 8.37085L44.1041 8.88461L42.4654 10.5232L43.1387 11.1965L44.6634 9.67182L45.1751 10.1835L43.6504 11.7082L44.4769 12.5348L46.1736 10.8381L46.6853 11.3498L44.3754 13.6597Z" fill="white"/>
<path d="M11.498 50.4998L50.498 11.9998" stroke="white" stroke-linecap="round"/>
<path d="M4.99805 43.4998L43.498 4.99976" stroke="white" stroke-linecap="round"/>
</svg>
