<svg width="30" height="22.73" viewBox="0 0 30 22.73" fill="none" xmlns="http://www.w3.org/2000/svg">
<path d="M28.1857 0.000759491C27.7279 0.0142825 27.2934 0.20396 26.9742 0.529608L8.83634 18.5105L3.0336 12.758C2.87122 12.5903 2.67673 12.4564 2.46152 12.3642C2.24631 12.272 2.01471 12.2233 1.78027 12.2209C1.54583 12.2186 1.31327 12.2626 1.09621 12.3505C0.879154 12.4383 0.68196 12.5682 0.516177 12.7326C0.350395 12.8969 0.219358 13.0924 0.130741 13.3076C0.0421229 13.5228 -0.00229399 13.7533 9.12121e-05 13.9857C0.00247642 14.2181 0.0516154 14.4477 0.144631 14.6611C0.237647 14.8744 0.372669 15.0672 0.54179 15.2282L7.59044 22.2158C7.92092 22.5433 8.36907 22.7273 8.83634 22.7273C9.30362 22.7273 9.75177 22.5433 10.0822 22.2158L29.466 2.99984C29.7207 2.75447 29.8946 2.43856 29.965 2.09351C30.0354 1.74846 29.999 1.39037 29.8606 1.06617C29.7222 0.741969 29.4883 0.46678 29.1894 0.276666C28.8905 0.0865517 28.5407 -0.00961777 28.1857 0.000759491Z" fill="#0ED88F"/>
</svg>
