<svg width="31" height="23" viewBox="0 0 31 23" fill="none" xmlns="http://www.w3.org/2000/svg">
<path d="M28.5993 0.000759491C28.1415 0.0142825 27.707 0.20396 27.3878 0.529608L9.24992 18.5105L3.44717 12.758C3.2848 12.5903 3.09031 12.4564 2.8751 12.3642C2.65989 12.272 2.42828 12.2233 2.19384 12.2209C1.9594 12.2186 1.72684 12.2626 1.50979 12.3505C1.29273 12.4383 1.09553 12.5682 0.929752 12.7326C0.76397 12.8969 0.632932 13.0924 0.544315 13.3076C0.455697 13.5228 0.41128 13.7533 0.413665 13.9857C0.416051 14.2181 0.46519 14.4477 0.558205 14.6611C0.651221 14.8744 0.786243 15.0672 0.955364 15.2282L8.00401 22.2158C8.3345 22.5433 8.78264 22.7273 9.24992 22.7273C9.71719 22.7273 10.1653 22.5433 10.4958 22.2158L29.8796 2.99984C30.1342 2.75447 30.3082 2.43856 30.3786 2.09351C30.449 1.74846 30.4126 1.39037 30.2742 1.06617C30.1358 0.741969 29.9018 0.46678 29.603 0.276666C29.3041 0.0865517 28.9542 -0.00961777 28.5993 0.000759491Z" fill="#0ED88F"/>
</svg>
