<svg width="20" height="19" viewBox="0 0 20 19" fill="none" xmlns="http://www.w3.org/2000/svg">
<path d="M5.43158 0C4.9056 0 4.4792 0.426395 4.4792 0.952381C4.4792 1.47837 4.9056 1.90476 5.43158 1.90476H16.8125C17.3648 1.90476 17.8125 2.35248 17.8125 2.90476V10.4762C17.8125 11.0022 18.2389 11.4286 18.7649 11.4286C19.2909 11.4286 19.7173 11.0022 19.7173 10.4762V1.90476C19.7173 0.852381 18.8649 0 17.8125 0H5.43158ZM2.57444 3.80952C1.52682 3.80952 0.678978 4.66667 0.678978 5.71429L0.671251 17.5836C0.670671 18.4748 1.74817 18.9215 2.37836 18.2913L4.18631 16.4834C4.37384 16.2958 4.6282 16.1905 4.89341 16.1905H14.003C15.0506 16.1905 15.9078 15.3333 15.9078 14.2857V5.71429C15.9078 4.66667 15.0506 3.80952 14.003 3.80952H2.57444Z" fill="#989797"/>
</svg>
