<svg width="107" height="118" viewBox="0 0 107 118" fill="none" xmlns="http://www.w3.org/2000/svg">
<path d="M76.8419 34.8808L63.5029 43.7234C63.3648 43.8149 63.3271 44.0011 63.4186 44.1392L64.2017 45.3205C64.5069 45.7808 64.3811 46.4013 63.9207 46.7065L59.9256 49.3549C59.4653 49.66 58.8447 49.5342 58.5396 49.0739L51.387 38.2843C51.0819 37.8239 51.2077 37.2034 51.668 36.8982L55.6631 34.2498C56.1235 33.9447 56.744 34.0705 57.0492 34.5308L57.8323 35.7121C57.9238 35.8502 58.11 35.8879 58.2481 35.7964L71.3903 27.0843C71.5197 26.9985 71.6274 26.8838 71.7047 26.7492L84.3093 4.82405C85.4208 2.89063 88.1784 2.80285 89.4106 4.66166L104.315 27.1453C105.547 29.0042 104.393 31.5099 102.179 31.7807L91.9196 33.036L84.3808 33.9584" stroke="#C0CBDD" stroke-width="2.7" stroke-linecap="round"/>
<path d="M34.4883 107.269L34.0097 109.657C33.8775 110.494 34.0121 111.36 34.5827 111.992C36.0082 113.572 39.6534 116.378 47.5593 116.378C55.415 116.378 59.0639 113.607 60.5085 112.023C61.0757 111.4 61.2183 110.552 61.0944 109.725C61.0838 109.654 61.0744 109.593 61.0665 109.522C60.9296 108.284 59.4564 95.6542 56.2266 94.3623C53.786 93.3861 51.4714 95.721 51.4714 95.721C51.4714 95.721 52.4375 90.2864 47.5593 90.2864C42.6811 90.2864 43.3195 95.721 43.3195 95.721C43.3195 95.721 40.6022 92.7389 38.5642 94.3623C35.9982 96.4064 35.1676 101.156 35.1676 101.156" stroke="#C0CBDD" stroke-width="2.7" stroke-linecap="round"/>
<circle cx="39.1939" cy="102.31" r="1.15485" fill="#C0CBDD"/>
<circle cx="43.2701" cy="106.386" r="1.15485" fill="#C0CBDD"/>
<circle cx="33.7584" cy="28.9437" r="1.15485" fill="#C0CBDD"/>
<circle cx="31.0416" cy="37.0955" r="1.15485" fill="#C0CBDD"/>
<circle cx="39.1939" cy="42.5301" r="1.15485" fill="#C0CBDD"/>
<circle cx="37.8345" cy="64.2684" r="1.15485" fill="#C0CBDD"/>
<circle cx="41.9107" cy="71.0616" r="1.15485" fill="#C0CBDD"/>
<circle cx="55.4966" cy="54.7579" r="1.15485" fill="#C0CBDD"/>
<circle cx="52.7799" cy="81.9307" r="1.15485" fill="#C0CBDD"/>
<circle cx="47.3463" cy="100.952" r="1.15485" fill="#C0CBDD"/>
<circle cx="51.4205" cy="106.386" r="1.15485" fill="#C0CBDD"/>
<circle cx="55.4966" cy="102.31" r="1.15485" fill="#C0CBDD"/>
<path d="M23.6622 28.7125C22.0286 28.228 22.0136 23.4209 23.6286 17.9756C25.2437 12.5303 27.8773 8.50879 29.5109 8.9933C31.1445 9.47782 31.1595 14.2849 29.5444 19.7302C27.9293 25.1755 25.2958 29.1971 23.6622 28.7125ZM23.6622 28.7125L9.36575 24.4722" stroke="#C0CBDD" stroke-width="2.7"/>
<path d="M9.85944 24.7442C4.41413 23.1291 1.3091 17.4056 2.92416 11.9603C4.53923 6.51494 10.2628 3.40991 15.7081 5.02497L21.5508 6.64863" stroke="#C0CBDD" stroke-width="2.7" stroke-linecap="round"/>
<path d="M57.0608 81.9C57.0608 81.9 69.3786 50.9763 79.6098 60.1701" stroke="#C0CBDD" stroke-width="2.3" stroke-linecap="round"/>
<path d="M37.3948 85.618C37.3948 85.618 28.4866 53.5455 16.4257 61.8305" stroke="#C0CBDD" stroke-width="2.3" stroke-linecap="round"/>
<path d="M41.8732 63.9653C41.8732 63.9653 40.5592 41.1525 31.263 44.9577" stroke="#C0CBDD" stroke-width="2.3" stroke-linecap="round"/>
</svg>
