<svg width="54" height="54" viewBox="0 0 54 54" fill="none" xmlns="http://www.w3.org/2000/svg">
<g clip-path="url(#clip0_17_1698)">
<mask id="mask0_17_1698" style="mask-type:luminance" maskUnits="userSpaceOnUse" x="0" y="0" width="54" height="54">
<path d="M54 0H0V54H54V0Z" fill="white"/>
</mask>
<g mask="url(#mask0_17_1698)">
<path d="M33.7388 36.9787H33.8175L34.47 39.2625H33.075L33.7388 36.9787ZM20.8237 36.9787H20.9025L21.555 39.2625H20.16L20.8237 36.9787ZM38.8462 35.595V41.7262H42.9525V40.4325H40.3763V35.5837H38.835L38.8462 35.595ZM32.895 35.595L30.87 41.7262H32.4L32.7938 40.3763H34.7738L35.1562 41.7262H36.8325L34.7962 35.595H32.9175H32.895ZM25.3125 35.595V41.7262H29.4187V40.4325H26.8425V35.5837H25.3013L25.3125 35.595ZM19.98 35.595L17.955 41.7262H19.485L19.8787 40.3763H21.8587L22.23 41.7262H23.9062L21.87 35.595H19.9913H19.98ZM11.0475 35.595V41.7262H12.5887V39.2513H14.9963V41.7262H16.5262V35.595H14.9963V38.0025H12.5887V35.595H11.0475ZM18.4725 15.9525C18.4725 15.9525 18.3263 16.3575 18.4725 18.405C18.6075 20.4525 20.565 20.1825 22.1062 21.2738C23.6362 22.365 24.48 25.7738 24.48 25.7738C25.3125 18.135 18.4725 15.9525 18.4725 15.9525ZM29.7225 13.5113C29.6775 13.3763 29.4075 13.9838 27.99 21.105C26.1 30.5888 15.9525 32.9625 15.9525 32.9625C21.6112 33.8512 25.6725 31.0388 27.1125 28.0688C28.5638 25.0988 29.5763 18.8663 29.5763 18.8663C29.5763 27.765 30.3412 30.4988 32.5125 31.545C34.6838 32.5913 38.8912 31.1063 41.94 29.9137C43.875 29.16 46.1475 29.475 46.1475 29.475L47.8462 26.5275C47.8462 26.5275 45.4162 26.7975 43.6725 26.055C41.9287 25.3125 39.465 23.085 37.0013 23.3775C34.6387 23.6588 33.345 27.8888 33.2325 28.2375C33.2887 28.08 33.6037 27.405 35.2575 26.4937C37.1475 25.4475 40.9162 27.6863 40.9162 27.6863C39.1838 29.3175 35.9888 29.4638 33.3787 29.16C30.7687 28.8563 30.8813 22.4212 30.735 17.82C30.5887 13.2188 29.7225 13.6687 29.7225 13.6687C29.7225 13.6687 29.7225 13.5337 29.7225 13.4887V13.5113ZM16.6163 9.82125C16.3125 10.5637 15.2662 12.2063 15.2662 12.2063C15.2662 12.2063 18.2588 27.0112 16.3125 28.8C14.3775 30.5888 10.485 30.8925 8.24625 29.4075C5.99625 27.9112 8.3925 23.13 8.3925 23.13C7.0425 24.7725 5.99625 26.7188 6.15375 28.8113C6.3 30.9038 7.79625 32.9963 11.385 33.1425C14.9738 33.2887 17.5163 29.5538 18.1125 28.0688C18.7087 26.5725 17.6625 18.5063 17.6625 16.4025C17.6625 14.2987 18.405 13.1175 18.405 13.1175C17.3588 12.5212 16.6163 9.82125 16.6163 9.82125ZM27 2.4525C40.5675 2.4525 51.5475 13.4325 51.5475 27C51.5475 40.5675 40.5675 51.5475 27 51.5475C13.4325 51.5475 2.4525 40.5675 2.4525 27C2.4525 13.4325 13.4325 2.4525 27 2.4525ZM27 0C12.105 0 0 12.105 0 27C0 41.895 12.105 54 27 54C41.895 54 54 41.895 54 27C54 12.105 41.895 0 27 0Z" fill="black"/>
</g>
</g>
<defs>
<clipPath id="clip0_17_1698">
<rect width="54" height="54" fill="white"/>
</clipPath>
</defs>
</svg>
