<svg width="84" height="84" viewBox="0 0 84 84" fill="none" xmlns="http://www.w3.org/2000/svg">
<path d="M70.4226 4.05344C73.0165 1.37118 77.2844 1.30848 79.9553 3.9134C82.6261 6.51832 82.6886 10.8044 80.0947 13.4867M35.7247 37.6281L64.9913 9.36715C65.3843 8.98767 66.0091 8.9938 66.3945 9.38091L74.4431 17.4638C74.8317 17.854 74.8317 18.4848 74.4431 18.875L45.1377 48.3054C44.6949 48.7501 44.0942 49 43.4679 49H37.3615C36.0573 49 35 47.9382 35 46.6284V39.3376C35 38.6925 35.2617 38.0752 35.7247 37.6281Z" stroke="#2F5496" stroke-width="4" stroke-linecap="square"/>
<path d="M2 82C2 82 28.5 77.5 31 69.5C33.5 61.5 22.5 66 23 59C23.5 55.5 30 52.5 30 52.5" stroke="#2F5496" stroke-width="4" stroke-linecap="round"/>
</svg>
