<svg width="50" height="55" viewBox="0 0 50 55" fill="none" xmlns="http://www.w3.org/2000/svg">
<g clip-path="url(#clip0_17_1676)">
<mask id="mask0_17_1676" style="mask-type:luminance" maskUnits="userSpaceOnUse" x="0" y="0" width="50" height="55">
<path d="M49.5 0H0V54.75H49.5V0Z" fill="white"/>
</mask>
<g mask="url(#mask0_17_1676)">
<path d="M31.5501 8.96C31.3401 8.96 31.1301 8.85 31.0101 8.65L27.7101 2.95C27.0801 1.86 26.0001 1.24 24.7401 1.24C23.4801 1.24 22.4001 1.86 21.7701 2.95L18.4701 8.65C18.3001 8.95 17.9201 9.05 17.6201 8.88C17.3201 8.71 17.2201 8.33 17.3901 8.03L20.6901 2.33C21.5601 0.85 23.0401 0 24.7501 0C26.4601 0 27.9301 0.85 28.7901 2.33L32.0901 8.03C32.2601 8.33 32.1601 8.71 31.8601 8.88C31.7601 8.93 31.6601 8.96 31.5501 8.96ZM13.8801 15.99C13.7701 15.99 13.6701 15.96 13.5701 15.91C13.2701 15.74 13.1701 15.36 13.3401 15.06L15.4001 11.5C15.5701 11.2 15.9501 11.1 16.2501 11.27C16.5501 11.44 16.6501 11.82 16.4801 12.12L16.1601 12.69L14.4401 15.67C14.3301 15.87 14.1201 15.98 13.9001 15.98L13.8801 15.99ZM16.2201 20.03C16.1101 20.03 16.0101 20 15.9101 19.95C15.6101 19.78 15.5101 19.4 15.6801 19.1L24.2101 4.36C24.3201 4.17 24.5301 4.05 24.7501 4.05C24.9701 4.05 25.1801 4.17 25.2901 4.36L27.4201 8.04C27.5901 8.34 27.4901 8.72 27.1901 8.89C26.8901 9.06 26.5101 8.96 26.3401 8.66L24.7501 5.91L16.7601 19.72C16.6501 19.92 16.4401 20.03 16.2201 20.03ZM29.2101 27.05H12.1501C11.9301 27.05 11.7201 26.93 11.6101 26.74C11.5001 26.55 11.5001 26.31 11.6101 26.12L13.3401 23.13C13.5101 22.83 13.8901 22.73 14.1901 22.9C14.4901 23.07 14.5901 23.45 14.4201 23.75L13.2301 25.81H29.2101C29.5501 25.81 29.8301 26.09 29.8301 26.43C29.8301 26.77 29.5501 27.05 29.2101 27.05ZM37.3401 27.05H33.8801C33.5401 27.05 33.2601 26.77 33.2601 26.43C33.2601 26.09 33.5401 25.81 33.8801 25.81H36.2601L28.6701 12.69C28.5001 12.39 28.6001 12.01 28.9001 11.84C29.2001 11.67 29.5801 11.77 29.7501 12.07L37.8801 26.12C37.9901 26.31 37.9901 26.55 37.8801 26.74C37.7701 26.93 37.5601 27.05 37.3401 27.05ZM26.8701 31.09H12.1501C10.4401 31.09 8.96009 30.24 8.11009 28.76C7.25009 27.28 7.25009 25.58 8.11009 24.1L11.0101 19.09C11.1801 18.79 11.5601 18.69 11.8601 18.86C12.1601 19.03 12.2601 19.41 12.0901 19.71L9.19009 24.72C8.56009 25.81 8.56009 27.05 9.19009 28.14C9.82009 29.23 10.9001 29.85 12.1601 29.85H26.8801C27.2201 29.85 27.5001 30.13 27.5001 30.47C27.5001 30.81 27.2201 31.09 26.8801 31.09H26.8701ZM37.3401 31.09H31.5501C31.2101 31.09 30.9301 30.81 30.9301 30.47C30.9301 30.13 31.2101 29.85 31.5501 29.85H37.3401C38.6001 29.85 39.6801 29.23 40.3101 28.14C40.9401 27.05 40.9401 25.81 40.3101 24.72L33.3501 12.69C33.1801 12.39 33.2801 12.01 33.5801 11.84C33.8801 11.67 34.2601 11.77 34.4301 12.07L41.3901 24.1C42.2501 25.58 42.2501 27.28 41.3901 28.76C40.5301 30.24 39.0601 31.09 37.3501 31.09H37.3401Z" fill="black"/>
<path d="M36.3201 15.37L37.9401 18.17L40.3001 14.09C40.9301 13 40.9301 11.76 40.3001 10.67C39.6701 9.57996 38.5901 8.95996 37.3301 8.95996H22.9701L21.3501 11.76H37.3301C37.5501 11.76 37.7601 11.88 37.8701 12.07C37.9801 12.26 37.9801 12.5 37.8701 12.69L36.3201 15.37ZM37.9401 20.02C37.7201 20.02 37.5101 19.9 37.4001 19.71L35.0601 15.67C34.9501 15.48 34.9501 15.24 35.0601 15.05L36.2501 12.99H20.2701C20.0501 12.99 19.8401 12.87 19.7301 12.68C19.6201 12.49 19.6201 12.25 19.7301 12.06L22.0701 8.01996C22.1801 7.82996 22.3901 7.70996 22.6101 7.70996H37.3301C39.0401 7.70996 40.5201 8.55996 41.3701 10.04C42.2301 11.52 42.2301 13.22 41.3701 14.7L38.4701 19.71C38.3601 19.9 38.1501 20.02 37.9301 20.02H37.9401ZM15.9701 25.81H19.2101L11.6201 12.69C11.5101 12.5 11.5101 12.26 11.6201 12.07C11.7301 11.88 11.9401 11.76 12.1601 11.76H15.2601L16.8801 8.95996H12.1601C10.9001 8.95996 9.82009 9.57996 9.19009 10.67C8.56009 11.76 8.56009 13 9.19009 14.09L15.9701 25.81ZM20.2801 27.05H15.6101C15.3901 27.05 15.1801 26.93 15.0701 26.74L8.11009 14.71C7.25009 13.23 7.25009 11.53 8.11009 10.05C8.97009 8.56996 10.4401 7.71996 12.1501 7.71996H17.9401C18.1601 7.71996 18.3701 7.83996 18.4801 8.02996C18.5901 8.21996 18.5901 8.45996 18.4801 8.64996L16.1401 12.69C16.0301 12.88 15.8201 13 15.6001 13H13.2201L20.8101 26.12C20.9201 26.31 20.9201 26.55 20.8101 26.74C20.7001 26.93 20.4901 27.05 20.2701 27.05H20.2801ZM19.0201 31.09L21.7801 35.86C22.4101 36.95 23.4901 37.57 24.7501 37.57C26.0101 37.57 27.0901 36.95 27.7201 35.86L34.9001 23.45L33.2801 20.65L25.2901 34.46C25.1801 34.65 24.9701 34.77 24.7501 34.77C24.5301 34.77 24.3201 34.65 24.2101 34.46L22.2601 31.09H19.0201ZM24.7501 38.81C23.0401 38.81 21.5601 37.96 20.7101 36.48L17.4101 30.78C17.3001 30.59 17.3001 30.35 17.4101 30.16C17.5201 29.97 17.7301 29.85 17.9501 29.85H22.6201C22.8401 29.85 23.0501 29.97 23.1601 30.16L24.7501 32.91L32.7401 19.1C32.8501 18.91 33.0601 18.79 33.2801 18.79C33.5001 18.79 33.7101 18.91 33.8201 19.1L36.1601 23.14C36.2701 23.33 36.2701 23.57 36.1601 23.76L28.8001 36.48C27.9401 37.96 26.4701 38.81 24.7601 38.81H24.7501Z" fill="black"/>
<path d="M6.9 40.43C3.78 40.43 1.24 42.96 1.24 46.08V47.86C1.24 50.98 3.78 53.5099 6.9 53.5099H42.59C45.71 53.5099 48.25 50.98 48.25 47.86V46.08C48.25 42.96 45.71 40.43 42.59 40.43H6.9ZM42.59 54.75H6.9C3.1 54.75 0 51.6599 0 47.8699V46.09C0 42.29 3.1 39.2 6.9 39.2H42.59C46.4 39.2 49.49 42.29 49.49 46.09V47.8699C49.49 51.6699 46.39 54.7599 42.59 54.7599V54.75Z" fill="black"/>
<path d="M6.7201 50.99C6.3801 50.99 6.1001 50.71 6.1001 50.37V43.58C6.1001 43.24 6.3801 42.96 6.7201 42.96C7.0601 42.96 7.3401 43.24 7.3401 43.58V50.37C7.3401 50.71 7.0601 50.99 6.7201 50.99Z" fill="black"/>
<path d="M6.72002 47.5899C6.55002 47.5899 6.38002 47.5199 6.25002 47.3799C6.02002 47.1199 6.05002 46.7299 6.31002 46.5099L10.2 43.1199C10.46 42.8899 10.85 42.9199 11.08 43.1799C11.31 43.4399 11.28 43.8299 11.02 44.0499L7.13002 47.4399C7.01002 47.5399 6.87002 47.5899 6.72002 47.5899Z" fill="black"/>
<path d="M10.14 50.6399C9.94004 50.6399 9.74004 50.5399 9.63004 50.3699L7.07004 46.5699C6.88004 46.2899 6.95004 45.8999 7.24004 45.7099C7.52004 45.5199 7.91004 45.5899 8.10004 45.8799L10.66 49.6799C10.85 49.9599 10.78 50.3499 10.49 50.5399C10.38 50.6099 10.26 50.6499 10.14 50.6499V50.6399Z" fill="black"/>
<path d="M16.1499 44.21C14.6199 44.21 13.3799 45.45 13.3799 46.98C13.3799 48.51 14.6199 49.75 16.1499 49.75C17.6799 49.75 18.9199 48.51 18.9199 46.98C18.9199 45.45 17.6699 44.21 16.1499 44.21ZM16.1499 50.99C13.9399 50.99 12.1299 49.19 12.1299 46.98C12.1299 44.77 13.9299 42.97 16.1499 42.97C18.3699 42.97 20.1699 44.77 20.1699 46.98C20.1699 49.19 18.3699 50.99 16.1499 50.99Z" fill="black"/>
<path d="M23.3901 50.99C22.1101 50.99 21.0701 49.95 21.0701 48.68C21.0701 48.34 21.3501 48.06 21.6901 48.06C22.0301 48.06 22.3101 48.34 22.3101 48.68C22.3101 49.27 22.7901 49.76 23.3901 49.76C23.9901 49.76 24.4701 49.28 24.4701 48.68C24.4701 48.08 23.9901 47.6 23.3901 47.6C22.1101 47.6 21.0701 46.56 21.0701 45.29C21.0701 44.02 22.1101 42.98 23.3901 42.98C24.6701 42.98 25.7101 44.02 25.7101 45.29C25.7101 45.63 25.4301 45.91 25.0901 45.91C24.7501 45.91 24.4701 45.63 24.4701 45.29C24.4701 44.7 23.9901 44.21 23.3901 44.21C22.7901 44.21 22.3101 44.69 22.3101 45.29C22.3101 45.89 22.7901 46.37 23.3901 46.37C24.6701 46.37 25.7101 47.41 25.7101 48.68C25.7101 49.95 24.6701 50.99 23.3901 50.99Z" fill="black"/>
<path d="M27.2401 50.99C26.9001 50.99 26.6201 50.71 26.6201 50.37V43.59C26.6201 43.25 26.9001 42.97 27.2401 42.97C27.5801 42.97 27.8601 43.25 27.8601 43.59V50.37C27.8601 50.71 27.5801 50.99 27.2401 50.99ZM31.6501 50.99C31.3101 50.99 31.0301 50.71 31.0301 50.37V43.59C31.0301 43.25 31.3101 42.97 31.6501 42.97C31.9901 42.97 32.2701 43.25 32.2701 43.59V50.37C32.2701 50.71 31.9901 50.99 31.6501 50.99Z" fill="black"/>
<path d="M31.6501 47.6199H27.2401C26.9001 47.6199 26.6201 47.3399 26.6201 46.9999C26.6201 46.6599 26.9001 46.3799 27.2401 46.3799H31.6501C31.9901 46.3799 32.2701 46.6599 32.2701 46.9999C32.2701 47.3399 31.9901 47.6199 31.6501 47.6199Z" fill="black"/>
<path d="M33.7999 50.99C33.4599 50.99 33.1799 50.71 33.1799 50.37V43.59C33.1799 43.25 33.4599 42.97 33.7999 42.97C34.1399 42.97 34.4199 43.25 34.4199 43.59V50.37C34.4199 50.71 34.1399 50.99 33.7999 50.99Z" fill="black"/>
<path d="M37.0899 44.21H33.7999C33.4599 44.21 33.1799 43.93 33.1799 43.59C33.1799 43.25 33.4599 42.97 33.7999 42.97H37.0899C37.4299 42.97 37.7099 43.25 37.7099 43.59C37.7099 43.93 37.4299 44.21 37.0899 44.21Z" fill="black"/>
<path d="M37.0899 47.6001H33.7999C33.4599 47.6001 33.1799 47.3201 33.1799 46.9801C33.1799 46.6401 33.4599 46.3601 33.7999 46.3601H37.0899C37.4299 46.3601 37.7099 46.6401 37.7099 46.9801C37.7099 47.3201 37.4299 47.6001 37.0899 47.6001Z" fill="black"/>
<path d="M37.0899 50.99H33.7999C33.4599 50.99 33.1799 50.71 33.1799 50.37C33.1799 50.03 33.4599 49.75 33.7999 49.75H37.0899C37.4299 49.75 37.7099 50.03 37.7099 50.37C37.7099 50.71 37.4299 50.99 37.0899 50.99Z" fill="black"/>
<path d="M39.2401 50.99C38.9001 50.99 38.6201 50.71 38.6201 50.37V43.59C38.6201 43.25 38.9001 42.97 39.2401 42.97C39.5801 42.97 39.8601 43.25 39.8601 43.59V50.37C39.8601 50.71 39.5801 50.99 39.2401 50.99Z" fill="black"/>
<path d="M40.7599 48.23H39.2499C38.9099 48.23 38.6299 47.95 38.6299 47.61C38.6299 47.27 38.9099 46.99 39.2499 46.99H40.7599C41.5299 46.99 42.1599 46.36 42.1599 45.6C42.1599 44.84 41.5299 44.21 40.7599 44.21H39.2499C38.9099 44.21 38.6299 43.93 38.6299 43.59C38.6299 43.25 38.9099 42.97 39.2499 42.97H40.7599C42.2099 42.97 43.3999 44.15 43.3999 45.6C43.3999 47.05 42.2199 48.23 40.7599 48.23Z" fill="black"/>
<path d="M42.3099 50.9899C42.1099 50.9899 41.9199 50.8999 41.7999 50.7199L39.8999 47.9699C39.7099 47.6899 39.7799 47.2999 40.0599 47.1099C40.3399 46.9199 40.7299 46.9899 40.9199 47.2699L42.8199 50.0199C43.0099 50.2999 42.9399 50.6899 42.6599 50.8799C42.5499 50.9499 42.4299 50.9899 42.3099 50.9899Z" fill="black"/>
</g>
</g>
<defs>
<clipPath id="clip0_17_1676">
<rect width="49.5" height="54.75" fill="white"/>
</clipPath>
</defs>
</svg>
