<svg width="54" height="54" viewBox="0 0 54 54" fill="none" xmlns="http://www.w3.org/2000/svg">
<path d="M27 1.41C12.89 1.41 1.41 12.89 1.41 27C1.41 41.11 12.89 52.59 27 52.59C41.11 52.59 52.59 41.11 52.59 27C52.59 12.89 41.11 1.41 27 1.41ZM27 54C12.11 54 0 41.89 0 27C0 12.11 12.11 0 27 0C41.89 0 54 12.11 54 27C54 41.89 41.89 54 27 54Z" fill="black"/>
<path d="M9.80009 35.96L11.9801 39.26V35.93C11.9801 35.71 12.0301 35.55 12.1201 35.44C12.2101 35.33 12.3401 35.28 12.5001 35.28C12.6601 35.28 12.7901 35.33 12.8901 35.44C12.9801 35.55 13.0301 35.71 13.0301 35.93V40.34C13.0301 40.83 12.8301 41.08 12.4201 41.08C12.3201 41.08 12.2301 41.06 12.1501 41.04C12.0701 41.01 11.9901 40.96 11.9201 40.9C11.8501 40.84 11.7801 40.76 11.7201 40.68C11.6601 40.6 11.6001 40.51 11.5401 40.42L9.41009 37.16V40.44C9.41009 40.65 9.36009 40.82 9.26009 40.93C9.16009 41.04 9.03009 41.1 8.88009 41.1C8.73009 41.1 8.59009 41.04 8.49009 40.93C8.39009 40.82 8.34009 40.66 8.34009 40.45V36.13C8.34009 35.95 8.36009 35.8 8.40009 35.7C8.45009 35.59 8.53009 35.49 8.64009 35.42C8.75009 35.35 8.87009 35.31 9.00009 35.31C9.10009 35.31 9.19009 35.33 9.26009 35.36C9.33009 35.39 9.40009 35.44 9.45009 35.49C9.50009 35.55 9.56009 35.62 9.62009 35.71C9.68009 35.8 9.74009 35.89 9.80009 35.99V35.96Z" fill="black"/>
<path d="M15.5801 38.79H17.2501L16.4101 36.48L15.5801 38.79ZM17.8301 40.35L17.5601 39.65H15.2801L15.0101 40.37C14.9101 40.65 14.8201 40.84 14.7401 40.94C14.6701 41.04 14.5401 41.09 14.3801 41.09C14.2401 41.09 14.1101 41.04 14.0001 40.93C13.8901 40.83 13.8401 40.71 13.8401 40.58C13.8401 40.5 13.8501 40.42 13.8801 40.34C13.9101 40.26 13.9501 40.15 14.0101 40L15.4401 36.36C15.4801 36.26 15.5301 36.13 15.5901 35.98C15.6501 35.83 15.7101 35.71 15.7701 35.61C15.8301 35.51 15.9201 35.43 16.0301 35.38C16.1401 35.32 16.2701 35.29 16.4201 35.29C16.5701 35.29 16.7101 35.32 16.8201 35.38C16.9301 35.44 17.0101 35.52 17.0801 35.61C17.1401 35.7 17.2001 35.81 17.2401 35.91C17.2801 36.02 17.3401 36.16 17.4101 36.34L18.8701 39.96C18.9801 40.23 19.0401 40.44 19.0401 40.56C19.0401 40.68 18.9901 40.81 18.8801 40.92C18.7701 41.03 18.6401 41.08 18.4901 41.08C18.4001 41.08 18.3201 41.06 18.2601 41.03C18.2001 41 18.1401 40.95 18.1001 40.9C18.0601 40.84 18.0101 40.76 17.9601 40.65C17.9101 40.54 17.8701 40.44 17.8301 40.35Z" fill="black"/>
<path d="M22.9 36.3101H21.66V40.3801C21.66 40.6101 21.61 40.7901 21.5 40.9001C21.4 41.0101 21.26 41.0701 21.09 41.0701C20.92 41.0701 20.79 41.0101 20.68 40.9001C20.57 40.7901 20.52 40.6101 20.52 40.3801V36.3101H19.28C19.09 36.3101 18.94 36.2701 18.85 36.1801C18.76 36.0901 18.71 35.9801 18.71 35.8401C18.71 35.7001 18.76 35.5801 18.86 35.5001C18.96 35.4201 19.1 35.3701 19.29 35.3701H22.9C23.1 35.3701 23.24 35.4101 23.34 35.5001C23.44 35.5901 23.48 35.7001 23.48 35.8401C23.48 35.9801 23.43 36.0901 23.33 36.1801C23.23 36.2701 23.09 36.3101 22.89 36.3101H22.9Z" fill="black"/>
<path d="M24.24 38.67V35.97C24.24 35.74 24.29 35.57 24.39 35.45C24.49 35.34 24.63 35.28 24.8 35.28C24.97 35.28 25.12 35.34 25.22 35.45C25.32 35.56 25.38 35.74 25.38 35.97V38.73C25.38 39.04 25.41 39.31 25.48 39.52C25.55 39.73 25.67 39.89 25.85 40.01C26.03 40.13 26.28 40.18 26.6 40.18C27.04 40.18 27.36 40.06 27.54 39.83C27.72 39.59 27.81 39.24 27.81 38.76V35.98C27.81 35.75 27.86 35.58 27.96 35.46C28.06 35.35 28.2 35.29 28.37 35.29C28.54 35.29 28.68 35.35 28.79 35.46C28.9 35.57 28.95 35.75 28.95 35.98V38.68C28.95 39.12 28.91 39.48 28.82 39.78C28.74 40.07 28.57 40.33 28.34 40.55C28.14 40.74 27.9 40.88 27.63 40.96C27.36 41.05 27.04 41.09 26.68 41.09C26.25 41.09 25.88 41.04 25.57 40.95C25.26 40.86 25.01 40.71 24.81 40.52C24.61 40.33 24.47 40.08 24.38 39.77C24.29 39.46 24.24 39.1 24.24 38.68V38.67Z" fill="black"/>
<path d="M32.44 36.2301H31.39V37.7701H32.41C32.68 37.7701 32.91 37.7501 33.1 37.7001C33.29 37.6501 33.43 37.5701 33.53 37.4601C33.63 37.3501 33.68 37.1901 33.68 36.9901C33.68 36.8301 33.64 36.7001 33.56 36.5801C33.48 36.4601 33.37 36.3701 33.23 36.3101C33.1 36.2501 32.84 36.2301 32.45 36.2301H32.44ZM31.79 38.5901H31.39V40.3901C31.39 40.6301 31.34 40.8001 31.23 40.9101C31.13 41.0201 30.99 41.0801 30.82 41.0801C30.64 41.0801 30.5 41.0201 30.4 40.9001C30.3 40.7801 30.25 40.6101 30.25 40.3801V36.0701C30.25 35.8201 30.3 35.6501 30.41 35.5401C30.52 35.4301 30.7 35.3701 30.94 35.3701H32.79C33.04 35.3701 33.26 35.3801 33.44 35.4001C33.62 35.4201 33.78 35.4701 33.93 35.5301C34.11 35.6001 34.26 35.7101 34.4 35.8501C34.54 35.9901 34.64 36.1501 34.71 36.3301C34.78 36.5101 34.81 36.7001 34.81 36.9101C34.81 37.3301 34.69 37.6601 34.46 37.9101C34.23 38.1601 33.87 38.3401 33.39 38.4401C33.59 38.5501 33.78 38.7101 33.97 38.9101C34.15 39.1201 34.32 39.3401 34.46 39.5801C34.6 39.8201 34.72 40.0301 34.8 40.2201C34.88 40.4101 34.92 40.5401 34.92 40.6101C34.92 40.6801 34.9 40.7601 34.85 40.8301C34.8 40.9001 34.74 40.9601 34.66 41.0001C34.58 41.0401 34.48 41.0601 34.38 41.0601C34.25 41.0601 34.15 41.0301 34.06 40.9701C33.97 40.9101 33.9 40.8301 33.84 40.7401C33.78 40.6501 33.69 40.5101 33.59 40.3301L33.13 39.5701C32.97 39.2901 32.82 39.0801 32.69 38.9401C32.56 38.7901 32.43 38.6901 32.3 38.6401C32.17 38.5901 32 38.5601 31.8 38.5601L31.79 38.5901Z" fill="black"/>
<path d="M37.3101 38.79H38.9801L38.1401 36.48L37.3101 38.79ZM39.5601 40.35L39.2901 39.65H37.0101L36.7401 40.37C36.6401 40.65 36.5501 40.84 36.4701 40.94C36.4001 41.04 36.2701 41.09 36.1101 41.09C35.9701 41.09 35.8401 41.04 35.7301 40.93C35.6201 40.83 35.5701 40.71 35.5701 40.58C35.5701 40.5 35.5801 40.42 35.6101 40.34C35.6401 40.26 35.6801 40.15 35.7401 40L37.1701 36.36C37.2101 36.26 37.2601 36.13 37.3201 35.98C37.3801 35.83 37.4401 35.71 37.5001 35.61C37.5601 35.51 37.6501 35.43 37.7601 35.38C37.8701 35.32 38.0001 35.29 38.1501 35.29C38.3001 35.29 38.4401 35.32 38.5501 35.38C38.6601 35.44 38.7401 35.52 38.8101 35.61C38.8701 35.7 38.9301 35.81 38.9701 35.91C39.0101 36.02 39.0701 36.16 39.1401 36.34L40.6001 39.96C40.7101 40.23 40.7701 40.44 40.7701 40.56C40.7701 40.68 40.7201 40.81 40.6101 40.92C40.5001 41.03 40.3701 41.08 40.2201 41.08C40.1301 41.08 40.0501 41.06 39.9901 41.03C39.9301 41 39.8701 40.95 39.8301 40.9C39.7901 40.84 39.7401 40.76 39.6901 40.65C39.6401 40.54 39.5901 40.44 39.5601 40.35Z" fill="black"/>
<path d="M42.7999 35.97V40.05H45.0999C45.2799 40.05 45.4199 40.09 45.5199 40.18C45.6199 40.27 45.6699 40.38 45.6699 40.52C45.6699 40.66 45.6199 40.77 45.5199 40.85C45.4199 40.93 45.2799 40.98 45.0999 40.98H42.3599C42.1099 40.98 41.9299 40.92 41.8299 40.81C41.7299 40.7 41.6699 40.52 41.6699 40.28V35.96C41.6699 35.73 41.7199 35.56 41.8199 35.44C41.9199 35.33 42.0599 35.27 42.2299 35.27C42.3999 35.27 42.5399 35.33 42.6499 35.44C42.7599 35.56 42.8099 35.73 42.8099 35.96L42.7999 35.97Z" fill="black"/>
<path d="M20.5401 43.07C20.4301 43.07 20.3501 43.09 20.3101 43.14C20.2701 43.18 20.1901 43.2901 20.0701 43.4501C19.9501 43.6201 19.8101 43.7601 19.6601 43.9001C19.5101 44.0301 19.3001 44.16 19.0501 44.28C18.8701 44.36 18.7501 44.43 18.6801 44.48C18.6001 44.54 18.5601 44.63 18.5601 44.75C18.5601 44.85 18.6001 44.95 18.6801 45.03C18.7601 45.11 18.8501 45.1501 18.9501 45.1501C19.1401 45.1501 19.4901 44.9601 20.0101 44.5601V47.41C20.0101 47.59 20.0501 47.73 20.1401 47.82C20.2301 47.92 20.3401 47.9701 20.4801 47.9701C20.8001 47.9701 20.9601 47.74 20.9601 47.28V43.59C20.9601 43.43 20.9201 43.3001 20.8501 43.2001C20.7701 43.1001 20.6701 43.05 20.5401 43.05V43.07Z" fill="black"/>
<path d="M23.3301 45.5001C23.3301 44.9101 23.3801 44.4701 23.4901 44.1901C23.5901 43.9201 23.7801 43.7901 24.0501 43.7901C24.2401 43.7901 24.3801 43.8501 24.4901 43.9701C24.6001 44.0901 24.6701 44.2801 24.7201 44.5201C24.7701 44.7701 24.7901 45.0901 24.7901 45.4801C24.7901 45.8901 24.7701 46.2301 24.7201 46.4801C24.6801 46.7301 24.6001 46.9201 24.4901 47.0501C24.3901 47.1801 24.2401 47.2401 24.0601 47.2401C23.8801 47.2401 23.7401 47.1801 23.6401 47.0601C23.5301 46.9301 23.4601 46.7401 23.4101 46.4901C23.3701 46.2401 23.3401 45.9001 23.3401 45.5001H23.3301ZM25.1401 43.5001C25.0001 43.3601 24.8401 43.2501 24.6501 43.1801C24.4701 43.1101 24.2601 43.0701 24.0301 43.0701C23.6901 43.0701 23.3901 43.1501 23.1401 43.3201C22.8901 43.4901 22.7001 43.7301 22.5701 44.0501C22.5001 44.2401 22.4401 44.4701 22.4101 44.7301C22.3801 44.9901 22.3601 45.2901 22.3601 45.6101C22.3601 45.8601 22.3801 46.1001 22.4101 46.3201C22.4401 46.5401 22.4901 46.7401 22.5601 46.9201C22.6901 47.2501 22.8901 47.5201 23.1601 47.7001C23.4201 47.8901 23.7301 47.9801 24.0601 47.9801C24.3501 47.9801 24.6201 47.9101 24.8501 47.7701C25.0901 47.6301 25.2801 47.4301 25.4301 47.1701C25.5501 46.9601 25.6301 46.7301 25.6701 46.4701C25.7101 46.2201 25.7301 45.9101 25.7301 45.5601C25.7301 44.9101 25.6501 44.4001 25.4801 44.0401C25.3801 43.8301 25.2601 43.6501 25.1301 43.5101L25.1401 43.5001Z" fill="black"/>
<path d="M27.32 46.4901C27.27 46.2401 27.25 45.9101 27.25 45.5101C27.25 44.9201 27.3 44.4801 27.41 44.2001C27.51 43.9301 27.7 43.8001 27.97 43.8001C28.16 43.8001 28.3 43.8601 28.41 43.9801C28.52 44.1001 28.59 44.2901 28.64 44.5301C28.69 44.7801 28.71 45.1001 28.71 45.4901C28.71 45.9001 28.69 46.2401 28.64 46.4901C28.6 46.7401 28.52 46.9301 28.41 47.0601C28.31 47.1901 28.16 47.2501 27.98 47.2501C27.8 47.2501 27.66 47.1901 27.56 47.0701C27.45 46.9401 27.38 46.7501 27.33 46.5001L27.32 46.4901ZM29.06 43.5001C28.92 43.3601 28.76 43.2501 28.57 43.1801C28.39 43.1101 28.18 43.0701 27.95 43.0701C27.61 43.0701 27.31 43.1501 27.06 43.3201C26.81 43.4901 26.62 43.7301 26.49 44.0501C26.42 44.2401 26.36 44.4701 26.33 44.7301C26.3 44.9901 26.28 45.2901 26.28 45.6101C26.28 45.8601 26.3 46.1001 26.33 46.3201C26.36 46.5401 26.41 46.7401 26.48 46.9201C26.61 47.2501 26.81 47.5201 27.08 47.7001C27.34 47.8901 27.65 47.9801 27.98 47.9801C28.27 47.9801 28.54 47.9101 28.77 47.7701C29.01 47.6301 29.2 47.4301 29.35 47.1701C29.47 46.9601 29.55 46.7301 29.59 46.4701C29.63 46.2201 29.65 45.9101 29.65 45.5601C29.65 44.9101 29.57 44.4001 29.4 44.0401C29.3 43.8301 29.18 43.6501 29.05 43.5101L29.06 43.5001Z" fill="black"/>
<path d="M34.6801 46.0499C34.7401 46.1699 34.7701 46.3699 34.7701 46.6399C34.7701 46.9099 34.7401 47.1299 34.6901 47.2599C34.6401 47.3799 34.5401 47.4399 34.4001 47.4399C34.2601 47.4399 34.1701 47.3799 34.1101 47.2599C34.0501 47.1299 34.0201 46.9299 34.0201 46.6399C34.0201 46.4599 34.0301 46.3099 34.0601 46.1899C34.0801 46.0799 34.1201 45.9999 34.1801 45.9399C34.2301 45.8899 34.3101 45.8599 34.4001 45.8599C34.5401 45.8599 34.6301 45.9199 34.6801 46.0299V46.0499ZM35.3801 46.1299C35.3401 45.9699 35.2701 45.8399 35.1701 45.7299C35.0801 45.6199 34.9601 45.5399 34.8301 45.4899C34.7001 45.4399 34.5501 45.4099 34.3801 45.4099C34.0201 45.4099 33.7501 45.5199 33.5901 45.7399C33.4301 45.9599 33.3401 46.2799 33.3401 46.7099C33.3401 46.9799 33.3801 47.2099 33.4701 47.3899C33.5601 47.5799 33.6901 47.7099 33.8501 47.7999C34.0101 47.8899 34.1901 47.9299 34.3901 47.9299C34.7101 47.9299 34.9701 47.8299 35.1601 47.6199C35.3501 47.4099 35.4401 47.0999 35.4401 46.6799C35.4401 46.4699 35.4201 46.2799 35.3801 46.1299Z" fill="black"/>
<path d="M31.38 43.7201C31.44 43.8401 31.47 44.0401 31.47 44.3201C31.47 44.6001 31.44 44.8201 31.39 44.9501C31.34 45.0701 31.24 45.1301 31.1 45.1301C31 45.1301 30.93 45.1001 30.88 45.0501C30.83 44.9901 30.7901 44.9101 30.7701 44.8001C30.7501 44.6801 30.74 44.5301 30.74 44.3401C30.74 44.1501 30.7501 44.0101 30.7701 43.8901C30.7901 43.7801 30.83 43.6901 30.89 43.6401C30.94 43.5901 31.0101 43.5601 31.1101 43.5601C31.2501 43.5601 31.34 43.6101 31.39 43.7301L31.38 43.7201ZM31.8701 45.2901C32.0601 45.0801 32.1501 44.7701 32.1501 44.3501C32.1501 44.1401 32.1301 43.9601 32.0801 43.8001C32.0401 43.6401 31.97 43.5101 31.88 43.4001C31.79 43.2901 31.6701 43.2101 31.5401 43.1501C31.4101 43.1001 31.26 43.0701 31.08 43.0701C30.84 43.0701 30.64 43.1201 30.49 43.2201C30.33 43.3201 30.22 43.4701 30.15 43.6601C30.08 43.8501 30.05 44.0901 30.05 44.3701C30.05 44.6301 30.09 44.8601 30.18 45.0501C30.27 45.2401 30.4 45.3801 30.55 45.4601C30.7 45.5401 30.89 45.5901 31.09 45.5901C31.42 45.5901 31.6701 45.4901 31.8601 45.2801L31.8701 45.2901Z" fill="black"/>
<path d="M34.4201 43.27C34.4201 43.2 34.4001 43.14 34.3501 43.09C34.3001 43.05 34.2401 43.02 34.1701 43.02C34.1001 43.02 34.0301 43.04 33.9901 43.09C33.9501 43.13 33.9101 43.19 33.8601 43.27L31.1601 47.63C31.1101 47.7 31.0901 47.76 31.0901 47.82C31.0901 47.89 31.1201 47.95 31.1801 48C31.2401 48.04 31.2901 48.06 31.3501 48.06C31.4501 48.06 31.5401 47.99 31.6201 47.86L34.3001 43.54C34.4101 43.36 34.4201 43.3 34.4201 43.26V43.27Z" fill="black"/>
<path d="M28.3299 29.74C32.0099 24.98 35.2599 19.9 38.0599 14.58L39.0099 12.77L37.0199 15.98C34.2999 20.36 31.2699 24.5299 27.9299 28.4599L26.0899 30.62C25.8799 28.65 25.7099 23.66 28.3899 18.44C29.3899 16.49 30.7699 14.76 32.4999 13.43C35.4699 11.15 39.4999 11.03 40.9299 7.69995C40.9299 7.69995 45.0599 16.72 40.5699 24.08C36.2299 30.79 29.2399 31.47 26.9699 31.51L28.3399 29.74H28.3299Z" fill="black"/>
<path d="M23.2001 30.2801C20.0701 27.1501 17.2201 23.7601 14.6801 20.1301L13.8201 18.9001L15.5701 21.0501C17.9601 23.9901 20.5701 26.7501 23.3801 29.3001L24.9201 30.7001C25.0401 28.3101 24.5601 23.8401 20.5701 20.2201C18.1501 17.8501 12.1001 17.5001 11.9501 15.3701C11.9501 15.3701 9.79009 22.3401 13.7601 27.2901C17.5601 31.7801 22.7201 31.6201 24.3801 31.4301L23.2101 30.2601L23.2001 30.2801Z" fill="black"/>
</svg>
