<svg width="52" height="55" viewBox="0 0 52 55" fill="none" xmlns="http://www.w3.org/2000/svg">
<circle cx="22.7448" cy="10.5319" r="10.0319" stroke="#231F20"/>
<circle cx="16.8932" cy="21.0639" r="10.0319" stroke="#231F20"/>
<circle cx="28.5944" cy="21.0639" r="10.0319" stroke="#231F20"/>
<path d="M18.1912 18.6487C18.1763 18.6404 18.1611 18.6318 18.1456 18.6228C17.9076 18.4843 17.6349 18.2758 17.3397 18.0067C16.7501 17.4691 16.114 16.729 15.5423 15.9429C14.9706 15.1567 14.4776 14.3442 14.1659 13.6688C14.0094 13.3297 13.9064 13.0416 13.8576 12.8185C13.8135 12.6165 13.8278 12.53 13.8306 12.5129C13.8313 12.5091 13.8313 12.5087 13.8301 12.5112C13.9072 12.357 14.126 12.1294 14.562 11.9275C14.9873 11.7306 15.58 11.5777 16.3309 11.5435C17.6721 11.4825 19.4965 11.802 21.7052 12.8918C19.1333 14.5678 18.3647 17.1842 18.1912 18.6487Z" fill="#231F20" stroke="#231F20" stroke-linecap="round"/>
<path d="M23.0339 12.8745C23.0431 12.8692 23.0525 12.8639 23.0621 12.8585C23.3229 12.7134 23.678 12.5717 24.1107 12.4402C24.9739 12.178 26.0802 11.9757 27.2006 11.8527C28.3204 11.7297 29.4317 11.6883 30.3017 11.7392C30.7384 11.7647 31.0978 11.8127 31.361 11.8785C31.4925 11.9114 31.5871 11.9457 31.6504 11.9767C31.6884 11.9954 31.7062 12.0085 31.7118 12.0128C31.7954 12.1306 31.8988 12.4686 31.8484 13.0416C31.7995 13.5973 31.6111 14.2916 31.2209 15.0235C30.5036 16.3686 29.1043 17.8395 26.6491 18.7851C26.3593 15.6207 24.3088 13.7083 23.0339 12.8745Z" fill="#231F20" stroke="#231F20" stroke-linecap="round"/>
<path d="M26.5462 20.2807C26.547 20.2948 26.5478 20.3092 26.5484 20.3241C26.5596 20.6051 26.523 20.9675 26.4392 21.3954C26.2721 22.2487 25.9321 23.2875 25.5121 24.3085C25.0927 25.3281 24.6026 26.3082 24.1454 27.0443C23.9161 27.4135 23.7027 27.7088 23.5184 27.9146C23.3319 28.1228 23.2308 28.1753 23.217 28.1825C23.2156 28.1832 23.2151 28.1835 23.2155 28.1834C23.1749 28.1928 23.0684 28.1973 22.8828 28.1395C22.704 28.0839 22.4843 27.9803 22.2378 27.8198C21.7452 27.4992 21.1811 26.9749 20.6659 26.2471C19.7178 24.9079 18.9471 22.8963 19.0915 20.2529C20.759 20.8631 22.4084 21.0047 23.7807 20.908C24.5556 20.8534 25.2493 20.7223 25.8156 20.5522C26.081 20.4725 26.3279 20.3814 26.5462 20.2807Z" fill="#231F20" stroke="#231F20" stroke-linecap="round"/>
<path d="M2.40381 38.5066L4.91309 42.3035V38.4714C4.91309 38.2224 4.96582 38.0364 5.07129 37.9133C5.17969 37.7874 5.32471 37.7244 5.50635 37.7244C5.69385 37.7244 5.8418 37.7874 5.9502 37.9133C6.05859 38.0364 6.11279 38.2224 6.11279 38.4714V43.5383C6.11279 44.1038 5.87842 44.3865 5.40967 44.3865C5.29248 44.3865 5.18701 44.3689 5.09326 44.3337C4.99951 44.3015 4.91162 44.2488 4.82959 44.1755C4.74756 44.1023 4.67139 44.0173 4.60107 43.9207C4.53076 43.821 4.46045 43.72 4.39014 43.6174L1.94238 39.8645V43.6394C1.94238 43.8855 1.88525 44.0715 1.771 44.1975C1.65674 44.3235 1.51025 44.3865 1.33154 44.3865C1.14697 44.3865 0.999023 44.3235 0.887695 44.1975C0.776367 44.0686 0.720703 43.8826 0.720703 43.6394V38.6692C0.720703 38.4583 0.744141 38.2927 0.791016 38.1726C0.84668 38.0408 0.938965 37.9338 1.06787 37.8518C1.19678 37.7668 1.33594 37.7244 1.48535 37.7244C1.60254 37.7244 1.70215 37.7434 1.78418 37.7815C1.86914 37.8196 1.94238 37.8708 2.00391 37.9353C2.06836 37.9998 2.13281 38.0833 2.19727 38.1858C2.26465 38.2883 2.3335 38.3953 2.40381 38.5066ZM11.54 43.5471L11.2324 42.7385H8.61328L8.30566 43.5647C8.18555 43.887 8.08301 44.1052 7.99805 44.2195C7.91309 44.3308 7.77393 44.3865 7.58057 44.3865C7.4165 44.3865 7.27148 44.3264 7.14551 44.2063C7.01953 44.0862 6.95654 43.95 6.95654 43.7976C6.95654 43.7097 6.97119 43.6189 7.00049 43.5251C7.02979 43.4314 7.07812 43.301 7.14551 43.134L8.79346 38.9504C8.84033 38.8303 8.896 38.6868 8.96045 38.5198C9.02783 38.3499 9.09814 38.2092 9.17139 38.0979C9.24756 37.9866 9.3457 37.8972 9.46582 37.8298C9.58887 37.7595 9.73975 37.7244 9.91846 37.7244C10.1001 37.7244 10.251 37.7595 10.3711 37.8298C10.4941 37.8972 10.5923 37.9851 10.6655 38.0935C10.7417 38.2019 10.8047 38.3191 10.8545 38.4451C10.9072 38.5681 10.9731 38.7336 11.0522 38.9417L12.7354 43.0989C12.8672 43.4153 12.9331 43.6453 12.9331 43.7888C12.9331 43.9382 12.8701 44.0759 12.7441 44.2019C12.6211 44.325 12.4717 44.3865 12.2959 44.3865C12.1934 44.3865 12.1055 44.3674 12.0322 44.3293C11.959 44.2942 11.8975 44.2458 11.8477 44.1843C11.7979 44.1199 11.7437 44.0232 11.6851 43.8943C11.6294 43.7625 11.5811 43.6467 11.54 43.5471ZM8.95605 41.7585H10.8809L9.90967 39.0999L8.95605 41.7585ZM17.2881 38.9109H15.8643V43.5911C15.8643 43.8606 15.8042 44.0613 15.6841 44.1931C15.564 44.322 15.4087 44.3865 15.2183 44.3865C15.0249 44.3865 14.8667 44.3206 14.7437 44.1887C14.6235 44.0569 14.5635 43.8577 14.5635 43.5911V38.9109H13.1396C12.917 38.9109 12.7515 38.8625 12.6431 38.7659C12.5347 38.6663 12.4805 38.5359 12.4805 38.3748C12.4805 38.2078 12.5361 38.0759 12.6475 37.9792C12.7617 37.8826 12.9258 37.8342 13.1396 37.8342H17.2881C17.5137 37.8342 17.6807 37.884 17.7891 37.9836C17.9004 38.0833 17.9561 38.2136 17.9561 38.3748C17.9561 38.5359 17.9004 38.6663 17.7891 38.7659C17.6777 38.8625 17.5107 38.9109 17.2881 38.9109ZM18.7383 41.6135V38.5154C18.7383 38.2517 18.7969 38.054 18.9141 37.9221C19.0342 37.7903 19.1909 37.7244 19.3843 37.7244C19.5864 37.7244 19.7461 37.7903 19.8633 37.9221C19.9834 38.054 20.0435 38.2517 20.0435 38.5154V41.6838C20.0435 42.0442 20.083 42.3459 20.1621 42.5891C20.2441 42.8293 20.3877 43.0168 20.5928 43.1516C20.7979 43.2834 21.085 43.3494 21.4541 43.3494C21.9639 43.3494 22.3242 43.2146 22.5352 42.9451C22.7461 42.6726 22.8516 42.261 22.8516 41.7102V38.5154C22.8516 38.2488 22.9102 38.051 23.0273 37.9221C23.1445 37.7903 23.3013 37.7244 23.4976 37.7244C23.6938 37.7244 23.8521 37.7903 23.9722 37.9221C24.0952 38.051 24.1567 38.2488 24.1567 38.5154V41.6135C24.1567 42.1174 24.1069 42.5378 24.0073 42.8748C23.9106 43.2117 23.7261 43.5076 23.4536 43.7625C23.2192 43.9792 22.9468 44.1375 22.6362 44.2371C22.3257 44.3367 21.9624 44.3865 21.5464 44.3865C21.0513 44.3865 20.625 44.3337 20.2676 44.2283C19.9102 44.1199 19.6187 43.9543 19.3931 43.7317C19.1675 43.5061 19.002 43.219 18.8965 42.8704C18.791 42.5188 18.7383 42.0999 18.7383 41.6135ZM27.3208 41.5212H26.8638V43.5911C26.8638 43.8635 26.8037 44.0642 26.6836 44.1931C26.5635 44.322 26.4067 44.3865 26.2134 44.3865C26.0054 44.3865 25.8442 44.3191 25.73 44.1843C25.6157 44.0496 25.5586 43.8518 25.5586 43.5911V38.634C25.5586 38.3528 25.6216 38.1492 25.7476 38.0232C25.8735 37.8972 26.0771 37.8342 26.3584 37.8342H28.481C28.7739 37.8342 29.0244 37.8474 29.2324 37.8738C29.4404 37.8972 29.6279 37.947 29.7949 38.0232C29.9971 38.1082 30.1758 38.2297 30.3311 38.3879C30.4863 38.5461 30.6035 38.7307 30.6826 38.9417C30.7646 39.1497 30.8057 39.3708 30.8057 39.6052C30.8057 40.0857 30.6694 40.4695 30.397 40.7566C30.1274 41.0437 29.7173 41.2473 29.1665 41.3674C29.3979 41.4905 29.6191 41.6721 29.8301 41.9124C30.041 42.1526 30.2285 42.4089 30.3926 42.6814C30.5596 42.9509 30.6885 43.1956 30.7793 43.4153C30.873 43.6321 30.9199 43.7815 30.9199 43.8635C30.9199 43.9485 30.8921 44.0334 30.8364 44.1184C30.7837 44.2004 30.7104 44.2649 30.6167 44.3118C30.5229 44.3616 30.4146 44.3865 30.2915 44.3865C30.145 44.3865 30.022 44.3513 29.9224 44.281C29.8228 44.2136 29.7363 44.1272 29.6631 44.0217C29.5928 43.9163 29.4961 43.761 29.373 43.5559L28.8501 42.6858C28.6626 42.3665 28.4941 42.1233 28.3447 41.9563C28.1982 41.7893 28.0488 41.675 27.8965 41.6135C27.7441 41.552 27.5522 41.5212 27.3208 41.5212ZM28.0679 38.8142H26.8638V40.5852H28.0327C28.3462 40.5852 28.6099 40.5588 28.8237 40.5061C29.0376 40.4504 29.2002 40.3582 29.3115 40.2292C29.4258 40.0974 29.4829 39.9172 29.4829 39.6887C29.4829 39.51 29.4375 39.3533 29.3467 39.2185C29.2559 39.0808 29.1299 38.9783 28.9688 38.9109C28.8164 38.8464 28.5161 38.8142 28.0679 38.8142ZM36.167 43.5471L35.8594 42.7385H33.2402L32.9326 43.5647C32.8125 43.887 32.71 44.1052 32.625 44.2195C32.54 44.3308 32.4009 44.3865 32.2075 44.3865C32.0435 44.3865 31.8984 44.3264 31.7725 44.2063C31.6465 44.0862 31.5835 43.95 31.5835 43.7976C31.5835 43.7097 31.5981 43.6189 31.6274 43.5251C31.6567 43.4314 31.7051 43.301 31.7725 43.134L33.4204 38.9504C33.4673 38.8303 33.5229 38.6868 33.5874 38.5198C33.6548 38.3499 33.7251 38.2092 33.7983 38.0979C33.8745 37.9866 33.9727 37.8972 34.0928 37.8298C34.2158 37.7595 34.3667 37.7244 34.5454 37.7244C34.7271 37.7244 34.8779 37.7595 34.998 37.8298C35.1211 37.8972 35.2192 37.9851 35.2925 38.0935C35.3687 38.2019 35.4316 38.3191 35.4814 38.4451C35.5342 38.5681 35.6001 38.7336 35.6792 38.9417L37.3623 43.0989C37.4941 43.4153 37.5601 43.6453 37.5601 43.7888C37.5601 43.9382 37.4971 44.0759 37.3711 44.2019C37.248 44.325 37.0986 44.3865 36.9229 44.3865C36.8203 44.3865 36.7324 44.3674 36.6592 44.3293C36.5859 44.2942 36.5244 44.2458 36.4746 44.1843C36.4248 44.1199 36.3706 44.0232 36.312 43.8943C36.2563 43.7625 36.208 43.6467 36.167 43.5471ZM33.583 41.7585H35.5078L34.5366 39.0999L33.583 41.7585ZM39.8013 38.5154V43.2043H42.4468C42.6577 43.2043 42.8188 43.2556 42.9302 43.3582C43.0444 43.4607 43.1016 43.5896 43.1016 43.7449C43.1016 43.9031 43.0459 44.032 42.9346 44.1316C42.8232 44.2283 42.6606 44.2766 42.4468 44.2766H39.2959C39.0117 44.2766 38.8066 44.2136 38.6807 44.0876C38.5576 43.9617 38.4961 43.7581 38.4961 43.4768V38.5154C38.4961 38.2517 38.5547 38.054 38.6719 37.9221C38.792 37.7903 38.9487 37.7244 39.1421 37.7244C39.3384 37.7244 39.4966 37.7903 39.6167 37.9221C39.7397 38.051 39.8013 38.2488 39.8013 38.5154Z" fill="#231F20"/>
<path d="M11.6592 51.4521C11.6592 51.5889 11.625 51.7373 11.5566 51.8975C11.4902 52.0557 11.3848 52.2119 11.2402 52.3662C11.0957 52.5186 10.9111 52.6426 10.6865 52.7383C10.4619 52.834 10.2002 52.8818 9.90137 52.8818C9.6748 52.8818 9.46875 52.8604 9.2832 52.8174C9.09766 52.7744 8.92871 52.708 8.77637 52.6182C8.62598 52.5264 8.4873 52.4062 8.36035 52.2578C8.24707 52.123 8.15039 51.9727 8.07031 51.8066C7.99023 51.6387 7.92969 51.46 7.88867 51.2705C7.84961 51.0811 7.83008 50.8799 7.83008 50.667C7.83008 50.3213 7.87988 50.0117 7.97949 49.7383C8.08105 49.4648 8.22559 49.2314 8.41309 49.0381C8.60059 48.8428 8.82031 48.6943 9.07227 48.5928C9.32422 48.4912 9.59277 48.4404 9.87793 48.4404C10.2256 48.4404 10.5352 48.5098 10.8066 48.6484C11.0781 48.7871 11.2861 48.959 11.4307 49.1641C11.5752 49.3672 11.6475 49.5596 11.6475 49.7412C11.6475 49.8408 11.6123 49.9287 11.542 50.0049C11.4717 50.0811 11.3867 50.1191 11.2871 50.1191C11.1758 50.1191 11.0918 50.0928 11.0352 50.04C10.9805 49.9873 10.9189 49.8965 10.8506 49.7676C10.7373 49.5547 10.6035 49.3955 10.4492 49.29C10.2969 49.1846 10.1084 49.1318 9.88379 49.1318C9.52637 49.1318 9.24121 49.2676 9.02832 49.5391C8.81738 49.8105 8.71191 50.1963 8.71191 50.6963C8.71191 51.0303 8.75879 51.3086 8.85254 51.5312C8.94629 51.752 9.0791 51.917 9.25098 52.0264C9.42285 52.1357 9.62402 52.1904 9.85449 52.1904C10.1045 52.1904 10.3154 52.1289 10.4873 52.0059C10.6611 51.8809 10.792 51.6982 10.8799 51.458C10.917 51.3447 10.9629 51.2529 11.0176 51.1826C11.0723 51.1104 11.1602 51.0742 11.2812 51.0742C11.3848 51.0742 11.4736 51.1104 11.5479 51.1826C11.6221 51.2549 11.6592 51.3447 11.6592 51.4521ZM14.3311 48.4404C14.7764 48.4404 15.1582 48.5312 15.4766 48.7129C15.7969 48.8926 16.0391 49.1494 16.2031 49.4834C16.3672 49.8154 16.4492 50.2061 16.4492 50.6553C16.4492 50.9873 16.4043 51.2891 16.3145 51.5605C16.2246 51.832 16.0898 52.0674 15.9102 52.2666C15.7305 52.4658 15.5098 52.6182 15.248 52.7236C14.9863 52.8291 14.6865 52.8818 14.3486 52.8818C14.0127 52.8818 13.7119 52.8281 13.4463 52.7207C13.1807 52.6113 12.959 52.458 12.7812 52.2607C12.6035 52.0635 12.4688 51.8262 12.377 51.5488C12.2871 51.2715 12.2422 50.9717 12.2422 50.6494C12.2422 50.3193 12.2891 50.0166 12.3828 49.7412C12.4785 49.4658 12.6162 49.2314 12.7959 49.0381C12.9756 48.8447 13.1943 48.6973 13.4521 48.5957C13.71 48.4922 14.0029 48.4404 14.3311 48.4404ZM15.5674 50.6494C15.5674 50.335 15.5166 50.0625 15.415 49.832C15.3135 49.6016 15.168 49.4277 14.9785 49.3105C14.791 49.1914 14.5752 49.1318 14.3311 49.1318C14.1572 49.1318 13.9961 49.165 13.8477 49.2314C13.7012 49.2959 13.5742 49.3906 13.4668 49.5156C13.3613 49.6406 13.2773 49.8008 13.2148 49.9961C13.1543 50.1895 13.124 50.4072 13.124 50.6494C13.124 50.8936 13.1543 51.1143 13.2148 51.3115C13.2773 51.5088 13.3643 51.6729 13.4756 51.8037C13.5889 51.9326 13.7178 52.0293 13.8623 52.0938C14.0088 52.1582 14.1689 52.1904 14.3428 52.1904C14.5654 52.1904 14.7695 52.1348 14.9551 52.0234C15.1426 51.9121 15.291 51.7402 15.4004 51.5078C15.5117 51.2754 15.5674 50.9893 15.5674 50.6494ZM18.0459 48.9678V52.0938H19.8096C19.9502 52.0938 20.0576 52.1279 20.1318 52.1963C20.208 52.2646 20.2461 52.3506 20.2461 52.4541C20.2461 52.5596 20.209 52.6455 20.1348 52.7119C20.0605 52.7764 19.9521 52.8086 19.8096 52.8086H17.709C17.5195 52.8086 17.3828 52.7666 17.2988 52.6826C17.2168 52.5986 17.1758 52.4629 17.1758 52.2754V48.9678C17.1758 48.792 17.2148 48.6602 17.293 48.5723C17.373 48.4844 17.4775 48.4404 17.6064 48.4404C17.7373 48.4404 17.8428 48.4844 17.9229 48.5723C18.0049 48.6582 18.0459 48.79 18.0459 48.9678ZM22.4111 48.4404C22.8564 48.4404 23.2383 48.5312 23.5566 48.7129C23.877 48.8926 24.1191 49.1494 24.2832 49.4834C24.4473 49.8154 24.5293 50.2061 24.5293 50.6553C24.5293 50.9873 24.4844 51.2891 24.3945 51.5605C24.3047 51.832 24.1699 52.0674 23.9902 52.2666C23.8105 52.4658 23.5898 52.6182 23.3281 52.7236C23.0664 52.8291 22.7666 52.8818 22.4287 52.8818C22.0928 52.8818 21.792 52.8281 21.5264 52.7207C21.2607 52.6113 21.0391 52.458 20.8613 52.2607C20.6836 52.0635 20.5488 51.8262 20.457 51.5488C20.3672 51.2715 20.3223 50.9717 20.3223 50.6494C20.3223 50.3193 20.3691 50.0166 20.4629 49.7412C20.5586 49.4658 20.6963 49.2314 20.876 49.0381C21.0557 48.8447 21.2744 48.6973 21.5322 48.5957C21.79 48.4922 22.083 48.4404 22.4111 48.4404ZM23.6475 50.6494C23.6475 50.335 23.5967 50.0625 23.4951 49.832C23.3936 49.6016 23.248 49.4277 23.0586 49.3105C22.8711 49.1914 22.6553 49.1318 22.4111 49.1318C22.2373 49.1318 22.0762 49.165 21.9277 49.2314C21.7812 49.2959 21.6543 49.3906 21.5469 49.5156C21.4414 49.6406 21.3574 49.8008 21.2949 49.9961C21.2344 50.1895 21.2041 50.4072 21.2041 50.6494C21.2041 50.8936 21.2344 51.1143 21.2949 51.3115C21.3574 51.5088 21.4443 51.6729 21.5557 51.8037C21.6689 51.9326 21.7979 52.0293 21.9424 52.0938C22.0889 52.1582 22.249 52.1904 22.4229 52.1904C22.6455 52.1904 22.8496 52.1348 23.0352 52.0234C23.2227 51.9121 23.3711 51.7402 23.4805 51.5078C23.5918 51.2754 23.6475 50.9893 23.6475 50.6494ZM26.4424 50.9717H26.1377V52.3516C26.1377 52.5332 26.0977 52.667 26.0176 52.7529C25.9375 52.8389 25.833 52.8818 25.7041 52.8818C25.5654 52.8818 25.458 52.8369 25.3818 52.7471C25.3057 52.6572 25.2676 52.5254 25.2676 52.3516V49.0469C25.2676 48.8594 25.3096 48.7236 25.3936 48.6396C25.4775 48.5557 25.6133 48.5137 25.8008 48.5137H27.2158C27.4111 48.5137 27.5781 48.5225 27.7168 48.54C27.8555 48.5557 27.9805 48.5889 28.0918 48.6396C28.2266 48.6963 28.3457 48.7773 28.4492 48.8828C28.5527 48.9883 28.6309 49.1113 28.6836 49.252C28.7383 49.3906 28.7656 49.5381 28.7656 49.6943C28.7656 50.0146 28.6748 50.2705 28.4932 50.4619C28.3135 50.6533 28.04 50.7891 27.6729 50.8691C27.8271 50.9512 27.9746 51.0723 28.1152 51.2324C28.2559 51.3926 28.3809 51.5635 28.4902 51.7451C28.6016 51.9248 28.6875 52.0879 28.748 52.2344C28.8105 52.3789 28.8418 52.4785 28.8418 52.5332C28.8418 52.5898 28.8232 52.6465 28.7861 52.7031C28.751 52.7578 28.7021 52.8008 28.6396 52.832C28.5771 52.8652 28.5049 52.8818 28.4229 52.8818C28.3252 52.8818 28.2432 52.8584 28.1768 52.8115C28.1104 52.7666 28.0527 52.709 28.0039 52.6387C27.957 52.5684 27.8926 52.4648 27.8105 52.3281L27.4619 51.748C27.3369 51.5352 27.2246 51.373 27.125 51.2617C27.0273 51.1504 26.9277 51.0742 26.8262 51.0332C26.7246 50.9922 26.5967 50.9717 26.4424 50.9717ZM26.9404 49.167H26.1377V50.3477H26.917C27.126 50.3477 27.3018 50.3301 27.4443 50.2949C27.5869 50.2578 27.6953 50.1963 27.7695 50.1104C27.8457 50.0225 27.8838 49.9023 27.8838 49.75C27.8838 49.6309 27.8535 49.5264 27.793 49.4365C27.7324 49.3447 27.6484 49.2764 27.541 49.2314C27.4395 49.1885 27.2393 49.167 26.9404 49.167ZM32.8555 51.5195C32.8555 51.7793 32.7881 52.0127 32.6533 52.2197C32.5205 52.4268 32.3252 52.5889 32.0674 52.7061C31.8096 52.8232 31.5039 52.8818 31.1504 52.8818C30.7266 52.8818 30.377 52.8018 30.1016 52.6416C29.9062 52.5264 29.7471 52.373 29.624 52.1816C29.5029 51.9883 29.4424 51.8008 29.4424 51.6191C29.4424 51.5137 29.4785 51.4238 29.5508 51.3496C29.625 51.2734 29.7188 51.2354 29.832 51.2354C29.9238 51.2354 30.001 51.2646 30.0635 51.3232C30.1279 51.3818 30.1826 51.4688 30.2275 51.584C30.2822 51.7207 30.3408 51.835 30.4033 51.9268C30.4678 52.0186 30.5576 52.0947 30.6729 52.1553C30.7881 52.2139 30.9395 52.2432 31.127 52.2432C31.3848 52.2432 31.5938 52.1836 31.7539 52.0645C31.916 51.9434 31.9971 51.793 31.9971 51.6133C31.9971 51.4707 31.9531 51.3555 31.8652 51.2676C31.7793 51.1777 31.667 51.1094 31.5283 51.0625C31.3916 51.0156 31.208 50.9658 30.9775 50.9131C30.6689 50.8408 30.4102 50.7568 30.2012 50.6611C29.9941 50.5635 29.8291 50.4316 29.7061 50.2656C29.585 50.0977 29.5244 49.8896 29.5244 49.6416C29.5244 49.4053 29.5889 49.1953 29.7178 49.0117C29.8467 48.8281 30.0332 48.6875 30.2773 48.5898C30.5215 48.4902 30.8086 48.4404 31.1387 48.4404C31.4023 48.4404 31.6299 48.4736 31.8213 48.54C32.0146 48.6045 32.1748 48.6914 32.3018 48.8008C32.4287 48.9082 32.5215 49.0215 32.5801 49.1406C32.6387 49.2598 32.668 49.376 32.668 49.4893C32.668 49.5928 32.6309 49.6865 32.5566 49.7705C32.4844 49.8525 32.3936 49.8936 32.2842 49.8936C32.1846 49.8936 32.1084 49.8691 32.0557 49.8203C32.0049 49.7695 31.9492 49.6875 31.8887 49.5742C31.8105 49.4121 31.7168 49.2861 31.6074 49.1963C31.498 49.1045 31.3223 49.0586 31.0801 49.0586C30.8555 49.0586 30.6738 49.1084 30.5352 49.208C30.3984 49.3057 30.3301 49.4238 30.3301 49.5625C30.3301 49.6484 30.3535 49.7227 30.4004 49.7852C30.4473 49.8477 30.5117 49.9014 30.5938 49.9463C30.6758 49.9912 30.7588 50.0264 30.8428 50.0518C30.9268 50.0771 31.0654 50.1143 31.2588 50.1631C31.501 50.2197 31.7197 50.2822 31.915 50.3506C32.1123 50.4189 32.2793 50.502 32.416 50.5996C32.5547 50.6973 32.6621 50.8213 32.7383 50.9717C32.8164 51.1201 32.8555 51.3027 32.8555 51.5195Z" fill="#231F20"/>
</svg>
