<svg width="52" height="56" viewBox="0 0 52 56" fill="none" xmlns="http://www.w3.org/2000/svg">
<path d="M2.40381 39.5066L4.91309 43.3035V39.4714C4.91309 39.2224 4.96582 39.0364 5.07129 38.9133C5.17969 38.7874 5.32471 38.7244 5.50635 38.7244C5.69385 38.7244 5.8418 38.7874 5.9502 38.9133C6.05859 39.0364 6.11279 39.2224 6.11279 39.4714V44.5383C6.11279 45.1038 5.87842 45.3865 5.40967 45.3865C5.29248 45.3865 5.18701 45.3689 5.09326 45.3337C4.99951 45.3015 4.91162 45.2488 4.82959 45.1755C4.74756 45.1023 4.67139 45.0173 4.60107 44.9207C4.53076 44.821 4.46045 44.72 4.39014 44.6174L1.94238 40.8645V44.6394C1.94238 44.8855 1.88525 45.0715 1.771 45.1975C1.65674 45.3235 1.51025 45.3865 1.33154 45.3865C1.14697 45.3865 0.999023 45.3235 0.887695 45.1975C0.776367 45.0686 0.720703 44.8826 0.720703 44.6394V39.6692C0.720703 39.4583 0.744141 39.2927 0.791016 39.1726C0.84668 39.0408 0.938965 38.9338 1.06787 38.8518C1.19678 38.7668 1.33594 38.7244 1.48535 38.7244C1.60254 38.7244 1.70215 38.7434 1.78418 38.7815C1.86914 38.8196 1.94238 38.8708 2.00391 38.9353C2.06836 38.9998 2.13281 39.0833 2.19727 39.1858C2.26465 39.2883 2.3335 39.3953 2.40381 39.5066ZM11.54 44.5471L11.2324 43.7385H8.61328L8.30566 44.5647C8.18555 44.887 8.08301 45.1052 7.99805 45.2195C7.91309 45.3308 7.77393 45.3865 7.58057 45.3865C7.4165 45.3865 7.27148 45.3264 7.14551 45.2063C7.01953 45.0862 6.95654 44.95 6.95654 44.7976C6.95654 44.7097 6.97119 44.6189 7.00049 44.5251C7.02979 44.4314 7.07812 44.301 7.14551 44.134L8.79346 39.9504C8.84033 39.8303 8.896 39.6868 8.96045 39.5198C9.02783 39.3499 9.09814 39.2092 9.17139 39.0979C9.24756 38.9866 9.3457 38.8972 9.46582 38.8298C9.58887 38.7595 9.73975 38.7244 9.91846 38.7244C10.1001 38.7244 10.251 38.7595 10.3711 38.8298C10.4941 38.8972 10.5923 38.9851 10.6655 39.0935C10.7417 39.2019 10.8047 39.3191 10.8545 39.4451C10.9072 39.5681 10.9731 39.7336 11.0522 39.9417L12.7354 44.0989C12.8672 44.4153 12.9331 44.6453 12.9331 44.7888C12.9331 44.9382 12.8701 45.0759 12.7441 45.2019C12.6211 45.325 12.4717 45.3865 12.2959 45.3865C12.1934 45.3865 12.1055 45.3674 12.0322 45.3293C11.959 45.2942 11.8975 45.2458 11.8477 45.1843C11.7979 45.1199 11.7437 45.0232 11.6851 44.8943C11.6294 44.7625 11.5811 44.6467 11.54 44.5471ZM8.95605 42.7585H10.8809L9.90967 40.0999L8.95605 42.7585ZM17.2881 39.9109H15.8643V44.5911C15.8643 44.8606 15.8042 45.0613 15.6841 45.1931C15.564 45.322 15.4087 45.3865 15.2183 45.3865C15.0249 45.3865 14.8667 45.3206 14.7437 45.1887C14.6235 45.0569 14.5635 44.8577 14.5635 44.5911V39.9109H13.1396C12.917 39.9109 12.7515 39.8625 12.6431 39.7659C12.5347 39.6663 12.4805 39.5359 12.4805 39.3748C12.4805 39.2078 12.5361 39.0759 12.6475 38.9792C12.7617 38.8826 12.9258 38.8342 13.1396 38.8342H17.2881C17.5137 38.8342 17.6807 38.884 17.7891 38.9836C17.9004 39.0833 17.9561 39.2136 17.9561 39.3748C17.9561 39.5359 17.9004 39.6663 17.7891 39.7659C17.6777 39.8625 17.5107 39.9109 17.2881 39.9109ZM18.7383 42.6135V39.5154C18.7383 39.2517 18.7969 39.054 18.9141 38.9221C19.0342 38.7903 19.1909 38.7244 19.3843 38.7244C19.5864 38.7244 19.7461 38.7903 19.8633 38.9221C19.9834 39.054 20.0435 39.2517 20.0435 39.5154V42.6838C20.0435 43.0442 20.083 43.3459 20.1621 43.5891C20.2441 43.8293 20.3877 44.0168 20.5928 44.1516C20.7979 44.2834 21.085 44.3494 21.4541 44.3494C21.9639 44.3494 22.3242 44.2146 22.5352 43.9451C22.7461 43.6726 22.8516 43.261 22.8516 42.7102V39.5154C22.8516 39.2488 22.9102 39.051 23.0273 38.9221C23.1445 38.7903 23.3013 38.7244 23.4976 38.7244C23.6938 38.7244 23.8521 38.7903 23.9722 38.9221C24.0952 39.051 24.1567 39.2488 24.1567 39.5154V42.6135C24.1567 43.1174 24.1069 43.5378 24.0073 43.8748C23.9106 44.2117 23.7261 44.5076 23.4536 44.7625C23.2192 44.9792 22.9468 45.1375 22.6362 45.2371C22.3257 45.3367 21.9624 45.3865 21.5464 45.3865C21.0513 45.3865 20.625 45.3337 20.2676 45.2283C19.9102 45.1199 19.6187 44.9543 19.3931 44.7317C19.1675 44.5061 19.002 44.219 18.8965 43.8704C18.791 43.5188 18.7383 43.0999 18.7383 42.6135ZM27.3208 42.5212H26.8638V44.5911C26.8638 44.8635 26.8037 45.0642 26.6836 45.1931C26.5635 45.322 26.4067 45.3865 26.2134 45.3865C26.0054 45.3865 25.8442 45.3191 25.73 45.1843C25.6157 45.0496 25.5586 44.8518 25.5586 44.5911V39.634C25.5586 39.3528 25.6216 39.1492 25.7476 39.0232C25.8735 38.8972 26.0771 38.8342 26.3584 38.8342H28.481C28.7739 38.8342 29.0244 38.8474 29.2324 38.8738C29.4404 38.8972 29.6279 38.947 29.7949 39.0232C29.9971 39.1082 30.1758 39.2297 30.3311 39.3879C30.4863 39.5461 30.6035 39.7307 30.6826 39.9417C30.7646 40.1497 30.8057 40.3708 30.8057 40.6052C30.8057 41.0857 30.6694 41.4695 30.397 41.7566C30.1274 42.0437 29.7173 42.2473 29.1665 42.3674C29.3979 42.4905 29.6191 42.6721 29.8301 42.9124C30.041 43.1526 30.2285 43.4089 30.3926 43.6814C30.5596 43.9509 30.6885 44.1956 30.7793 44.4153C30.873 44.6321 30.9199 44.7815 30.9199 44.8635C30.9199 44.9485 30.8921 45.0334 30.8364 45.1184C30.7837 45.2004 30.7104 45.2649 30.6167 45.3118C30.5229 45.3616 30.4146 45.3865 30.2915 45.3865C30.145 45.3865 30.022 45.3513 29.9224 45.281C29.8228 45.2136 29.7363 45.1272 29.6631 45.0217C29.5928 44.9163 29.4961 44.761 29.373 44.5559L28.8501 43.6858C28.6626 43.3665 28.4941 43.1233 28.3447 42.9563C28.1982 42.7893 28.0488 42.675 27.8965 42.6135C27.7441 42.552 27.5522 42.5212 27.3208 42.5212ZM28.0679 39.8142H26.8638V41.5852H28.0327C28.3462 41.5852 28.6099 41.5588 28.8237 41.5061C29.0376 41.4504 29.2002 41.3582 29.3115 41.2292C29.4258 41.0974 29.4829 40.9172 29.4829 40.6887C29.4829 40.51 29.4375 40.3533 29.3467 40.2185C29.2559 40.0808 29.1299 39.9783 28.9688 39.9109C28.8164 39.8464 28.5161 39.8142 28.0679 39.8142ZM36.167 44.5471L35.8594 43.7385H33.2402L32.9326 44.5647C32.8125 44.887 32.71 45.1052 32.625 45.2195C32.54 45.3308 32.4009 45.3865 32.2075 45.3865C32.0435 45.3865 31.8984 45.3264 31.7725 45.2063C31.6465 45.0862 31.5835 44.95 31.5835 44.7976C31.5835 44.7097 31.5981 44.6189 31.6274 44.5251C31.6567 44.4314 31.7051 44.301 31.7725 44.134L33.4204 39.9504C33.4673 39.8303 33.5229 39.6868 33.5874 39.5198C33.6548 39.3499 33.7251 39.2092 33.7983 39.0979C33.8745 38.9866 33.9727 38.8972 34.0928 38.8298C34.2158 38.7595 34.3667 38.7244 34.5454 38.7244C34.7271 38.7244 34.8779 38.7595 34.998 38.8298C35.1211 38.8972 35.2192 38.9851 35.2925 39.0935C35.3687 39.2019 35.4316 39.3191 35.4814 39.4451C35.5342 39.5681 35.6001 39.7336 35.6792 39.9417L37.3623 44.0989C37.4941 44.4153 37.5601 44.6453 37.5601 44.7888C37.5601 44.9382 37.4971 45.0759 37.3711 45.2019C37.248 45.325 37.0986 45.3865 36.9229 45.3865C36.8203 45.3865 36.7324 45.3674 36.6592 45.3293C36.5859 45.2942 36.5244 45.2458 36.4746 45.1843C36.4248 45.1199 36.3706 45.0232 36.312 44.8943C36.2563 44.7625 36.208 44.6467 36.167 44.5471ZM33.583 42.7585H35.5078L34.5366 40.0999L33.583 42.7585ZM39.8013 39.5154V44.2043H42.4468C42.6577 44.2043 42.8188 44.2556 42.9302 44.3582C43.0444 44.4607 43.1016 44.5896 43.1016 44.7449C43.1016 44.9031 43.0459 45.032 42.9346 45.1316C42.8232 45.2283 42.6606 45.2766 42.4468 45.2766H39.2959C39.0117 45.2766 38.8066 45.2136 38.6807 45.0876C38.5576 44.9617 38.4961 44.7581 38.4961 44.4768V39.5154C38.4961 39.2517 38.5547 39.054 38.6719 38.9221C38.792 38.7903 38.9487 38.7244 39.1421 38.7244C39.3384 38.7244 39.4966 38.7903 39.6167 38.9221C39.7397 39.051 39.8013 39.2488 39.8013 39.5154Z" fill="#231F20"/>
<path d="M9.22656 50.1846H7.5127V51.2832H8.94531C9.07812 51.2832 9.17676 51.3135 9.24121 51.374C9.30762 51.4326 9.34082 51.5117 9.34082 51.6113C9.34082 51.7109 9.30762 51.79 9.24121 51.8486C9.1748 51.9072 9.07617 51.9365 8.94531 51.9365H7.5127V53.3516C7.5127 53.5312 7.47168 53.665 7.38965 53.7529C7.30957 53.8389 7.20605 53.8818 7.0791 53.8818C6.9502 53.8818 6.84473 53.8379 6.7627 53.75C6.68262 53.6621 6.64258 53.5293 6.64258 53.3516V50.0469C6.64258 49.9219 6.66113 49.8203 6.69824 49.7422C6.73535 49.6621 6.79297 49.6045 6.87109 49.5693C6.95117 49.5322 7.05273 49.5137 7.17578 49.5137H9.22656C9.36523 49.5137 9.46777 49.5449 9.53418 49.6074C9.60254 49.668 9.63672 49.748 9.63672 49.8477C9.63672 49.9492 9.60254 50.0312 9.53418 50.0938C9.46777 50.1543 9.36523 50.1846 9.22656 50.1846ZM11.1396 49.9678V53.0938H12.9033C13.0439 53.0938 13.1514 53.1279 13.2256 53.1963C13.3018 53.2646 13.3398 53.3506 13.3398 53.4541C13.3398 53.5596 13.3027 53.6455 13.2285 53.7119C13.1543 53.7764 13.0459 53.8086 12.9033 53.8086H10.8027C10.6133 53.8086 10.4766 53.7666 10.3926 53.6826C10.3105 53.5986 10.2695 53.4629 10.2695 53.2754V49.9678C10.2695 49.792 10.3086 49.6602 10.3867 49.5723C10.4668 49.4844 10.5713 49.4404 10.7002 49.4404C10.8311 49.4404 10.9365 49.4844 11.0166 49.5723C11.0986 49.6582 11.1396 49.79 11.1396 49.9678ZM16.5801 53.3223L16.375 52.7832H14.6289L14.4238 53.334C14.3438 53.5488 14.2754 53.6943 14.2188 53.7705C14.1621 53.8447 14.0693 53.8818 13.9404 53.8818C13.8311 53.8818 13.7344 53.8418 13.6504 53.7617C13.5664 53.6816 13.5244 53.5908 13.5244 53.4893C13.5244 53.4307 13.5342 53.3701 13.5537 53.3076C13.5732 53.2451 13.6055 53.1582 13.6504 53.0469L14.749 50.2578C14.7803 50.1777 14.8174 50.082 14.8604 49.9707C14.9053 49.8574 14.9521 49.7637 15.001 49.6895C15.0518 49.6152 15.1172 49.5557 15.1973 49.5107C15.2793 49.4639 15.3799 49.4404 15.499 49.4404C15.6201 49.4404 15.7207 49.4639 15.8008 49.5107C15.8828 49.5557 15.9482 49.6143 15.9971 49.6865C16.0479 49.7588 16.0898 49.8369 16.123 49.9209C16.1582 50.0029 16.2021 50.1133 16.2549 50.252L17.377 53.0234C17.4648 53.2344 17.5088 53.3877 17.5088 53.4834C17.5088 53.583 17.4668 53.6748 17.3828 53.7588C17.3008 53.8408 17.2012 53.8818 17.084 53.8818C17.0156 53.8818 16.957 53.8691 16.9082 53.8438C16.8594 53.8203 16.8184 53.7881 16.7852 53.7471C16.752 53.7041 16.7158 53.6396 16.6768 53.5537C16.6396 53.4658 16.6074 53.3887 16.5801 53.3223ZM14.8574 52.1299H16.1406L15.4932 50.3574L14.8574 52.1299ZM18.4814 50.0117L19.4541 52.8916L20.4297 49.9912C20.4805 49.8389 20.5186 49.7334 20.5439 49.6748C20.5693 49.6143 20.6113 49.5605 20.6699 49.5137C20.7285 49.4648 20.8086 49.4404 20.9102 49.4404C20.9844 49.4404 21.0527 49.459 21.1152 49.4961C21.1797 49.5332 21.2295 49.583 21.2646 49.6455C21.3018 49.7061 21.3203 49.7676 21.3203 49.8301C21.3203 49.873 21.3145 49.9199 21.3027 49.9707C21.291 50.0195 21.2764 50.0684 21.2588 50.1172C21.2412 50.1641 21.2236 50.2129 21.2061 50.2637L20.166 53.0703C20.1289 53.1777 20.0918 53.2803 20.0547 53.3779C20.0176 53.4736 19.9746 53.5586 19.9258 53.6328C19.877 53.7051 19.8115 53.7646 19.7295 53.8115C19.6494 53.8584 19.5508 53.8818 19.4336 53.8818C19.3164 53.8818 19.2168 53.8584 19.1348 53.8115C19.0547 53.7666 18.9893 53.707 18.9385 53.6328C18.8896 53.5566 18.8467 53.4707 18.8096 53.375C18.7725 53.2793 18.7354 53.1777 18.6982 53.0703L17.6758 50.2871C17.6582 50.2363 17.6396 50.1865 17.6201 50.1377C17.6025 50.0889 17.5869 50.0361 17.5732 49.9795C17.5615 49.9229 17.5557 49.875 17.5557 49.8359C17.5557 49.7363 17.5957 49.6455 17.6758 49.5635C17.7559 49.4814 17.8564 49.4404 17.9775 49.4404C18.126 49.4404 18.2305 49.4863 18.291 49.5781C18.3535 49.668 18.417 49.8125 18.4814 50.0117ZM23.7842 49.4404C24.2295 49.4404 24.6113 49.5312 24.9297 49.7129C25.25 49.8926 25.4922 50.1494 25.6562 50.4834C25.8203 50.8154 25.9023 51.2061 25.9023 51.6553C25.9023 51.9873 25.8574 52.2891 25.7676 52.5605C25.6777 52.832 25.543 53.0674 25.3633 53.2666C25.1836 53.4658 24.9629 53.6182 24.7012 53.7236C24.4395 53.8291 24.1396 53.8818 23.8018 53.8818C23.4658 53.8818 23.165 53.8281 22.8994 53.7207C22.6338 53.6113 22.4121 53.458 22.2344 53.2607C22.0566 53.0635 21.9219 52.8262 21.8301 52.5488C21.7402 52.2715 21.6953 51.9717 21.6953 51.6494C21.6953 51.3193 21.7422 51.0166 21.8359 50.7412C21.9316 50.4658 22.0693 50.2314 22.249 50.0381C22.4287 49.8447 22.6475 49.6973 22.9053 49.5957C23.1631 49.4922 23.4561 49.4404 23.7842 49.4404ZM25.0205 51.6494C25.0205 51.335 24.9697 51.0625 24.8682 50.832C24.7666 50.6016 24.6211 50.4277 24.4316 50.3105C24.2441 50.1914 24.0283 50.1318 23.7842 50.1318C23.6104 50.1318 23.4492 50.165 23.3008 50.2314C23.1543 50.2959 23.0273 50.3906 22.9199 50.5156C22.8145 50.6406 22.7305 50.8008 22.668 50.9961C22.6074 51.1895 22.5771 51.4072 22.5771 51.6494C22.5771 51.8936 22.6074 52.1143 22.668 52.3115C22.7305 52.5088 22.8174 52.6729 22.9287 52.8037C23.042 52.9326 23.1709 53.0293 23.3154 53.0938C23.4619 53.1582 23.6221 53.1904 23.7959 53.1904C24.0186 53.1904 24.2227 53.1348 24.4082 53.0234C24.5957 52.9121 24.7441 52.7402 24.8535 52.5078C24.9648 52.2754 25.0205 51.9893 25.0205 51.6494ZM27.8154 51.9717H27.5107V53.3516C27.5107 53.5332 27.4707 53.667 27.3906 53.7529C27.3105 53.8389 27.2061 53.8818 27.0771 53.8818C26.9385 53.8818 26.8311 53.8369 26.7549 53.7471C26.6787 53.6572 26.6406 53.5254 26.6406 53.3516V50.0469C26.6406 49.8594 26.6826 49.7236 26.7666 49.6396C26.8506 49.5557 26.9863 49.5137 27.1738 49.5137H28.5889C28.7842 49.5137 28.9512 49.5225 29.0898 49.54C29.2285 49.5557 29.3535 49.5889 29.4648 49.6396C29.5996 49.6963 29.7188 49.7773 29.8223 49.8828C29.9258 49.9883 30.0039 50.1113 30.0566 50.252C30.1113 50.3906 30.1387 50.5381 30.1387 50.6943C30.1387 51.0146 30.0479 51.2705 29.8662 51.4619C29.6865 51.6533 29.4131 51.7891 29.0459 51.8691C29.2002 51.9512 29.3477 52.0723 29.4883 52.2324C29.6289 52.3926 29.7539 52.5635 29.8633 52.7451C29.9746 52.9248 30.0605 53.0879 30.1211 53.2344C30.1836 53.3789 30.2148 53.4785 30.2148 53.5332C30.2148 53.5898 30.1963 53.6465 30.1592 53.7031C30.124 53.7578 30.0752 53.8008 30.0127 53.832C29.9502 53.8652 29.8779 53.8818 29.7959 53.8818C29.6982 53.8818 29.6162 53.8584 29.5498 53.8115C29.4834 53.7666 29.4258 53.709 29.377 53.6387C29.3301 53.5684 29.2656 53.4648 29.1836 53.3281L28.835 52.748C28.71 52.5352 28.5977 52.373 28.498 52.2617C28.4004 52.1504 28.3008 52.0742 28.1992 52.0332C28.0977 51.9922 27.9697 51.9717 27.8154 51.9717ZM28.3135 50.167H27.5107V51.3477H28.29C28.499 51.3477 28.6748 51.3301 28.8174 51.2949C28.96 51.2578 29.0684 51.1963 29.1426 51.1104C29.2188 51.0225 29.2568 50.9023 29.2568 50.75C29.2568 50.6309 29.2266 50.5264 29.166 50.4365C29.1055 50.3447 29.0215 50.2764 28.9141 50.2314C28.8125 50.1885 28.6123 50.167 28.3135 50.167ZM34.2285 52.5195C34.2285 52.7793 34.1611 53.0127 34.0264 53.2197C33.8936 53.4268 33.6982 53.5889 33.4404 53.7061C33.1826 53.8232 32.877 53.8818 32.5234 53.8818C32.0996 53.8818 31.75 53.8018 31.4746 53.6416C31.2793 53.5264 31.1201 53.373 30.9971 53.1816C30.876 52.9883 30.8154 52.8008 30.8154 52.6191C30.8154 52.5137 30.8516 52.4238 30.9238 52.3496C30.998 52.2734 31.0918 52.2354 31.2051 52.2354C31.2969 52.2354 31.374 52.2646 31.4365 52.3232C31.501 52.3818 31.5557 52.4688 31.6006 52.584C31.6553 52.7207 31.7139 52.835 31.7764 52.9268C31.8408 53.0186 31.9307 53.0947 32.0459 53.1553C32.1611 53.2139 32.3125 53.2432 32.5 53.2432C32.7578 53.2432 32.9668 53.1836 33.127 53.0645C33.2891 52.9434 33.3701 52.793 33.3701 52.6133C33.3701 52.4707 33.3262 52.3555 33.2383 52.2676C33.1523 52.1777 33.04 52.1094 32.9014 52.0625C32.7646 52.0156 32.5811 51.9658 32.3506 51.9131C32.042 51.8408 31.7832 51.7568 31.5742 51.6611C31.3672 51.5635 31.2021 51.4316 31.0791 51.2656C30.958 51.0977 30.8975 50.8896 30.8975 50.6416C30.8975 50.4053 30.9619 50.1953 31.0908 50.0117C31.2197 49.8281 31.4062 49.6875 31.6504 49.5898C31.8945 49.4902 32.1816 49.4404 32.5117 49.4404C32.7754 49.4404 33.0029 49.4736 33.1943 49.54C33.3877 49.6045 33.5479 49.6914 33.6748 49.8008C33.8018 49.9082 33.8945 50.0215 33.9531 50.1406C34.0117 50.2598 34.041 50.376 34.041 50.4893C34.041 50.5928 34.0039 50.6865 33.9297 50.7705C33.8574 50.8525 33.7666 50.8936 33.6572 50.8936C33.5576 50.8936 33.4814 50.8691 33.4287 50.8203C33.3779 50.7695 33.3223 50.6875 33.2617 50.5742C33.1836 50.4121 33.0898 50.2861 32.9805 50.1963C32.8711 50.1045 32.6953 50.0586 32.4531 50.0586C32.2285 50.0586 32.0469 50.1084 31.9082 50.208C31.7715 50.3057 31.7031 50.4238 31.7031 50.5625C31.7031 50.6484 31.7266 50.7227 31.7734 50.7852C31.8203 50.8477 31.8848 50.9014 31.9668 50.9463C32.0488 50.9912 32.1318 51.0264 32.2158 51.0518C32.2998 51.0771 32.4385 51.1143 32.6318 51.1631C32.874 51.2197 33.0928 51.2822 33.2881 51.3506C33.4854 51.4189 33.6523 51.502 33.7891 51.5996C33.9277 51.6973 34.0352 51.8213 34.1113 51.9717C34.1895 52.1201 34.2285 52.3027 34.2285 52.5195Z" fill="#231F20"/>
<path d="M11.541 20.8936C11.541 21.1698 11.7649 21.3936 12.041 21.3936C12.3172 21.3936 12.541 21.1698 12.541 20.8936H11.541ZM24.9134 31.4255V30.9255V31.4255ZM24.9134 31.4255L24.9134 30.9255L24.9134 31.4255ZM24.338 1.44029L24.0288 1.0474V1.0474L24.338 1.44029ZM25.1794 1.83318C26.4146 2.80543 29.4557 5.34452 32.1836 8.77087C34.9203 12.2083 37.2857 16.4688 37.2857 20.8936H38.2857C38.2857 16.1304 35.7527 11.6483 32.9659 8.14801C30.1704 4.63669 27.0629 2.04311 25.7979 1.0474L25.1794 1.83318ZM37.2857 20.8936C37.2857 23.4157 36.5183 25.2779 35.3868 26.6665C34.2485 28.0635 32.7189 29.0086 31.1602 29.6463C28.0336 30.9253 24.8942 30.9255 24.9134 30.9255V31.9255C24.9326 31.9255 28.2293 31.9257 31.5389 30.5718C33.1983 29.8929 34.8867 28.8634 36.162 27.2982C37.4441 25.7247 38.2857 23.6375 38.2857 20.8936H37.2857ZM24.0288 1.0474C22.7638 2.04311 19.6563 4.63669 16.8608 8.14801C14.074 11.6483 11.541 16.1304 11.541 20.8936H12.541C12.541 16.4688 14.9064 12.2083 17.6431 8.77087C20.371 5.34452 23.4121 2.80543 24.6473 1.83318L24.0288 1.0474ZM23.6966 31.8556C24.4399 31.9251 24.9011 31.9255 24.9134 31.9255L24.9134 30.9255C24.9256 30.9255 24.4962 30.926 23.7897 30.8599L23.6966 31.8556ZM24.9134 30.9255C24.9134 30.9255 24.9134 30.9255 24.9134 30.9255C24.9134 30.9255 24.9134 30.9255 24.9134 30.9255C24.9134 30.9255 24.9134 30.9255 24.9133 30.9255C24.9133 30.9255 24.9133 30.9255 24.9133 30.9255C24.9133 30.9255 24.9133 30.9255 24.9133 30.9255C24.9133 30.9255 24.9133 30.9255 24.9133 30.9255C24.9133 30.9255 24.9133 30.9255 24.9133 30.9255C24.9133 30.9255 24.9132 30.9255 24.9132 30.9255C24.9133 30.9255 24.913 30.9255 24.9128 30.9255C24.4134 31.4252 24.9129 31.9255 24.9131 31.9255C24.9133 31.9255 24.9132 31.9255 24.9133 31.9255C24.9133 31.9255 24.9133 31.9255 24.9133 31.9255C24.9133 31.9255 24.9133 31.9255 24.9133 31.9255C24.9133 31.9255 24.9133 31.9255 24.9133 31.9255C24.9133 31.9255 24.9133 31.9255 24.9133 31.9255C24.9133 31.9255 24.9133 31.9255 24.9133 31.9255C24.9134 31.9255 24.9134 31.9255 24.9134 31.9255H24.9134H24.9134H24.9134H24.9134C24.9134 31.9255 24.9134 31.9255 24.9134 31.9255H24.9134C24.9134 31.9255 24.9134 31.9255 24.9134 31.9255C24.9134 31.9255 24.9134 31.9255 24.9134 31.9255C24.9134 31.9255 24.9134 31.9255 24.9134 31.9255C24.9134 31.9255 24.9134 31.9255 24.9134 31.9255C24.9134 31.9255 24.9135 31.9255 24.9136 31.9255C24.9135 31.9255 25.4134 31.4258 24.9139 30.9255C24.9137 30.9255 24.9134 30.9255 24.9135 30.9255C24.9135 30.9255 24.9134 30.9255 24.9134 30.9255C24.9134 30.9255 24.9134 30.9255 24.9134 30.9255C24.9134 30.9255 24.9134 30.9255 24.9134 30.9255C24.9134 30.9255 24.9134 30.9255 24.9134 30.9255C24.9134 30.9255 24.9134 30.9255 24.9134 30.9255C24.9134 30.9255 24.9134 30.9255 24.9134 30.9255C24.9134 30.9255 24.9134 30.9255 24.9134 30.9255C24.9134 30.9255 24.9134 30.9255 24.9134 30.9255L24.9134 31.9255C24.9134 31.9255 24.9134 31.9255 24.9134 31.9255C24.9134 31.9255 24.9134 31.9255 24.9134 31.9255H24.9134C24.9134 31.9255 24.9133 31.9255 24.9133 31.9255C24.9133 31.9255 24.9133 31.9255 24.9133 31.9255C24.9133 31.9255 24.9133 31.9255 24.9133 31.9255C24.9133 31.9255 24.9133 31.9255 24.9134 31.9255C24.9133 31.9255 24.9133 31.9255 24.9134 31.9255C24.9133 31.9255 24.9132 31.9255 24.9132 31.9255C24.9133 31.9255 24.9131 31.9255 24.9128 31.9255C24.4134 31.4252 24.9132 30.9255 24.9131 30.9255C24.9132 30.9255 24.9133 30.9255 24.9133 30.9255C24.9133 30.9255 24.9133 30.9255 24.9133 30.9255C24.9133 30.9255 24.9133 30.9255 24.9133 30.9255C24.9134 30.9255 24.9134 30.9255 24.9134 30.9255C24.9134 30.9255 24.9134 30.9255 24.9134 30.9255C24.9134 30.9255 24.9134 30.9255 24.9134 30.9255C24.9134 30.9255 24.9134 30.9255 24.9134 30.9255C24.9134 30.9255 24.9134 30.9255 24.9134 30.9255C24.9134 30.9255 24.9134 30.9255 24.9134 30.9255C24.9134 30.9255 24.9134 30.9255 24.9134 30.9255C24.9134 30.9255 24.9134 30.9255 24.9134 30.9255C24.9134 30.9255 24.9134 30.9255 24.9134 30.9255C24.9134 30.9255 24.9134 30.9255 24.9134 30.9255C24.9134 30.9255 24.9134 30.9255 24.9134 30.9255C24.9134 30.9255 24.9134 30.9255 24.9134 30.9255C24.9134 30.9255 24.9134 30.9255 24.9134 30.9255C24.9135 30.9255 24.9134 30.9255 24.9134 30.9255C24.9138 30.9255 25.4134 31.4259 24.9134 31.9255C24.9135 31.9255 24.9138 31.9255 24.9134 31.9255C24.9134 31.9255 24.9135 31.9255 24.9134 31.9255C24.9134 31.9255 24.9134 31.9255 24.9134 31.9255C24.9134 31.9255 24.9134 31.9255 24.9134 31.9255C24.9134 31.9255 24.9134 31.9255 24.9134 31.9255C24.9134 31.9255 24.9134 31.9255 24.9134 31.9255C24.9134 31.9255 24.9134 31.9255 24.9134 31.9255C24.9134 31.9255 24.9134 31.9255 24.9134 31.9255C24.9134 31.9255 24.9134 31.9255 24.9134 31.9255H24.9134V30.9255ZM25.7979 1.0474C25.2758 0.636419 24.5509 0.636419 24.0288 1.0474L24.6473 1.83318C24.8066 1.70782 25.0202 1.70782 25.1794 1.83318L25.7979 1.0474Z" fill="#231F20"/>
<path d="M24.9133 30.8407C25.1073 22.9131 13.7958 22.0639 10.9228 24.0258C10.447 24.7394 13.258 36.3117 24.9133 30.8407Z" fill="#F2F2F2"/>
<path d="M24.9133 30.8407C25.1073 22.9131 13.7958 22.0639 10.9228 24.0258M24.9133 30.8407C13.258 36.3117 10.447 24.7394 10.9228 24.0258M24.9133 30.8407L10.9228 24.0258" stroke="#231F20" stroke-linecap="round"/>
<path d="M14.3795 23.2341L14.9646 26.1597L12.0391 27.3299" stroke="#231F20" stroke-linecap="round"/>
<path d="M17.3064 23.8198L17.8915 27.9156L14.3809 30.2554" stroke="#231F20" stroke-linecap="round"/>
<path d="M19.6482 23.8196L20.4392 29.0212L16.7227 32.0111" stroke="#231F20"/>
<path d="M26.8376 30.6021C34.4449 22.3414 25.3943 14.2445 23.7441 14.4578C21.2649 14.7784 15.9136 28.3758 26.8376 30.6021Z" fill="#F2F2F2"/>
<path d="M26.8376 30.6021C34.4449 22.3414 25.3943 14.2445 23.7441 14.4578M26.8376 30.6021C15.9136 28.3758 21.2649 14.7784 23.7441 14.4578M26.8376 30.6021L23.7441 14.4578" stroke="#231F20" stroke-linecap="round"/>
<path d="M21.4022 18.5536L24.9112 20.3088L27.2532 17.3833" stroke="#231F20" stroke-linecap="round"/>
<path d="M20.8149 21.479L25.4953 23.8194L29.0071 20.3089" stroke="#231F20" stroke-linecap="round"/>
<path d="M20.2324 24.4048L26.0811 27.3304L29.5918 23.8197" stroke="#231F20" stroke-linecap="square"/>
</svg>
