<svg width="21" height="20" viewBox="0 0 21 20" fill="none" xmlns="http://www.w3.org/2000/svg">
<path d="M17.5965 0C16.8429 0 16.0892 0.290132 15.5139 0.87171L14.9893 1.40198C14.6039 1.79162 14.6039 2.41891 14.9893 2.80854L17.748 5.59716C18.1394 5.99279 18.7784 5.99278 19.1698 5.59716L19.6792 5.08224C20.8288 3.92013 20.8288 2.03487 19.6792 0.87171C19.1039 0.290132 18.3502 0 17.5965 0ZM13.4425 4.40284C13.0511 4.00721 12.4121 4.00721 12.0207 4.40284L1.04543 15.4972C0.860229 15.6845 0.756348 15.9372 0.756348 16.2005V19C0.756348 19.5523 1.20406 20 1.75635 20H4.50427C4.77136 20 5.02735 19.8932 5.21519 19.7033L16.2012 8.59802C16.5866 8.20838 16.5866 7.58109 16.2012 7.19146L13.4425 4.40284Z" fill="#2F5496"/>
</svg>
