<svg width="209" height="60" viewBox="0 0 209 60" fill="none" xmlns="http://www.w3.org/2000/svg">
<g filter="url(#filter0_d_35_1844)">
<mask id="path-1-inside-1_35_1844" fill="white">
<path fill-rule="evenodd" clip-rule="evenodd" d="M3.41966 6.98456C1.89587 4.31793 3.82133 1 6.89263 1H203C205.209 1 207 2.79086 207 5V53C207 55.2091 205.209 57 203 57H6.89263C3.82134 57 1.89587 53.6821 3.41966 51.0154L14.8659 30.9846C15.5686 29.7548 15.5686 28.2452 14.8659 27.0154L3.41966 6.98456Z"/>
</mask>
<path fill-rule="evenodd" clip-rule="evenodd" d="M3.41966 6.98456C1.89587 4.31793 3.82133 1 6.89263 1H203C205.209 1 207 2.79086 207 5V53C207 55.2091 205.209 57 203 57H6.89263C3.82134 57 1.89587 53.6821 3.41966 51.0154L14.8659 30.9846C15.5686 29.7548 15.5686 28.2452 14.8659 27.0154L3.41966 6.98456Z" fill="#EBE9ED"/>
<path d="M14.8659 30.9846L13.9976 30.4884L14.8659 30.9846ZM14.8659 27.0154L13.9976 27.5116L14.8659 27.0154ZM3.41966 51.0154L2.55141 50.5193L3.41966 51.0154ZM3.41966 6.98456L2.55141 7.48069L3.41966 6.98456ZM203 0H6.89263V2H203V0ZM208 53V5H206V53H208ZM6.89263 58H203V56H6.89263V58ZM13.9976 30.4884L2.55141 50.5193L4.2879 51.5116L15.7341 31.4807L13.9976 30.4884ZM13.9976 27.5116C14.5247 28.4339 14.5247 29.5661 13.9976 30.4884L15.7341 31.4807C16.6125 29.9435 16.6125 28.0565 15.7341 26.5193L13.9976 27.5116ZM2.55141 7.48069L13.9976 27.5116L15.7341 26.5193L4.2879 6.48842L2.55141 7.48069ZM6.89263 56C4.58916 56 3.14506 53.5116 4.2879 51.5116L2.55141 50.5193C0.646681 53.8526 3.05352 58 6.89263 58V56ZM206 53C206 54.6569 204.657 56 203 56V58C205.761 58 208 55.7614 208 53H206ZM6.89263 0C3.05351 0 0.646682 4.14741 2.55141 7.48069L4.2879 6.48842C3.14506 4.48844 4.58916 2 6.89263 2V0ZM203 2C204.657 2 206 3.34315 206 5H208C208 2.23858 205.761 0 203 0V2Z" fill="#989898" mask="url(#path-1-inside-1_35_1844)"/>
</g>
<path d="M33.036 34V24.06H37.432C37.8893 24.06 38.3093 24.1533 38.692 24.34C39.084 24.5267 39.42 24.7787 39.7 25.096C39.9893 25.4133 40.2087 25.768 40.358 26.16C40.5167 26.552 40.596 26.9533 40.596 27.364C40.596 27.784 40.5213 28.19 40.372 28.582C40.232 28.9647 40.0267 29.3007 39.756 29.59C39.4853 29.8793 39.168 30.1033 38.804 30.262L41.072 34H38.944L36.9 30.668H34.968V34H33.036ZM34.968 28.974H37.39C37.6327 28.974 37.8473 28.904 38.034 28.764C38.2207 28.6147 38.37 28.4187 38.482 28.176C38.594 27.9333 38.65 27.6627 38.65 27.364C38.65 27.0467 38.5847 26.7713 38.454 26.538C38.3233 26.2953 38.1553 26.104 37.95 25.964C37.754 25.824 37.5393 25.754 37.306 25.754H34.968V28.974ZM45.3205 34.14C44.7325 34.14 44.2005 34.042 43.7245 33.846C43.2485 33.6407 42.8425 33.3653 42.5065 33.02C42.1705 32.6653 41.9091 32.264 41.7225 31.816C41.5451 31.3587 41.4565 30.878 41.4565 30.374C41.4565 29.674 41.6105 29.0347 41.9185 28.456C42.2358 27.8773 42.6838 27.4153 43.2625 27.07C43.8505 26.7153 44.5411 26.538 45.3345 26.538C46.1371 26.538 46.8231 26.7153 47.3925 27.07C47.9618 27.4153 48.3958 27.8773 48.6945 28.456C49.0025 29.0253 49.1565 29.6413 49.1565 30.304C49.1565 30.416 49.1518 30.5327 49.1425 30.654C49.1331 30.766 49.1238 30.8593 49.1145 30.934H43.4445C43.4818 31.3073 43.5891 31.634 43.7665 31.914C43.9531 32.194 44.1865 32.4087 44.4665 32.558C44.7558 32.698 45.0638 32.768 45.3905 32.768C45.7638 32.768 46.1138 32.6793 46.4405 32.502C46.7765 32.3153 47.0051 32.0727 47.1265 31.774L48.7365 32.222C48.5591 32.5953 48.3025 32.9267 47.9665 33.216C47.6398 33.5053 47.2525 33.734 46.8045 33.902C46.3565 34.0607 45.8618 34.14 45.3205 34.14ZM43.4025 29.744H47.2385C47.2011 29.3707 47.0938 29.0487 46.9165 28.778C46.7485 28.498 46.5245 28.2833 46.2445 28.134C45.9645 27.9753 45.6518 27.896 45.3065 27.896C44.9705 27.896 44.6625 27.9753 44.3825 28.134C44.1118 28.2833 43.8878 28.498 43.7105 28.778C43.5425 29.0487 43.4398 29.3707 43.4025 29.744ZM49.7953 31.83C49.7953 31.354 49.926 30.9387 50.1873 30.584C50.458 30.22 50.8313 29.94 51.3073 29.744C51.7833 29.548 52.3293 29.45 52.9453 29.45C53.2533 29.45 53.566 29.4733 53.8833 29.52C54.2006 29.5667 54.476 29.6413 54.7093 29.744V29.352C54.7093 28.8853 54.5693 28.526 54.2893 28.274C54.0186 28.022 53.6126 27.896 53.0713 27.896C52.67 27.896 52.2873 27.966 51.9233 28.106C51.5593 28.246 51.1766 28.4513 50.7753 28.722L50.1733 27.49C50.6586 27.1727 51.1533 26.9347 51.6573 26.776C52.1706 26.6173 52.7073 26.538 53.2673 26.538C54.3126 26.538 55.1246 26.7993 55.7033 27.322C56.2913 27.8447 56.5853 28.5913 56.5853 29.562V31.9C56.5853 32.096 56.618 32.236 56.6833 32.32C56.758 32.404 56.8746 32.4553 57.0333 32.474V34C56.8653 34.028 56.7113 34.0513 56.5713 34.07C56.4406 34.0887 56.3286 34.098 56.2353 34.098C55.862 34.098 55.5773 34.014 55.3813 33.846C55.1946 33.678 55.078 33.4727 55.0313 33.23L54.9893 32.852C54.672 33.2627 54.2753 33.58 53.7993 33.804C53.3233 34.028 52.838 34.14 52.3433 34.14C51.858 34.14 51.4193 34.042 51.0273 33.846C50.6446 33.6407 50.3413 33.3653 50.1173 33.02C49.9026 32.6653 49.7953 32.2687 49.7953 31.83ZM54.3593 32.208C54.462 32.096 54.546 31.984 54.6113 31.872C54.6766 31.76 54.7093 31.6573 54.7093 31.564V30.822C54.4853 30.7287 54.2426 30.6587 53.9813 30.612C53.72 30.556 53.4726 30.528 53.2393 30.528C52.754 30.528 52.3526 30.6353 52.0353 30.85C51.7273 31.0553 51.5733 31.3307 51.5733 31.676C51.5733 31.8627 51.6246 32.04 51.7273 32.208C51.83 32.376 51.9793 32.5113 52.1753 32.614C52.3713 32.7167 52.6046 32.768 52.8753 32.768C53.1553 32.768 53.4306 32.7167 53.7013 32.614C53.972 32.502 54.1913 32.3667 54.3593 32.208ZM57.8904 30.332C57.8904 29.6227 58.0304 28.9833 58.3104 28.414C58.5904 27.8353 58.9777 27.378 59.4724 27.042C59.967 26.706 60.5317 26.538 61.1664 26.538C61.7077 26.538 62.193 26.6733 62.6224 26.944C63.061 27.2053 63.4017 27.5413 63.6444 27.952V23.78H65.5204V31.9C65.5204 32.096 65.553 32.236 65.6184 32.32C65.6837 32.404 65.7957 32.4553 65.9544 32.474V34C65.6277 34.0653 65.3617 34.098 65.1564 34.098C64.8204 34.098 64.5404 34.014 64.3164 33.846C64.1017 33.678 63.9804 33.4587 63.9524 33.188L63.9244 32.726C63.6537 33.1833 63.285 33.5333 62.8184 33.776C62.361 34.0187 61.8804 34.14 61.3764 34.14C60.8724 34.14 60.4057 34.042 59.9764 33.846C59.5564 33.65 59.1877 33.3793 58.8704 33.034C58.5624 32.6887 58.3197 32.2873 58.1424 31.83C57.9744 31.3633 57.8904 30.864 57.8904 30.332ZM63.6444 31.312V29.562C63.551 29.2913 63.4017 29.0487 63.1964 28.834C62.991 28.6193 62.7624 28.4513 62.5104 28.33C62.2584 28.1993 62.0064 28.134 61.7544 28.134C61.465 28.134 61.2037 28.1947 60.9704 28.316C60.737 28.4373 60.5317 28.6007 60.3544 28.806C60.1864 29.0113 60.0557 29.2493 59.9624 29.52C59.8784 29.7907 59.8364 30.0753 59.8364 30.374C59.8364 30.6727 59.883 30.9573 59.9764 31.228C60.079 31.4893 60.2237 31.718 60.4104 31.914C60.597 32.11 60.8117 32.264 61.0544 32.376C61.3064 32.488 61.577 32.544 61.8664 32.544C62.0437 32.544 62.221 32.516 62.3984 32.46C62.585 32.3947 62.7577 32.3107 62.9164 32.208C63.0844 32.096 63.229 31.9653 63.3504 31.816C63.481 31.6573 63.579 31.4893 63.6444 31.312ZM67.4885 35.428C67.6565 35.4653 67.8105 35.498 67.9505 35.526C68.0998 35.554 68.2258 35.568 68.3285 35.568C68.5058 35.568 68.6505 35.5213 68.7625 35.428C68.8838 35.344 69.0005 35.1853 69.1125 34.952C69.2245 34.728 69.3411 34.4107 69.4625 34L66.5645 26.664H68.5105L70.4845 32.082L72.2205 26.664H74.0125L70.9325 35.456C70.8205 35.7827 70.6478 36.0767 70.4145 36.338C70.1905 36.6087 69.9058 36.8187 69.5605 36.968C69.2245 37.1267 68.8465 37.206 68.4265 37.206C68.2771 37.206 68.1278 37.192 67.9785 37.164C67.8291 37.1453 67.6658 37.108 67.4885 37.052V35.428ZM78.4875 34V28.484H77.5215V27.056H78.4875V26.608C78.4875 26.0013 78.5855 25.4787 78.7815 25.04C78.9869 24.592 79.2715 24.2467 79.6355 24.004C80.0089 23.7613 80.4429 23.64 80.9375 23.64C81.2362 23.64 81.5349 23.6773 81.8335 23.752C82.1415 23.8267 82.4449 23.934 82.7435 24.074L82.3655 25.488C82.2255 25.4133 82.0622 25.3527 81.8755 25.306C81.6889 25.25 81.5115 25.222 81.3435 25.222C81.0262 25.222 80.7835 25.334 80.6155 25.558C80.4475 25.782 80.3635 26.1087 80.3635 26.538V27.056H82.1555V28.484H80.3635V34H78.4875ZM86.5135 34.14C85.9162 34.14 85.3795 34.042 84.9035 33.846C84.4275 33.6407 84.0215 33.3607 83.6855 33.006C83.3588 32.6513 83.1068 32.2453 82.9295 31.788C82.7522 31.3307 82.6635 30.85 82.6635 30.346C82.6635 29.8327 82.7522 29.3473 82.9295 28.89C83.1068 28.4327 83.3588 28.0267 83.6855 27.672C84.0215 27.3173 84.4275 27.042 84.9035 26.846C85.3795 26.6407 85.9162 26.538 86.5135 26.538C87.1108 26.538 87.6428 26.6407 88.1095 26.846C88.5855 27.042 88.9915 27.3173 89.3275 27.672C89.6635 28.0267 89.9155 28.4327 90.0835 28.89C90.2608 29.3473 90.3495 29.8327 90.3495 30.346C90.3495 30.85 90.2608 31.3307 90.0835 31.788C89.9155 32.2453 89.6635 32.6513 89.3275 33.006C89.0008 33.3607 88.5995 33.6407 88.1235 33.846C87.6475 34.042 87.1108 34.14 86.5135 34.14ZM84.5955 30.346C84.5955 30.7753 84.6795 31.158 84.8475 31.494C85.0155 31.8207 85.2442 32.0773 85.5335 32.264C85.8228 32.4507 86.1495 32.544 86.5135 32.544C86.8682 32.544 87.1902 32.4507 87.4795 32.264C87.7688 32.068 87.9975 31.8067 88.1655 31.48C88.3428 31.144 88.4315 30.7613 88.4315 30.332C88.4315 29.912 88.3428 29.534 88.1655 29.198C87.9975 28.862 87.7688 28.6007 87.4795 28.414C87.1902 28.2273 86.8682 28.134 86.5135 28.134C86.1495 28.134 85.8228 28.232 85.5335 28.428C85.2442 28.6147 85.0155 28.876 84.8475 29.212C84.6795 29.5387 84.5955 29.9167 84.5955 30.346ZM95.9837 28.288C95.4144 28.288 94.9057 28.4 94.4577 28.624C94.0097 28.8387 93.6877 29.1513 93.4917 29.562V34H91.6157V26.664H93.3377V28.232C93.5991 27.728 93.9304 27.3313 94.3317 27.042C94.7331 26.7527 95.1577 26.594 95.6057 26.566C95.7084 26.566 95.7877 26.566 95.8437 26.566C95.8997 26.566 95.9464 26.5707 95.9837 26.58V28.288ZM100.261 34V24.06H104.475C104.932 24.06 105.352 24.1533 105.735 24.34C106.117 24.5267 106.449 24.7787 106.729 25.096C107.018 25.4133 107.242 25.768 107.401 26.16C107.559 26.552 107.639 26.9533 107.639 27.364C107.639 27.924 107.508 28.456 107.247 28.96C106.985 29.464 106.626 29.8747 106.169 30.192C105.711 30.5093 105.17 30.668 104.545 30.668H102.193V34H100.261ZM102.193 28.974H104.433C104.666 28.974 104.876 28.9087 105.063 28.778C105.249 28.6473 105.399 28.4607 105.511 28.218C105.623 27.966 105.679 27.6813 105.679 27.364C105.679 27.0187 105.613 26.7247 105.483 26.482C105.361 26.2393 105.198 26.0573 104.993 25.936C104.797 25.8147 104.582 25.754 104.349 25.754H102.193V28.974ZM113.169 28.288C112.6 28.288 112.091 28.4 111.643 28.624C111.195 28.8387 110.873 29.1513 110.677 29.562V34H108.801V26.664H110.523V28.232C110.785 27.728 111.116 27.3313 111.517 27.042C111.919 26.7527 112.343 26.594 112.791 26.566C112.894 26.566 112.973 26.566 113.029 26.566C113.085 26.566 113.132 26.5707 113.169 26.58V28.288ZM117.508 34.14C116.91 34.14 116.374 34.042 115.898 33.846C115.422 33.6407 115.016 33.3607 114.68 33.006C114.353 32.6513 114.101 32.2453 113.924 31.788C113.746 31.3307 113.658 30.85 113.658 30.346C113.658 29.8327 113.746 29.3473 113.924 28.89C114.101 28.4327 114.353 28.0267 114.68 27.672C115.016 27.3173 115.422 27.042 115.898 26.846C116.374 26.6407 116.91 26.538 117.508 26.538C118.105 26.538 118.637 26.6407 119.104 26.846C119.58 27.042 119.986 27.3173 120.322 27.672C120.658 28.0267 120.91 28.4327 121.078 28.89C121.255 29.3473 121.344 29.8327 121.344 30.346C121.344 30.85 121.255 31.3307 121.078 31.788C120.91 32.2453 120.658 32.6513 120.322 33.006C119.995 33.3607 119.594 33.6407 119.118 33.846C118.642 34.042 118.105 34.14 117.508 34.14ZM115.59 30.346C115.59 30.7753 115.674 31.158 115.842 31.494C116.01 31.8207 116.238 32.0773 116.528 32.264C116.817 32.4507 117.144 32.544 117.508 32.544C117.862 32.544 118.184 32.4507 118.474 32.264C118.763 32.068 118.992 31.8067 119.16 31.48C119.337 31.144 119.426 30.7613 119.426 30.332C119.426 29.912 119.337 29.534 119.16 29.198C118.992 28.862 118.763 28.6007 118.474 28.414C118.184 28.2273 117.862 28.134 117.508 28.134C117.144 28.134 116.817 28.232 116.528 28.428C116.238 28.6147 116.01 28.876 115.842 29.212C115.674 29.5387 115.59 29.9167 115.59 30.346ZM122.162 30.332C122.162 29.6227 122.302 28.9833 122.582 28.414C122.862 27.8353 123.249 27.378 123.744 27.042C124.239 26.706 124.803 26.538 125.438 26.538C125.979 26.538 126.465 26.6733 126.894 26.944C127.333 27.2053 127.673 27.5413 127.916 27.952V23.78H129.792V31.9C129.792 32.096 129.825 32.236 129.89 32.32C129.955 32.404 130.067 32.4553 130.226 32.474V34C129.899 34.0653 129.633 34.098 129.428 34.098C129.092 34.098 128.812 34.014 128.588 33.846C128.373 33.678 128.252 33.4587 128.224 33.188L128.196 32.726C127.925 33.1833 127.557 33.5333 127.09 33.776C126.633 34.0187 126.152 34.14 125.648 34.14C125.144 34.14 124.677 34.042 124.248 33.846C123.828 33.65 123.459 33.3793 123.142 33.034C122.834 32.6887 122.591 32.2873 122.414 31.83C122.246 31.3633 122.162 30.864 122.162 30.332ZM127.916 31.312V29.562C127.823 29.2913 127.673 29.0487 127.468 28.834C127.263 28.6193 127.034 28.4513 126.782 28.33C126.53 28.1993 126.278 28.134 126.026 28.134C125.737 28.134 125.475 28.1947 125.242 28.316C125.009 28.4373 124.803 28.6007 124.626 28.806C124.458 29.0113 124.327 29.2493 124.234 29.52C124.15 29.7907 124.108 30.0753 124.108 30.374C124.108 30.6727 124.155 30.9573 124.248 31.228C124.351 31.4893 124.495 31.718 124.682 31.914C124.869 32.11 125.083 32.264 125.326 32.376C125.578 32.488 125.849 32.544 126.138 32.544C126.315 32.544 126.493 32.516 126.67 32.46C126.857 32.3947 127.029 32.3107 127.188 32.208C127.356 32.096 127.501 31.9653 127.622 31.816C127.753 31.6573 127.851 31.4893 127.916 31.312ZM131.563 31.256V26.664H133.439V30.85C133.439 31.41 133.542 31.8347 133.747 32.124C133.953 32.404 134.256 32.544 134.657 32.544C134.9 32.544 135.138 32.4973 135.371 32.404C135.614 32.3013 135.833 32.152 136.029 31.956C136.235 31.76 136.407 31.5127 136.547 31.214V26.664H138.423V31.9C138.423 32.096 138.456 32.236 138.521 32.32C138.596 32.404 138.713 32.4553 138.871 32.474V34C138.685 34.028 138.526 34.0467 138.395 34.056C138.274 34.0747 138.162 34.084 138.059 34.084C137.723 34.084 137.448 34.0093 137.233 33.86C137.028 33.7013 136.907 33.4867 136.869 33.216L136.827 32.628C136.501 33.1227 136.081 33.5007 135.567 33.762C135.054 34.014 134.489 34.14 133.873 34.14C133.117 34.14 132.543 33.8973 132.151 33.412C131.759 32.9173 131.563 32.1987 131.563 31.256ZM143.704 34.14C143.106 34.14 142.57 34.042 142.094 33.846C141.618 33.6407 141.212 33.3607 140.876 33.006C140.54 32.642 140.278 32.2313 140.092 31.774C139.914 31.3167 139.826 30.836 139.826 30.332C139.826 29.6413 139.98 29.0113 140.288 28.442C140.605 27.8633 141.053 27.4013 141.632 27.056C142.21 26.7107 142.896 26.538 143.69 26.538C144.483 26.538 145.164 26.7107 145.734 27.056C146.303 27.4013 146.728 27.854 147.008 28.414L145.174 28.974C145.015 28.7033 144.805 28.498 144.544 28.358C144.282 28.2087 143.993 28.134 143.676 28.134C143.321 28.134 142.994 28.2273 142.696 28.414C142.406 28.5913 142.178 28.848 142.01 29.184C141.842 29.5107 141.758 29.8933 141.758 30.332C141.758 30.7613 141.842 31.144 142.01 31.48C142.187 31.8067 142.42 32.068 142.71 32.264C142.999 32.4507 143.321 32.544 143.676 32.544C143.9 32.544 144.11 32.5067 144.306 32.432C144.511 32.3573 144.693 32.2547 144.852 32.124C145.01 31.9933 145.127 31.844 145.202 31.676L147.036 32.236C146.868 32.6 146.62 32.9267 146.294 33.216C145.976 33.5053 145.598 33.734 145.16 33.902C144.73 34.0607 144.245 34.14 143.704 34.14ZM152.586 33.622C152.427 33.6873 152.236 33.762 152.012 33.846C151.788 33.93 151.545 33.9953 151.284 34.042C151.032 34.098 150.775 34.126 150.514 34.126C150.169 34.126 149.851 34.0653 149.562 33.944C149.273 33.8227 149.039 33.6313 148.862 33.37C148.694 33.0993 148.61 32.7493 148.61 32.32V28.106H147.644V26.664H148.61V24.284H150.486V26.664H152.026V28.106H150.486V31.69C150.495 31.942 150.565 32.124 150.696 32.236C150.827 32.348 150.99 32.404 151.186 32.404C151.382 32.404 151.573 32.3713 151.76 32.306C151.947 32.2407 152.096 32.1847 152.208 32.138L152.586 33.622ZM153.563 34V26.664H155.439V34H153.563ZM153.563 25.642V23.78H155.439V25.642H153.563ZM160.519 34.14C159.922 34.14 159.385 34.042 158.909 33.846C158.433 33.6407 158.027 33.3607 157.691 33.006C157.365 32.6513 157.113 32.2453 156.935 31.788C156.758 31.3307 156.669 30.85 156.669 30.346C156.669 29.8327 156.758 29.3473 156.935 28.89C157.113 28.4327 157.365 28.0267 157.691 27.672C158.027 27.3173 158.433 27.042 158.909 26.846C159.385 26.6407 159.922 26.538 160.519 26.538C161.117 26.538 161.649 26.6407 162.115 26.846C162.591 27.042 162.997 27.3173 163.333 27.672C163.669 28.0267 163.921 28.4327 164.089 28.89C164.267 29.3473 164.355 29.8327 164.355 30.346C164.355 30.85 164.267 31.3307 164.089 31.788C163.921 32.2453 163.669 32.6513 163.333 33.006C163.007 33.3607 162.605 33.6407 162.129 33.846C161.653 34.042 161.117 34.14 160.519 34.14ZM158.601 30.346C158.601 30.7753 158.685 31.158 158.853 31.494C159.021 31.8207 159.25 32.0773 159.539 32.264C159.829 32.4507 160.155 32.544 160.519 32.544C160.874 32.544 161.196 32.4507 161.485 32.264C161.775 32.068 162.003 31.8067 162.171 31.48C162.349 31.144 162.437 30.7613 162.437 30.332C162.437 29.912 162.349 29.534 162.171 29.198C162.003 28.862 161.775 28.6007 161.485 28.414C161.196 28.2273 160.874 28.134 160.519 28.134C160.155 28.134 159.829 28.232 159.539 28.428C159.25 28.6147 159.021 28.876 158.853 29.212C158.685 29.5387 158.601 29.9167 158.601 30.346ZM172.44 34H170.564V29.884C170.564 29.296 170.461 28.8667 170.256 28.596C170.05 28.3253 169.766 28.19 169.402 28.19C169.15 28.19 168.893 28.2553 168.632 28.386C168.38 28.5167 168.151 28.6987 167.946 28.932C167.74 29.156 167.591 29.4173 167.498 29.716V34H165.622V26.664H167.316V28.022C167.502 27.7047 167.74 27.4387 168.03 27.224C168.319 27 168.65 26.832 169.024 26.72C169.406 26.5987 169.808 26.538 170.228 26.538C170.685 26.538 171.058 26.622 171.348 26.79C171.646 26.9487 171.87 27.168 172.02 27.448C172.178 27.7187 172.286 28.0267 172.342 28.372C172.407 28.7173 172.44 29.0673 172.44 29.422V34Z" fill="#9B9B9B"/>
<defs>
<filter id="filter0_d_35_1844" x="0.886719" y="0" width="208.113" height="60" filterUnits="userSpaceOnUse" color-interpolation-filters="sRGB">
<feFlood flood-opacity="0" result="BackgroundImageFix"/>
<feColorMatrix in="SourceAlpha" type="matrix" values="0 0 0 0 0 0 0 0 0 0 0 0 0 0 0 0 0 0 127 0" result="hardAlpha"/>
<feOffset dy="1"/>
<feGaussianBlur stdDeviation="1"/>
<feColorMatrix type="matrix" values="0 0 0 0 0.215686 0 0 0 0 0.254902 0 0 0 0 0.317647 0 0 0 0.08 0"/>
<feBlend mode="normal" in2="BackgroundImageFix" result="effect1_dropShadow_35_1844"/>
<feBlend mode="normal" in="SourceGraphic" in2="effect1_dropShadow_35_1844" result="shape"/>
</filter>
</defs>
</svg>
