<svg width="55" height="55" viewBox="0 0 55 55" fill="none" xmlns="http://www.w3.org/2000/svg">
<path d="M55 27.4954C55 29.8068 51.4169 31.6169 50.8506 33.7519C50.2565 35.9612 52.438 39.3122 51.324 41.2523C50.1916 43.211 46.1814 42.9975 44.5941 44.5848C43.0067 46.1721 43.2202 50.1823 41.2616 51.3148C39.3308 52.4287 35.9705 50.2565 33.7612 50.8414C31.6262 51.4076 29.816 54.9907 27.5046 54.9907C25.1932 54.9907 23.3831 51.4076 21.2481 50.8414C19.0388 50.2473 15.6878 52.4287 13.7477 51.3148C11.789 50.1823 12.0025 46.1721 10.4152 44.5848C8.82784 42.9975 4.81772 43.211 3.68523 41.2523C2.5713 39.3215 4.74345 35.9612 4.15864 33.7519C3.5924 31.6169 0.00927734 29.8068 0.00927734 27.4954C0.00927734 25.184 3.5924 23.3738 4.15864 21.2388C4.75274 19.0295 2.5713 15.6785 3.68523 13.7384C4.81772 11.7797 8.82784 11.9932 10.4152 10.4059C12.0025 8.81857 11.789 4.80844 13.7477 3.67595C15.6785 2.56203 19.0388 4.73418 21.2481 4.14937C23.3831 3.58312 25.1932 0 27.5046 0C29.816 0 31.6262 3.58312 33.7612 4.14937C35.9705 4.74346 39.3215 2.56203 41.2616 3.67595C43.2202 4.80844 43.0067 8.81857 44.5941 10.4059C46.1814 11.9932 50.1916 11.7797 51.324 13.7384C52.438 15.6692 50.2658 19.0295 50.8506 21.2388C51.4169 23.3738 55 25.184 55 27.4954Z" fill="#231F20"/>
<path d="M10.1088 39.6556L9.83031 39.2193L10.7029 37.4742L9.29191 38.356L9.01343 37.9197L11.1577 36.5645L11.4362 37.01L10.5636 38.7645L11.9746 37.8733L12.2531 38.3096L10.1088 39.6556Z" fill="white"/>
<path d="M12.9773 41.076C13.1444 40.946 13.265 40.7697 13.3393 40.5655C13.3579 40.4912 13.3579 40.4077 13.3393 40.3334C13.3207 40.2591 13.2836 40.1849 13.2279 40.1292C13.1722 40.0735 13.1072 40.0271 13.033 39.9899C12.9587 39.9621 12.8845 39.9528 12.8009 39.9528C12.5874 39.9899 12.411 40.092 12.2532 40.2406L12.1604 40.3241C11.9933 40.4541 11.8726 40.6212 11.8077 40.8254C11.7891 40.8996 11.7891 40.9832 11.8077 41.0574C11.8262 41.1317 11.8634 41.206 11.9191 41.2709C11.9748 41.3359 12.0397 41.3731 12.114 41.4102C12.1883 41.438 12.2625 41.4473 12.3461 41.4473C12.5596 41.4009 12.7359 41.3081 12.8937 41.1595L12.9866 41.076H12.9773ZM13.2465 41.5494C13.0794 41.7072 12.8845 41.8186 12.671 41.8836C12.476 41.9393 12.2904 41.9486 12.0954 41.8836C11.687 41.7444 11.4364 41.4659 11.3435 41.0389C11.3064 40.8439 11.3342 40.649 11.4178 40.4633C11.5106 40.2591 11.6406 40.0828 11.8077 39.9342L11.9005 39.8507C12.0676 39.6929 12.2625 39.5815 12.4853 39.5165C12.6802 39.4608 12.8752 39.4515 13.0608 39.5165C13.4693 39.6558 13.7199 39.9342 13.8034 40.3612C13.8406 40.5562 13.8034 40.7511 13.7292 40.9368C13.6364 41.1503 13.5064 41.3266 13.33 41.4752L13.2465 41.5494Z" fill="white"/>
<path d="M14.9079 44.5756L14.4995 44.2414L14.7687 42.3106L13.7104 43.6009L13.3113 43.276L14.9079 41.3174L15.3163 41.6423L15.0471 43.5824L16.1054 42.2828L16.5045 42.617L14.9079 44.5756Z" fill="white"/>
<path d="M19.0294 46.2092C19.0759 46.1257 19.0759 46.0421 19.0294 45.9586C18.9552 45.8379 18.8716 45.7358 18.7602 45.643C18.6488 45.5409 18.5375 45.4202 18.4446 45.2995C18.2404 45.0767 18.2033 44.8261 18.324 44.5476C18.3797 44.4269 18.4725 44.3341 18.5839 44.2691C18.7138 44.2041 18.8438 44.1763 18.9923 44.1856C19.1594 44.1949 19.3172 44.2413 19.4657 44.3155C19.6143 44.3898 19.7535 44.4826 19.8556 44.6126C19.9484 44.724 20.0134 44.8539 20.032 45.0025C20.0505 45.151 20.032 45.2902 19.9577 45.4202L19.4843 45.1974C19.54 45.1046 19.54 45.0025 19.5029 44.9096C19.4564 44.8075 19.3729 44.7333 19.2708 44.6868C19.178 44.6311 19.0759 44.6126 18.9645 44.6312C18.8716 44.6497 18.8159 44.6961 18.7788 44.7797C18.7417 44.8632 18.751 44.9468 18.7974 45.021C18.8716 45.1324 18.9552 45.2345 19.0573 45.3181C19.2522 45.4759 19.4007 45.6708 19.4936 45.8936C19.5586 46.0792 19.5493 46.2556 19.4657 46.432C19.3822 46.6269 19.2337 46.7476 19.0202 46.7847C18.7788 46.8219 18.5467 46.7847 18.3332 46.6641C18.1661 46.5898 18.0176 46.4784 17.897 46.3392C17.7856 46.2185 17.7206 46.0792 17.6927 45.9122C17.6742 45.7544 17.6927 45.6058 17.767 45.4666L18.2404 45.6894C18.1197 45.94 18.2126 46.1349 18.5096 46.2835C18.6024 46.3299 18.6953 46.3577 18.8067 46.3392C18.8995 46.3206 18.9552 46.2742 18.9923 46.1906L19.0294 46.2092Z" fill="white"/>
<path d="M22.9932 45.6431L22.5105 47.2398C22.4455 47.4904 22.297 47.6761 22.0742 47.7967C21.8328 47.8896 21.5822 47.8988 21.3316 47.8246C21.0809 47.7503 20.8767 47.6018 20.7189 47.3976C20.5889 47.1748 20.5704 46.9427 20.6539 46.7014L21.1459 45.0862L21.6472 45.2347L21.1645 46.8313C21.1088 46.9613 21.1181 47.0912 21.1645 47.2119C21.2294 47.3233 21.3223 47.3883 21.4429 47.4161C21.7214 47.4997 21.9071 47.3976 22.0092 47.1005L22.5012 45.4853L23.0024 45.6339L22.9932 45.6431Z" fill="white"/>
<path d="M25.6389 48.3165C25.5183 48.4279 25.3697 48.4929 25.2119 48.5207C25.017 48.5578 24.8313 48.5671 24.6364 48.5393C24.4322 48.5114 24.2465 48.4465 24.0887 48.3165C23.9309 48.1958 23.8288 48.038 23.7638 47.8524C23.6988 47.6389 23.6803 47.4161 23.7174 47.2026L23.7453 47.0355C23.7731 46.8127 23.8381 46.5992 23.9588 46.4043C24.0609 46.2372 24.2001 46.1165 24.3858 46.033C24.5993 45.9494 24.8221 45.9308 25.0448 45.9773C25.2676 46.0237 25.4626 46.1165 25.6389 46.2743C25.7967 46.4692 25.871 46.6827 25.8524 46.9334L25.3512 46.8684C25.3512 46.7384 25.3233 46.627 25.2398 46.5342C25.1562 46.4507 25.0541 46.395 24.9242 46.3857C24.7571 46.3486 24.6085 46.4043 24.4972 46.5249C24.3672 46.692 24.2929 46.887 24.2744 47.0912L24.2558 47.249C24.2094 47.4625 24.2372 47.6667 24.3208 47.8616C24.4136 48.0195 24.5529 48.1123 24.7292 48.1216C24.887 48.1587 25.0263 48.1401 25.1655 48.0566L25.2212 47.6203L24.7478 47.5553L24.8035 47.1747L25.7875 47.314L25.6482 48.3165H25.6389Z" fill="white"/>
<path d="M27.6067 47.7502H28.2379L27.9037 46.7941L27.6067 47.7502ZM28.3864 48.1586L27.4767 48.1772L27.3096 48.7063H26.7527L27.6438 46.1721H28.1265L29.1291 48.6692H28.5721L28.3864 48.1586Z" fill="white"/>
<path d="M30.5866 47.1097L31.0043 47.0354C31.1157 47.0262 31.2085 46.9705 31.2828 46.8869C31.3478 46.8034 31.3663 46.7013 31.3385 46.5992C31.3292 46.4878 31.2735 46.4042 31.19 46.3392C31.0879 46.2743 30.9765 46.265 30.8651 46.2928L30.4566 46.3671L30.5866 47.119V47.1097ZM31.0693 47.4532L30.6609 47.5274L30.8187 48.4371L30.3081 48.53L29.8718 46.0422L30.8001 45.8751C31.0507 45.8101 31.2828 45.838 31.5149 45.9494C31.7098 46.0608 31.8212 46.2371 31.849 46.4599C31.8862 46.6084 31.8676 46.757 31.8119 46.9055C31.7469 47.0447 31.6541 47.1561 31.5241 47.2397L32.2389 48.1586V48.1865L31.6912 48.2793L31.0693 47.4532Z" fill="white"/>
<path d="M35.3206 46.1814L35.8962 45.9307L35.2278 45.1881L35.3206 46.1814ZM36.2025 46.2649L35.3671 46.6362L35.4135 47.1839L34.9029 47.4067L34.7544 44.7147L35.2 44.5198L37.0844 46.4599L36.5738 46.6826L36.2025 46.2742V46.2649Z" fill="white"/>
<path d="M37.4186 43.8143L38.3283 45.2346L38.5418 45.0953C38.7089 45.0025 38.8017 44.8633 38.8296 44.6776C38.8389 44.4641 38.7832 44.2784 38.6625 44.1114L38.5882 44C38.4861 43.8143 38.3376 43.6751 38.1426 43.5915C37.957 43.5358 37.7992 43.5637 37.6414 43.6751L37.4279 43.8143H37.4186ZM38.1148 45.8658L36.7502 43.7308L37.4093 43.313C37.5857 43.1924 37.7806 43.1274 37.9941 43.1181C38.1983 43.1088 38.3933 43.1552 38.5697 43.2573C38.7646 43.3687 38.9131 43.5173 39.0338 43.7122L39.0988 43.8143C39.2194 44 39.2937 44.2042 39.3123 44.4177C39.3308 44.6219 39.2937 44.8168 39.2009 44.9932C39.0988 45.1789 38.9595 45.3274 38.7832 45.4388L38.1241 45.8658H38.1148Z" fill="white"/>
<path d="M39.8041 42.0971L40.918 43.3688L41.1037 43.2017C41.2522 43.0811 41.3265 42.9325 41.3265 42.7469C41.3079 42.5334 41.2151 42.357 41.0758 42.2085L40.983 42.1064C40.853 41.9393 40.686 41.8279 40.4724 41.7722C40.2868 41.7444 40.1197 41.8 39.9898 41.93L39.7948 42.0971H39.8041ZM40.8066 44.0186L39.1357 42.1157L39.7206 41.6051C39.8784 41.4659 40.064 41.3638 40.2682 41.3266C40.4725 41.2895 40.6674 41.2988 40.8623 41.373C41.0665 41.4566 41.2429 41.5773 41.3914 41.7444L41.4657 41.8279C41.6142 41.995 41.7163 42.1806 41.772 42.3941C41.8184 42.5891 41.8092 42.7933 41.7442 42.9882C41.6699 43.1925 41.5585 43.3595 41.4007 43.4988L40.8159 44.0186H40.8066Z" fill="white"/>
<path d="M43.313 39.9156L42.6725 40.6861L43.183 41.1224L43.9442 40.222L44.2598 40.5005L43.1644 41.7908L41.2336 40.157L42.329 38.8574L42.6539 39.1359L41.8927 40.027L42.3569 40.4169L43.0066 39.6557L43.313 39.9156Z" fill="white"/>
<path d="M43.4801 37.9385L44.9096 38.8297L45.0396 38.6162C45.151 38.4583 45.1788 38.2913 45.1139 38.1149C45.0303 37.92 44.9004 37.7714 44.7147 37.6693L44.6033 37.5951C44.4269 37.4651 44.232 37.4094 44.0185 37.4187C43.8328 37.4465 43.6936 37.5394 43.6008 37.7064L43.4615 37.9292L43.4801 37.9385ZM44.9932 39.498L42.8489 38.1613L43.2573 37.5022C43.3687 37.3166 43.5172 37.1773 43.7029 37.0752C43.8885 36.9731 44.0742 36.936 44.2877 36.9546C44.5105 36.9731 44.7147 37.0381 44.9004 37.1588L45.0025 37.2237C45.1881 37.3351 45.3459 37.4929 45.4573 37.6786C45.5594 37.855 45.6058 38.0499 45.6058 38.2541C45.5966 38.4676 45.5316 38.6626 45.4202 38.8389L45.0025 39.5073L44.9932 39.498Z" fill="white"/>
<path d="M11.9748 17.238L11.7148 17.6929L9.76548 17.7207L11.2043 18.5655L10.9351 19.0203L8.75366 17.7393L9.02286 17.2845L10.9722 17.2566L9.53341 16.4119L9.79332 15.957L11.9748 17.238Z" fill="white"/>
<path d="M12.5689 14.3326C12.4111 14.1841 12.2254 14.0913 12.0119 14.0541C11.9284 14.0541 11.8541 14.0541 11.7798 14.0913C11.7056 14.1191 11.6406 14.1655 11.5942 14.2305C11.5385 14.2955 11.5106 14.3605 11.4921 14.444C11.4735 14.5275 11.4735 14.6018 11.4921 14.6761C11.5663 14.8803 11.687 15.0474 11.8634 15.168L11.9562 15.2516C12.114 15.4001 12.2997 15.4929 12.5132 15.5301C12.5967 15.5301 12.671 15.5301 12.7452 15.4929C12.8195 15.4651 12.8845 15.4187 12.9402 15.3537C12.9959 15.2887 13.0237 15.2237 13.0423 15.1402C13.0609 15.0659 13.0609 14.9824 13.0423 14.9081C12.968 14.7039 12.8474 14.5368 12.671 14.4162L12.5782 14.3419L12.5689 14.3326ZM12.9959 13.9984C13.1723 14.1377 13.3115 14.314 13.4136 14.5183C13.4971 14.6946 13.5343 14.8896 13.5064 15.0845C13.4322 15.5115 13.1908 15.7993 12.7824 15.9478C12.5874 16.0128 12.4018 16.0128 12.2068 15.9664C11.9933 15.9107 11.7984 15.8086 11.622 15.66L11.5292 15.5765C11.3528 15.4372 11.2136 15.2609 11.1115 15.0474C11.0279 14.8617 10.9908 14.6761 11.0187 14.4718C11.0929 14.0448 11.3343 13.7571 11.7427 13.6086C11.9377 13.5436 12.1233 13.5436 12.3182 13.5993C12.541 13.6643 12.736 13.7664 12.9123 13.9149L12.9959 13.9891V13.9984Z" fill="white"/>
<path d="M16.1891 12.7267L15.7992 13.0702L13.9427 12.4668L15.0288 13.7292L14.6296 14.0634L12.9866 12.1419L13.3764 11.8077L15.233 12.4111L14.1469 11.1394L14.5461 10.8052L16.1891 12.7267Z" fill="white"/>
<path d="M19.2522 10.1089C19.2151 10.0253 19.1501 9.96962 19.0573 9.95105C18.9181 9.93249 18.7788 9.95105 18.6489 9.96962C18.5003 9.99747 18.3425 10.0067 18.1847 10.0067C17.8877 10.0253 17.6649 9.90464 17.5164 9.64472C17.4514 9.52405 17.4328 9.40337 17.4514 9.26413C17.4793 9.12489 17.5349 8.99493 17.6371 8.89282C17.7485 8.76287 17.8784 8.67004 18.0269 8.59578C18.1755 8.52152 18.3333 8.4751 18.5003 8.46582C18.6489 8.46582 18.7881 8.49367 18.9181 8.56793C19.048 8.64219 19.1409 8.7443 19.2058 8.87426L18.7417 9.10633C18.6953 9.00422 18.6303 8.93924 18.5189 8.91139C18.4075 8.88354 18.2961 8.91139 18.2033 8.96709C18.1012 9.0135 18.0269 9.07848 17.9712 9.17131C17.9341 9.25485 17.9341 9.32911 17.9712 9.41266C18.0176 9.4962 18.0826 9.53333 18.1755 9.54261C18.3054 9.5519 18.4447 9.54261 18.5746 9.51477C18.816 9.45907 19.0573 9.45907 19.2987 9.51477C19.4843 9.57046 19.6236 9.69114 19.7071 9.86751C19.8092 10.0532 19.8185 10.2481 19.7164 10.443C19.5957 10.6565 19.4286 10.8143 19.2058 10.9072C19.0387 10.9907 18.8717 11.0371 18.686 11.0464C18.5282 11.0557 18.3704 11.0278 18.2312 10.9536C18.0919 10.8793 17.9898 10.7679 17.9248 10.6287L18.389 10.3966C18.5189 10.6473 18.7231 10.6937 19.0202 10.5451C19.113 10.508 19.1873 10.4338 19.243 10.3502C19.2894 10.2759 19.2894 10.1924 19.243 10.1181L19.2522 10.1089Z" fill="white"/>
<path d="M21.9722 7.10132L22.4828 8.68866C22.5756 8.93001 22.5571 9.16208 22.4364 9.39415C22.2879 9.60765 22.0836 9.75617 21.8423 9.83972C21.5917 9.92326 21.341 9.91398 21.0997 9.83972C20.8676 9.72832 20.7191 9.55195 20.6541 9.3106L20.1436 7.70469L20.6355 7.54689L21.1461 9.13423C21.1739 9.27347 21.2482 9.37558 21.3689 9.44056C21.4803 9.48697 21.6009 9.49626 21.7216 9.44056C22.0001 9.34773 22.0929 9.16208 22.0094 8.86503L21.4988 7.25912L22.0001 7.10132H21.9722Z" fill="white"/>
<path d="M25.6944 8.66083C25.6016 8.80007 25.4902 8.90218 25.3417 8.97644C25.1653 9.06927 24.989 9.12496 24.794 9.15281C24.5898 9.18994 24.3949 9.17138 24.1999 9.09712C24.0143 9.02285 23.8657 8.90218 23.7636 8.74437C23.643 8.55872 23.5594 8.3545 23.5316 8.13171L23.5037 7.96463C23.4666 7.74184 23.4759 7.51906 23.5316 7.29627C23.5873 7.11062 23.6801 6.95281 23.8379 6.82285C24.0236 6.68361 24.2278 6.60935 24.4506 6.5815C24.6733 6.56294 24.8961 6.60007 25.1003 6.70218C25.3046 6.84142 25.4345 7.02707 25.4902 7.27771L24.989 7.35197C24.9611 7.23129 24.8961 7.12918 24.794 7.0642C24.6919 7.00851 24.5712 6.98994 24.4506 7.00851C24.2835 7.02707 24.1535 7.11062 24.0793 7.26842C24.005 7.46336 23.9864 7.66758 24.0236 7.88108L24.0514 8.03889C24.07 8.25239 24.1442 8.44733 24.2928 8.61441C24.4227 8.74437 24.5805 8.79079 24.7569 8.75366C24.9147 8.75366 25.0447 8.67939 25.156 8.568L25.0911 8.141L24.6176 8.21526L24.562 7.83467L25.5459 7.68614L25.6944 8.68868V8.66083Z" fill="white"/>
<path d="M27.449 7.97382H28.0802L27.7739 7.03626L27.4397 7.97382H27.449ZM28.2195 8.4101L27.3098 8.39154L27.1241 8.91137H26.5671L27.5511 6.38647H28.0338L28.9435 8.93922H28.3865L28.2195 8.4101Z" fill="white"/>
<path d="M30.5307 7.79736L30.9484 7.87162C31.0598 7.89947 31.1619 7.8809 31.264 7.82521C31.3569 7.76023 31.4033 7.67668 31.4126 7.57457C31.4404 7.47246 31.4126 7.37036 31.3569 7.27753C31.2826 7.1847 31.1898 7.13829 31.0691 7.11972L30.6607 7.04546L30.5307 7.79736ZM30.8742 8.28934L30.4657 8.21508L30.3079 9.12479L29.7974 9.03196L30.2244 6.53491L31.1526 6.69272C31.4033 6.72057 31.6261 6.82268 31.8024 7.00833C31.9509 7.1847 31.9974 7.37964 31.9417 7.60242C31.9231 7.76023 31.8581 7.89019 31.756 8.01086C31.6539 8.12225 31.5239 8.18723 31.3754 8.22436L31.7374 9.33829V9.36614L31.1805 9.27331L30.8742 8.28006V8.28934Z" fill="white"/>
<path d="M35.07 9.50546L35.6455 9.7561L35.7384 8.76285L35.07 9.50546ZM35.6084 10.2017L34.773 9.83036L34.4017 10.2388L33.8911 10.016L35.7755 8.07593L36.2211 8.27086L36.0633 10.9721L35.5527 10.7493L35.5991 10.2017H35.6084Z" fill="white"/>
<path d="M38.3933 9.91394L37.4743 11.3342L37.6878 11.4734C37.8363 11.5848 38.0034 11.6127 38.189 11.557C38.384 11.4827 38.5325 11.3528 38.6346 11.1671L38.7089 11.0557C38.8388 10.8886 38.8945 10.6937 38.8945 10.4802C38.8667 10.2945 38.7738 10.1553 38.6068 10.0625L38.3933 9.92323V9.91394ZM36.8152 11.3992L38.189 9.27344L38.8388 9.70044C39.0152 9.81183 39.1544 9.96036 39.2565 10.1553C39.3494 10.3409 39.3865 10.5359 39.3679 10.7401C39.3494 10.9629 39.2751 11.1671 39.1452 11.3528L39.0802 11.4549C38.9595 11.6405 38.811 11.789 38.616 11.9004C38.4397 12.0026 38.2447 12.049 38.0405 12.0304C37.827 12.0211 37.6321 11.9561 37.4557 11.8355L36.7966 11.4085L36.8152 11.3992Z" fill="white"/>
<path d="M41.0203 11.8446L39.8878 13.0978L40.0735 13.2649C40.2034 13.4041 40.3705 13.4505 40.5562 13.432C40.7604 13.3856 40.9275 13.2834 41.0575 13.1164L41.1503 13.0142C41.3081 12.8657 41.3916 12.6893 41.4195 12.4758C41.4195 12.2902 41.3545 12.1324 41.206 12.0117L41.011 11.8353L41.0203 11.8446ZM39.2288 13.0607L40.9182 11.1763L41.4937 11.6961C41.6516 11.8353 41.7722 12.0024 41.8372 12.2066C41.9022 12.4016 41.9115 12.5965 41.8558 12.8007C41.8001 13.0142 41.698 13.2092 41.5402 13.367L41.4659 13.4505C41.3174 13.6176 41.141 13.7383 40.9368 13.8218C40.7418 13.8961 40.5469 13.9054 40.352 13.8683C40.1478 13.8218 39.9621 13.729 39.8043 13.5805L39.2195 13.0607H39.2288Z" fill="white"/>
<path d="M43.1553 15.5671L42.5241 14.7967L42.0043 15.2237L42.7469 16.1334L42.422 16.4026L41.3452 15.0937L43.2946 13.4785L44.3714 14.7874L44.0465 15.0566L43.3039 14.1562L42.8397 14.5367L43.471 15.3072L43.1553 15.5671Z" fill="white"/>
<path d="M45.0398 16.5231L43.5917 17.3957L43.7216 17.6092C43.8052 17.7762 43.9444 17.8784 44.1301 17.9062C44.3436 17.9248 44.5292 17.8691 44.7056 17.7577L44.817 17.6927C45.0119 17.5999 45.1512 17.4514 45.2347 17.2564C45.2997 17.08 45.2718 16.913 45.1605 16.7552L45.0305 16.5324L45.0398 16.5231ZM42.9604 17.1636L45.1326 15.864L45.5318 16.5324C45.6432 16.7087 45.6988 16.913 45.7081 17.1172C45.7081 17.3214 45.6617 17.5163 45.5503 17.6927C45.4296 17.8784 45.2811 18.0362 45.0862 18.1476L44.9841 18.2033C44.7984 18.3239 44.5942 18.3889 44.3714 18.3982C44.1672 18.4075 43.9723 18.3703 43.7959 18.2682C43.6102 18.1661 43.4617 18.0176 43.3596 17.8319L42.9604 17.1636Z" fill="white"/>
<path d="M3.70386 32.7959C3.85238 33.0187 3.97306 33.26 4.07517 33.5107H50.9342C51.0271 33.26 51.157 33.0187 51.3055 32.7959H3.70386Z" fill="white"/>
<path d="M51.2963 22.2043C51.1477 21.9815 51.0271 21.7401 50.925 21.4895H4.07517C3.98234 21.7401 3.85238 21.9815 3.70386 22.2043H51.2963Z" fill="white"/>
<path d="M12.6896 21.4896H42.3107C42.0136 20.7562 41.6609 20.0508 41.2617 19.3731C40.8626 18.6955 40.4077 18.0457 39.9064 17.433C39.4052 16.8204 38.8668 16.2448 38.282 15.7157C37.6972 15.1866 37.0752 14.6946 36.4254 14.2491C35.7664 13.8035 35.0887 13.4136 34.3739 13.0794C33.6592 12.736 32.9258 12.4575 32.1647 12.2254C31.4128 11.9934 30.6423 11.817 29.8533 11.7056C29.0642 11.5942 28.2845 11.5292 27.4955 11.5292C26.7064 11.5292 25.9174 11.5849 25.1377 11.7056C24.3579 11.8263 23.5874 11.9934 22.8263 12.2254C22.0744 12.4575 21.3318 12.7453 20.617 13.0794C19.9022 13.4229 19.2153 13.8128 18.5655 14.2491C17.9064 14.6946 17.2938 15.1773 16.709 15.7157C16.1242 16.2448 15.5858 16.8204 15.0845 17.433C14.5832 18.0457 14.1377 18.6955 13.7292 19.3731C13.3301 20.0508 12.9773 20.7562 12.6803 21.4896H12.6896ZM43.341 22.2043H11.6592L11.8356 21.7216C12.1326 20.9233 12.4853 20.1529 12.8938 19.4102C13.3022 18.6676 13.7664 17.9621 14.2862 17.2938C14.806 16.6254 15.3723 15.9942 15.9849 15.4094C16.5976 14.8246 17.2566 14.2862 17.9529 13.8035C18.6491 13.3208 19.3824 12.8845 20.1436 12.5132C20.9047 12.1419 21.6938 11.8263 22.5014 11.5664C23.309 11.3064 24.1351 11.1208 24.9706 10.9908C25.806 10.8609 26.6507 10.7959 27.5047 10.7959C28.3588 10.7959 29.1942 10.8609 30.0389 10.9908C30.8744 11.1208 31.7005 11.3064 32.5081 11.5664C33.3157 11.817 34.1047 12.1326 34.8659 12.5132C35.6271 12.8845 36.3604 13.3208 37.0566 13.8035C37.7528 14.2862 38.4119 14.8246 39.0246 15.4094C39.6372 15.9942 40.2035 16.6254 40.7233 17.2938C41.2431 17.9621 41.7073 18.6676 42.1157 19.4102C42.5242 20.1529 42.8769 20.9233 43.1739 21.7216L43.3503 22.2043H43.341Z" fill="white"/>
<path d="M12.6896 33.5107C12.9866 34.244 13.3393 34.9495 13.7385 35.6271C14.1377 36.3048 14.5925 36.9545 15.0938 37.5672C15.595 38.1799 16.1334 38.7554 16.7183 39.2845C17.3031 39.8136 17.925 40.3056 18.5748 40.7512C19.2339 41.1967 19.9115 41.5866 20.6263 41.9208C21.341 42.2643 22.0744 42.5427 22.8356 42.7748C23.5875 43.0069 24.3579 43.1832 25.1469 43.2946C25.9267 43.4153 26.7157 43.471 27.5047 43.471C28.2938 43.471 29.0828 43.4153 29.8626 43.2946C30.6423 43.174 31.4128 43.0069 32.1739 42.7748C32.9258 42.5427 33.6685 42.255 34.3832 41.9208C35.098 41.5866 35.7849 41.1875 36.4347 40.7512C37.0938 40.3056 37.7064 39.8229 38.2912 39.2845C38.8761 38.7554 39.4145 38.1799 39.9157 37.5672C40.417 36.9545 40.8626 36.3048 41.271 35.6271C41.6701 34.9495 42.0229 34.244 42.3199 33.5107H12.6896ZM27.4955 44.1951C26.6507 44.1951 25.806 44.1301 24.9706 44.0001C24.1351 43.8702 23.309 43.6752 22.5014 43.4246C21.6938 43.174 20.9047 42.8583 20.1436 42.4778C19.3824 42.1064 18.6583 41.6702 17.9621 41.1875C17.2659 40.7048 16.6069 40.1664 15.9942 39.5816C15.3815 38.9967 14.8153 38.3655 14.2955 37.6972C13.7756 37.0288 13.3115 36.3233 12.8938 35.5807C12.4853 34.8381 12.1233 34.0676 11.8356 33.2786L11.6592 32.7959H43.341L43.1647 33.2786C42.8676 34.0769 42.5149 34.8381 42.1064 35.5807C41.698 36.3233 41.2246 37.0288 40.7047 37.6972C40.1849 38.3655 39.6187 38.9967 39.006 39.5816C38.3934 40.1664 37.7343 40.7048 37.0381 41.1875C36.3419 41.6702 35.6178 42.1064 34.8566 42.4778C34.0955 42.8491 33.3064 43.1647 32.4988 43.4246C31.6912 43.6752 30.8651 43.8702 30.0296 44.0001C29.1942 44.1301 28.3495 44.1951 27.5047 44.1951H27.4955Z" fill="white"/>
<path d="M8.35442 28.8413C8.3637 28.6278 8.28944 28.4608 8.12235 28.3308C7.86244 28.1637 7.58395 28.043 7.27762 27.9688C6.93417 27.8759 6.60927 27.7367 6.30294 27.5603C5.83881 27.2726 5.61602 26.892 5.61602 26.4278C5.61602 26.0101 5.77383 25.6759 6.11729 25.4253C6.49788 25.1375 6.93417 25.0076 7.40758 25.0262C7.73248 25.0262 8.04809 25.0818 8.34514 25.2211C8.61433 25.3418 8.82784 25.5274 8.99492 25.7781C9.15273 26.0194 9.23627 26.2886 9.22699 26.5764H8.35442C8.3637 26.335 8.28944 26.1215 8.10378 25.9544C7.89957 25.7873 7.65822 25.7131 7.3983 25.7316C7.15695 25.7131 6.93417 25.7781 6.72995 25.9173C6.56286 26.0473 6.47931 26.2143 6.4886 26.4278C6.4886 26.6321 6.57214 26.7806 6.74851 26.892C7.00843 27.0591 7.29619 27.1797 7.59324 27.254C7.92741 27.3468 8.24303 27.4768 8.54007 27.6532C8.75357 27.7831 8.92995 27.9502 9.0599 28.1637C9.18058 28.3772 9.23627 28.6 9.22699 28.8413C9.23627 29.2591 9.07847 29.5932 8.74429 29.8439C8.34514 30.1224 7.90885 30.243 7.43543 30.2152C7.08269 30.2152 6.74851 30.1502 6.42362 30.011C6.13585 29.8903 5.8945 29.7046 5.70885 29.454C5.53248 29.2034 5.44893 28.9249 5.45822 28.6186H6.34007C6.32151 28.8878 6.42362 29.1105 6.62784 29.2869C6.86919 29.4633 7.13838 29.5468 7.44471 29.519C7.69535 29.5375 7.92741 29.4726 8.13163 29.3333C8.28944 29.2127 8.3637 29.0456 8.3637 28.8413H8.35442Z" fill="white"/>
<path d="M14.0447 25.0911V28.47C14.0726 28.9712 13.8962 29.3982 13.5342 29.7417C13.3392 29.8902 13.1257 30.0109 12.8844 30.0944C12.6523 30.178 12.411 30.2151 12.1603 30.2151C11.9097 30.2151 11.6683 30.178 11.4363 30.0944C11.2042 30.0109 10.9814 29.8995 10.7865 29.751C10.4152 29.3982 10.2481 28.9712 10.2759 28.47V25.1003H11.1485V28.4792C11.1299 28.7763 11.2135 29.0269 11.4084 29.2497C11.6219 29.4447 11.8726 29.5375 12.1603 29.5189C12.838 29.5189 13.1721 29.1662 13.1721 28.4514V25.1003H14.0447V25.0911Z" fill="white"/>
<path d="M19.2152 29.4818C19.011 29.7324 18.7604 29.9181 18.454 30.0202C18.1013 30.1502 17.73 30.2059 17.3494 30.2059C16.9502 30.2059 16.5696 30.113 16.2262 29.9181C15.892 29.7232 15.6414 29.4447 15.4743 29.0919C15.2886 28.6928 15.1958 28.2751 15.1958 27.8388V27.4396C15.1958 26.6784 15.3815 26.0843 15.7435 25.648C16.1519 25.1839 16.6625 24.9704 17.2751 25.0075C17.7764 24.9797 18.222 25.1189 18.6118 25.4253C18.9739 25.7502 19.1688 26.1493 19.2059 26.6227H18.3426C18.2498 26.0101 17.8971 25.713 17.2844 25.713C16.9131 25.6945 16.6068 25.8337 16.384 26.14C16.1798 26.4185 16.0777 26.8362 16.0684 27.3839V27.7738C16.0684 28.3215 16.1798 28.7392 16.4118 29.0455C16.6532 29.3611 16.9688 29.5189 17.368 29.5004C17.8135 29.5004 18.1384 29.3983 18.3241 29.194V28.2008H17.2844V27.5324H19.1966V29.4725L19.2152 29.4818Z" fill="white"/>
<path d="M21.6471 28.2565H23.1138L22.3805 26.1586L21.6471 28.2565ZM23.3552 28.962H21.3965L20.9881 30.1409H20.0784L21.9813 25.0911H22.7704L24.6826 30.1409H23.7636L23.3552 28.962Z" fill="white"/>
<path d="M26.4929 27.486H27.3934C27.6533 27.5046 27.8853 27.4303 28.0896 27.2632C28.2659 27.0961 28.3495 26.8919 28.3402 26.6506C28.3588 26.4092 28.2752 26.1957 28.1081 26.0193C27.9132 25.8523 27.6811 25.778 27.4212 25.7873H26.4929V27.4767V27.486ZM27.4676 28.1915H26.4929V30.1316H25.6204V25.0818H27.3934C27.9782 25.0818 28.4237 25.2117 28.7393 25.4717C29.0828 25.7687 29.2406 26.1493 29.2128 26.6041C29.222 26.9105 29.1385 27.1982 28.9714 27.4489C28.795 27.6902 28.563 27.8666 28.2938 27.978L29.4263 30.0852V30.1316H28.4887L27.4769 28.1915H27.4676Z" fill="white"/>
<path d="M35.4321 27.9965H33.3992V30.1409H32.5266V25.0911H35.7384V25.7965H33.3992V27.3003H35.4321V27.9965Z" fill="white"/>
<path d="M37.6599 27.486H38.5604C38.8203 27.5046 39.0523 27.4303 39.2566 27.2632C39.4329 27.0961 39.5165 26.8919 39.5072 26.6506C39.5258 26.4092 39.4422 26.1957 39.2751 26.0193C39.0802 25.8523 38.8481 25.778 38.5882 25.7873H37.6599V27.4767V27.486ZM38.6346 28.1915H37.6599V30.1316H36.7781V25.0818H38.5511C39.1359 25.0818 39.5815 25.2117 39.8971 25.4717C40.2405 25.7687 40.3983 26.1493 40.3705 26.6041C40.3798 26.9105 40.2962 27.1982 40.1291 27.4489C39.9528 27.6902 39.7207 27.8666 39.4515 27.978L40.584 30.0852V30.1316H39.6464L38.6346 28.1915Z" fill="white"/>
<path d="M44.5198 27.8852H42.4497V29.4354H44.8725V30.1409H41.5679V25.0911H44.8447V25.7965H42.4497V27.189H44.5198V27.8852Z" fill="white"/>
<path d="M48.8921 27.8852H46.822V29.4354H49.2448V30.1409H45.9402V25.0911H49.217V25.7965H46.822V27.189H48.8921V27.8852Z" fill="white"/>
<path d="M29.8532 17.7206L27.8481 18.9274V17.043L29.8532 15.8362V17.7206ZM25.1469 15.8455L27.1519 17.0523V18.9366L25.1469 17.7299V15.8455ZM27.4954 16.4303L25.4718 15.2143L27.4954 13.9982L29.519 15.2143L27.4954 16.4303ZM30.568 15.205C30.568 15.205 30.568 15.1493 30.5587 15.1214C30.5587 15.1214 30.5587 15.1122 30.5587 15.1029C30.5587 15.0843 30.5401 15.0565 30.5308 15.0379C30.5308 15.0379 30.5308 15.0193 30.5216 15.0193C30.5123 15.0008 30.4937 14.9822 30.4844 14.9636C30.4844 14.9636 30.4844 14.9544 30.4751 14.9451C30.4566 14.9265 30.438 14.9079 30.4102 14.8987L27.6996 13.2649C27.6996 13.2649 27.6903 13.2649 27.6811 13.2649C27.6718 13.2649 27.6625 13.2556 27.6439 13.2463C27.6346 13.2463 27.6254 13.2463 27.6161 13.2371C27.6068 13.2371 27.5975 13.2371 27.5789 13.2371C27.5697 13.2371 27.5604 13.2371 27.5511 13.2371C27.5418 13.2371 27.5232 13.2371 27.514 13.2371C27.5047 13.2371 27.4954 13.2371 27.4861 13.2371C27.4768 13.2371 27.4583 13.2371 27.449 13.2371C27.4397 13.2371 27.4304 13.2371 27.4211 13.2371C27.4119 13.2371 27.3933 13.2371 27.384 13.2463C27.3747 13.2463 27.3654 13.2463 27.3562 13.2649C27.3562 13.2649 27.3469 13.2649 27.3376 13.2649L24.627 14.8987C24.627 14.8987 24.5806 14.9265 24.5621 14.9451C24.5621 14.9451 24.5621 14.9544 24.5528 14.9636C24.5342 14.9822 24.5249 15.0008 24.5157 15.0193C24.5157 15.0193 24.5157 15.0379 24.5064 15.0379C24.4971 15.0565 24.4878 15.075 24.4785 15.1029C24.4785 15.1029 24.4785 15.1122 24.4785 15.1214C24.4785 15.1493 24.4692 15.1771 24.4692 15.205V17.9248C24.4692 18.0548 24.5249 18.1569 24.6456 18.2312L27.3562 19.8649C27.3747 19.8649 27.3933 19.8835 27.4119 19.8835C27.4211 19.8835 27.4304 19.8835 27.4397 19.8928C27.5047 19.9113 27.5604 19.9113 27.6254 19.8928C27.6346 19.8928 27.6439 19.8928 27.6532 19.8835C27.6718 19.8835 27.6903 19.8742 27.7089 19.8649L30.4194 18.2312C30.5308 18.1662 30.5958 18.0641 30.5958 17.9248V15.2143L30.568 15.205Z" fill="white"/>
<path d="M29.8532 39.6093L27.8482 40.816V38.9316L29.8532 37.7249V39.6093ZM25.1469 37.7249L27.152 38.9316V40.816L25.1469 39.6093V37.7249ZM27.4954 38.3097L25.4718 37.0937L27.4954 35.8776L29.519 37.0937L27.4954 38.3097ZM30.568 37.0844C30.568 37.0844 30.568 37.0287 30.5587 37.0008C30.5587 37.0008 30.5587 36.9916 30.5587 36.9823C30.5587 36.9637 30.5401 36.9359 30.5309 36.9173C30.5309 36.9173 30.5309 36.8987 30.5216 36.8987C30.5123 36.8802 30.4937 36.8616 30.4844 36.843C30.4844 36.843 30.4844 36.8338 30.4752 36.8245C30.4566 36.8059 30.438 36.7873 30.4102 36.7781L27.6996 35.1443C27.6996 35.1443 27.6904 35.1443 27.6811 35.1443C27.6718 35.1443 27.6625 35.135 27.6439 35.1257C27.6347 35.1257 27.6254 35.1257 27.6161 35.1165C27.6068 35.1165 27.5975 35.1165 27.579 35.1165C27.5697 35.1165 27.5604 35.1165 27.5418 35.1165C27.5325 35.1165 27.5233 35.1165 27.5047 35.1165C27.4861 35.1165 27.4861 35.1165 27.4676 35.1165C27.4583 35.1165 27.449 35.1165 27.4304 35.1165C27.4212 35.1165 27.4119 35.1165 27.3933 35.1165C27.384 35.1165 27.3747 35.1165 27.3655 35.1257C27.3562 35.1257 27.3376 35.135 27.3283 35.1443C27.3283 35.1443 27.319 35.1443 27.3098 35.1443L24.5992 36.7781C24.5992 36.7781 24.5528 36.8059 24.5342 36.8245C24.5342 36.8245 24.5342 36.8338 24.525 36.843C24.5064 36.8616 24.4971 36.8802 24.4878 36.8987C24.4878 36.8987 24.4878 36.908 24.4785 36.9173C24.4693 36.9359 24.46 36.9544 24.4507 36.9823C24.4507 36.9823 24.4507 36.9916 24.4507 37.0008C24.4507 37.0287 24.4414 37.0565 24.4414 37.0844V39.8042C24.4414 39.9342 24.4971 40.0363 24.6178 40.1105L27.3283 41.7443C27.3469 41.7443 27.3655 41.7629 27.384 41.7629C27.3933 41.7629 27.4026 41.7629 27.4119 41.7721C27.4769 41.7907 27.5325 41.7907 27.5975 41.7721C27.6068 41.7721 27.6161 41.7722 27.6254 41.7629C27.6439 41.7629 27.6625 41.7536 27.6811 41.7443L30.3916 40.1105C30.503 40.0456 30.568 39.9435 30.568 39.8042V37.0937V37.0844Z" fill="white"/>
</svg>
