<svg width="89" height="27" viewBox="0 0 89 27" fill="none" xmlns="http://www.w3.org/2000/svg">
<path d="M73.1044 22.5944C76.776 19.8204 80.183 16.729 83.2953 13.3747L84.3522 12.233L82.2474 14.1987C79.3719 16.8801 76.3018 19.3477 73.0426 21.5796L71.2481 22.8055C71.4592 21.3222 72.2672 17.635 75.2701 14.3307C76.3911 13.0961 77.7576 12.0962 79.3133 11.4569C81.9835 10.3617 85.0487 11.0535 86.7532 8.89152C86.7532 8.89152 88.1788 16.2961 83.4077 20.8174C78.8719 24.8916 73.4668 24.0373 71.7455 23.6275L73.1119 22.5963L73.1044 22.5944Z" fill="black"/>
<path d="M14.5986 11.0664C14.5986 11.4561 14.4976 11.8062 14.2954 12.1167C14.0962 12.4272 13.8032 12.6704 13.4165 12.8462C13.0298 13.022 12.5713 13.1099 12.041 13.1099C11.4053 13.1099 10.8809 12.9897 10.4678 12.7495C10.1748 12.5767 9.93604 12.3467 9.75146 12.0596C9.56982 11.7695 9.479 11.4883 9.479 11.2158C9.479 11.0576 9.5332 10.9229 9.6416 10.8115C9.75293 10.6973 9.89355 10.6401 10.0635 10.6401C10.2012 10.6401 10.3169 10.6841 10.4106 10.772C10.5073 10.8599 10.5894 10.9902 10.6567 11.1631C10.7388 11.3682 10.8267 11.5396 10.9204 11.6772C11.0171 11.8149 11.1519 11.9292 11.3247 12.02C11.4976 12.1079 11.7246 12.1519 12.0059 12.1519C12.3926 12.1519 12.7061 12.0625 12.9463 11.8838C13.1895 11.7021 13.311 11.4766 13.311 11.207C13.311 10.9932 13.2451 10.8203 13.1133 10.6885C12.9844 10.5537 12.8159 10.4512 12.6079 10.3809C12.4028 10.3105 12.1274 10.2358 11.7817 10.1567C11.3188 10.0483 10.9307 9.92236 10.6172 9.77881C10.3066 9.63232 10.0591 9.43457 9.87451 9.18555C9.69287 8.93359 9.60205 8.62158 9.60205 8.24951C9.60205 7.89502 9.69873 7.58008 9.89209 7.30469C10.0854 7.0293 10.3652 6.81836 10.7314 6.67188C11.0977 6.52246 11.5283 6.44775 12.0234 6.44775C12.4189 6.44775 12.7603 6.49756 13.0474 6.59717C13.3374 6.69385 13.5776 6.82422 13.7681 6.98828C13.9585 7.14941 14.0977 7.31934 14.1855 7.49805C14.2734 7.67676 14.3174 7.85107 14.3174 8.021C14.3174 8.17627 14.2617 8.31689 14.1504 8.44287C14.042 8.56592 13.9058 8.62744 13.7417 8.62744C13.5923 8.62744 13.478 8.59082 13.3989 8.51758C13.3228 8.44141 13.2393 8.31836 13.1484 8.14844C13.0312 7.90527 12.8906 7.71631 12.7266 7.58154C12.5625 7.44385 12.2988 7.375 11.9355 7.375C11.5986 7.375 11.3262 7.44971 11.1182 7.59912C10.9131 7.74561 10.8105 7.92285 10.8105 8.13086C10.8105 8.25977 10.8457 8.37109 10.916 8.46484C10.9863 8.55859 11.083 8.63916 11.2061 8.70654C11.3291 8.77393 11.4536 8.82666 11.5796 8.86475C11.7056 8.90283 11.9136 8.9585 12.2036 9.03174C12.5669 9.1167 12.895 9.21045 13.188 9.31299C13.4839 9.41553 13.7344 9.54004 13.9395 9.68652C14.1475 9.83301 14.3086 10.019 14.4229 10.2446C14.54 10.4673 14.5986 10.7412 14.5986 11.0664ZM15.7148 10.3369V7.23877C15.7148 6.9751 15.7734 6.77734 15.8906 6.64551C16.0107 6.51367 16.1675 6.44775 16.3608 6.44775C16.563 6.44775 16.7227 6.51367 16.8398 6.64551C16.96 6.77734 17.02 6.9751 17.02 7.23877V10.4072C17.02 10.7676 17.0596 11.0693 17.1387 11.3125C17.2207 11.5527 17.3643 11.7402 17.5693 11.875C17.7744 12.0068 18.0615 12.0728 18.4307 12.0728C18.9404 12.0728 19.3008 11.938 19.5117 11.6685C19.7227 11.396 19.8281 10.9844 19.8281 10.4336V7.23877C19.8281 6.97217 19.8867 6.77441 20.0039 6.64551C20.1211 6.51367 20.2778 6.44775 20.4741 6.44775C20.6704 6.44775 20.8286 6.51367 20.9487 6.64551C21.0718 6.77441 21.1333 6.97217 21.1333 7.23877V10.3369C21.1333 10.8408 21.0835 11.2612 20.9839 11.5981C20.8872 11.9351 20.7026 12.231 20.4302 12.4858C20.1958 12.7026 19.9233 12.8608 19.6128 12.9604C19.3022 13.0601 18.939 13.1099 18.5229 13.1099C18.0278 13.1099 17.6016 13.0571 17.2441 12.9517C16.8867 12.8433 16.5952 12.6777 16.3696 12.4551C16.144 12.2295 15.9785 11.9424 15.873 11.5938C15.7676 11.2422 15.7148 10.8232 15.7148 10.3369ZM22.5967 12.3145V7.23877C22.5967 6.9751 22.6567 6.77734 22.7769 6.64551C22.897 6.51367 23.0522 6.44775 23.2427 6.44775C23.439 6.44775 23.5972 6.51367 23.7173 6.64551C23.8403 6.77441 23.9019 6.97217 23.9019 7.23877V12.3145C23.9019 12.5811 23.8403 12.7803 23.7173 12.9121C23.5972 13.0439 23.439 13.1099 23.2427 13.1099C23.0552 13.1099 22.8999 13.0439 22.7769 12.9121C22.6567 12.7773 22.5967 12.5781 22.5967 12.3145ZM29.5488 7.63428H28.125V12.3145C28.125 12.584 28.0649 12.7847 27.9448 12.9165C27.8247 13.0454 27.6694 13.1099 27.479 13.1099C27.2856 13.1099 27.1274 13.0439 27.0044 12.9121C26.8843 12.7803 26.8242 12.5811 26.8242 12.3145V7.63428H25.4004C25.1777 7.63428 25.0122 7.58594 24.9038 7.48926C24.7954 7.38965 24.7412 7.25928 24.7412 7.09814C24.7412 6.93115 24.7969 6.79932 24.9082 6.70264C25.0225 6.60596 25.1865 6.55762 25.4004 6.55762H29.5488C29.7744 6.55762 29.9414 6.60742 30.0498 6.70703C30.1611 6.80664 30.2168 6.93701 30.2168 7.09814C30.2168 7.25928 30.1611 7.38965 30.0498 7.48926C29.9385 7.58594 29.7715 7.63428 29.5488 7.63428ZM34.541 12.2705L34.2334 11.4619H31.6143L31.3066 12.2881C31.1865 12.6104 31.084 12.8286 30.999 12.9429C30.9141 13.0542 30.7749 13.1099 30.5815 13.1099C30.4175 13.1099 30.2725 13.0498 30.1465 12.9297C30.0205 12.8096 29.9575 12.6733 29.9575 12.521C29.9575 12.4331 29.9722 12.3423 30.0015 12.2485C30.0308 12.1548 30.0791 12.0244 30.1465 11.8574L31.7944 7.67383C31.8413 7.55371 31.897 7.41016 31.9614 7.24316C32.0288 7.07324 32.0991 6.93262 32.1724 6.82129C32.2485 6.70996 32.3467 6.62061 32.4668 6.55322C32.5898 6.48291 32.7407 6.44775 32.9194 6.44775C33.1011 6.44775 33.252 6.48291 33.3721 6.55322C33.4951 6.62061 33.5933 6.7085 33.6665 6.81689C33.7427 6.92529 33.8057 7.04248 33.8555 7.16846C33.9082 7.2915 33.9741 7.45703 34.0532 7.66504L35.7363 11.8223C35.8682 12.1387 35.9341 12.3687 35.9341 12.5122C35.9341 12.6616 35.8711 12.7993 35.7451 12.9253C35.6221 13.0483 35.4727 13.1099 35.2969 13.1099C35.1943 13.1099 35.1064 13.0908 35.0332 13.0527C34.96 13.0176 34.8984 12.9692 34.8486 12.9077C34.7988 12.8433 34.7446 12.7466 34.686 12.6177C34.6304 12.4858 34.582 12.3701 34.541 12.2705ZM31.957 10.4819H33.8818L32.9106 7.82324L31.957 10.4819ZM39.6475 13H37.6787C37.3945 13 37.1909 12.937 37.0679 12.811C36.9478 12.6821 36.8877 12.4785 36.8877 12.2002V7.35742C36.8877 7.07324 36.9492 6.86963 37.0723 6.74658C37.1982 6.62061 37.4004 6.55762 37.6787 6.55762H39.7661C40.0737 6.55762 40.3403 6.57666 40.5659 6.61475C40.7915 6.65283 40.9937 6.72607 41.1724 6.83447C41.3247 6.92529 41.4595 7.04102 41.5767 7.18164C41.6938 7.31934 41.7832 7.47314 41.8447 7.64307C41.9062 7.81006 41.937 7.9873 41.937 8.1748C41.937 8.81934 41.6147 9.29102 40.9702 9.58984C41.8169 9.85938 42.2402 10.3838 42.2402 11.1631C42.2402 11.5234 42.1479 11.8486 41.9634 12.1387C41.7788 12.4258 41.5298 12.6382 41.2163 12.7759C41.02 12.8579 40.7944 12.9165 40.5396 12.9517C40.2847 12.9839 39.9873 13 39.6475 13ZM39.5508 10.1392H38.1929V12.02H39.5947C40.4766 12.02 40.9175 11.7021 40.9175 11.0664C40.9175 10.7412 40.8032 10.5054 40.5747 10.3589C40.3462 10.2124 40.0049 10.1392 39.5508 10.1392ZM38.1929 7.5376V9.20312H39.3882C39.7134 9.20312 39.9639 9.17236 40.1396 9.11084C40.3184 9.04932 40.4546 8.93213 40.5483 8.75928C40.6216 8.63623 40.6582 8.49854 40.6582 8.34619C40.6582 8.021 40.5425 7.80566 40.311 7.7002C40.0796 7.5918 39.7266 7.5376 39.252 7.5376H38.1929ZM44.6528 7.23877V11.9277H47.2983C47.5093 11.9277 47.6704 11.979 47.7817 12.0815C47.896 12.1841 47.9531 12.313 47.9531 12.4683C47.9531 12.6265 47.8975 12.7554 47.7861 12.855C47.6748 12.9517 47.5122 13 47.2983 13H44.1475C43.8633 13 43.6582 12.937 43.5322 12.811C43.4092 12.6851 43.3477 12.4814 43.3477 12.2002V7.23877C43.3477 6.9751 43.4062 6.77734 43.5234 6.64551C43.6436 6.51367 43.8003 6.44775 43.9937 6.44775C44.1899 6.44775 44.3481 6.51367 44.4683 6.64551C44.5913 6.77441 44.6528 6.97217 44.6528 7.23877ZM53.0596 7.56396H50.1196V9.146H52.8267C53.0259 9.146 53.1738 9.19141 53.2705 9.28223C53.3701 9.37012 53.4199 9.4873 53.4199 9.63379C53.4199 9.78027 53.3716 9.90039 53.2749 9.99414C53.1782 10.085 53.0288 10.1304 52.8267 10.1304H50.1196V11.9629H53.1606C53.3657 11.9629 53.5195 12.0112 53.6221 12.1079C53.7275 12.2017 53.7803 12.3276 53.7803 12.4858C53.7803 12.6382 53.7275 12.7627 53.6221 12.8594C53.5195 12.9531 53.3657 13 53.1606 13H49.6143C49.3301 13 49.125 12.937 48.999 12.811C48.876 12.6851 48.8145 12.4814 48.8145 12.2002V7.35742C48.8145 7.16992 48.8423 7.01758 48.8979 6.90039C48.9536 6.78027 49.04 6.69385 49.1572 6.64111C49.2773 6.58545 49.4297 6.55762 49.6143 6.55762H53.0596C53.2676 6.55762 53.4214 6.60449 53.521 6.69824C53.6235 6.78906 53.6748 6.90918 53.6748 7.05859C53.6748 7.21094 53.6235 7.33398 53.521 7.42773C53.4214 7.51855 53.2676 7.56396 53.0596 7.56396ZM60.917 7.56396H58.3462V9.21191H60.4951C60.6943 9.21191 60.8423 9.25732 60.939 9.34814C61.0386 9.43604 61.0884 9.55469 61.0884 9.7041C61.0884 9.85352 61.0386 9.97217 60.939 10.0601C60.8394 10.1479 60.6914 10.1919 60.4951 10.1919H58.3462V12.3145C58.3462 12.584 58.2847 12.7847 58.1616 12.9165C58.0415 13.0454 57.8862 13.1099 57.6958 13.1099C57.5024 13.1099 57.3442 13.0439 57.2212 12.9121C57.1011 12.7803 57.041 12.5811 57.041 12.3145V7.35742C57.041 7.16992 57.0688 7.01758 57.1245 6.90039C57.1802 6.78027 57.2666 6.69385 57.3838 6.64111C57.5039 6.58545 57.6562 6.55762 57.8408 6.55762H60.917C61.125 6.55762 61.2788 6.60449 61.3784 6.69824C61.481 6.78906 61.5322 6.90918 61.5322 7.05859C61.5322 7.21094 61.481 7.33398 61.3784 7.42773C61.2788 7.51855 61.125 7.56396 60.917 7.56396ZM65.3423 6.44775C66.0103 6.44775 66.583 6.58398 67.0605 6.85645C67.541 7.12598 67.9043 7.51123 68.1504 8.01221C68.3965 8.51025 68.5195 9.09619 68.5195 9.77002C68.5195 10.2681 68.4521 10.7207 68.3174 11.1279C68.1826 11.5352 67.9805 11.8882 67.7109 12.187C67.4414 12.4858 67.1104 12.7144 66.7178 12.8726C66.3252 13.0308 65.8755 13.1099 65.3687 13.1099C64.8647 13.1099 64.4136 13.0293 64.0151 12.8682C63.6167 12.7041 63.2842 12.4741 63.0176 12.1782C62.751 11.8823 62.5488 11.5264 62.4111 11.1104C62.2764 10.6943 62.209 10.2446 62.209 9.76123C62.209 9.26611 62.2793 8.81201 62.4199 8.39893C62.5635 7.98584 62.77 7.63428 63.0396 7.34424C63.3091 7.0542 63.6372 6.83301 64.0239 6.68066C64.4106 6.52539 64.8501 6.44775 65.3423 6.44775ZM67.1968 9.76123C67.1968 9.28955 67.1206 8.88086 66.9683 8.53516C66.8159 8.18945 66.5977 7.92871 66.3135 7.75293C66.0322 7.57422 65.7085 7.48486 65.3423 7.48486C65.0815 7.48486 64.8398 7.53467 64.6172 7.63428C64.3975 7.73096 64.207 7.87305 64.0459 8.06055C63.8877 8.24805 63.7617 8.48828 63.668 8.78125C63.5771 9.07129 63.5317 9.39795 63.5317 9.76123C63.5317 10.1274 63.5771 10.4585 63.668 10.7544C63.7617 11.0503 63.8921 11.2964 64.0591 11.4927C64.229 11.686 64.4224 11.8311 64.6392 11.9277C64.8589 12.0244 65.0991 12.0728 65.3599 12.0728C65.6938 12.0728 66 11.9893 66.2783 11.8223C66.5596 11.6553 66.7822 11.3975 66.9463 11.0488C67.1133 10.7002 67.1968 10.271 67.1968 9.76123ZM71.3892 10.2446H70.9321V12.3145C70.9321 12.5869 70.8721 12.7876 70.752 12.9165C70.6318 13.0454 70.4751 13.1099 70.2817 13.1099C70.0737 13.1099 69.9126 13.0425 69.7983 12.9077C69.6841 12.7729 69.627 12.5752 69.627 12.3145V7.35742C69.627 7.07617 69.6899 6.87256 69.8159 6.74658C69.9419 6.62061 70.1455 6.55762 70.4268 6.55762H72.5493C72.8423 6.55762 73.0928 6.5708 73.3008 6.59717C73.5088 6.62061 73.6963 6.67041 73.8633 6.74658C74.0654 6.83154 74.2441 6.95312 74.3994 7.11133C74.5547 7.26953 74.6719 7.4541 74.751 7.66504C74.833 7.87305 74.874 8.09424 74.874 8.32861C74.874 8.80908 74.7378 9.19287 74.4653 9.47998C74.1958 9.76709 73.7856 9.9707 73.2349 10.0908C73.4663 10.2139 73.6875 10.3955 73.8984 10.6357C74.1094 10.876 74.2969 11.1323 74.4609 11.4048C74.6279 11.6743 74.7568 11.9189 74.8477 12.1387C74.9414 12.3555 74.9883 12.5049 74.9883 12.5869C74.9883 12.6719 74.9604 12.7568 74.9048 12.8418C74.8521 12.9238 74.7788 12.9883 74.6851 13.0352C74.5913 13.085 74.4829 13.1099 74.3599 13.1099C74.2134 13.1099 74.0903 13.0747 73.9907 13.0044C73.8911 12.937 73.8047 12.8506 73.7314 12.7451C73.6611 12.6396 73.5645 12.4844 73.4414 12.2793L72.9185 11.4092C72.731 11.0898 72.5625 10.8467 72.4131 10.6797C72.2666 10.5127 72.1172 10.3984 71.9648 10.3369C71.8125 10.2754 71.6206 10.2446 71.3892 10.2446ZM72.1362 7.5376H70.9321V9.30859H72.1011C72.4146 9.30859 72.6782 9.28223 72.8921 9.22949C73.106 9.17383 73.2686 9.08154 73.3799 8.95264C73.4941 8.8208 73.5513 8.64062 73.5513 8.41211C73.5513 8.2334 73.5059 8.07666 73.415 7.94189C73.3242 7.8042 73.1982 7.70166 73.0371 7.63428C72.8848 7.56982 72.5845 7.5376 72.1362 7.5376ZM10.6567 17.3047L12.1157 21.6245L13.5791 17.2739C13.6553 17.0454 13.7124 16.8872 13.7505 16.7993C13.7886 16.7085 13.8516 16.6279 13.9395 16.5576C14.0273 16.4844 14.1475 16.4478 14.2998 16.4478C14.4111 16.4478 14.5137 16.4756 14.6074 16.5312C14.7041 16.5869 14.7788 16.6616 14.8315 16.7554C14.8872 16.8462 14.915 16.9385 14.915 17.0322C14.915 17.0967 14.9062 17.167 14.8887 17.2432C14.8711 17.3164 14.8491 17.3896 14.8228 17.4629C14.7964 17.5332 14.77 17.6064 14.7437 17.6826L13.1836 21.8926C13.1279 22.0537 13.0723 22.2075 13.0166 22.354C12.9609 22.4976 12.8965 22.625 12.8232 22.7363C12.75 22.8447 12.6519 22.9341 12.5288 23.0044C12.4087 23.0747 12.2607 23.1099 12.085 23.1099C11.9092 23.1099 11.7598 23.0747 11.6367 23.0044C11.5166 22.937 11.4185 22.8477 11.3423 22.7363C11.269 22.6221 11.2046 22.4932 11.1489 22.3496C11.0933 22.2061 11.0376 22.0537 10.9819 21.8926L9.44824 17.7178C9.42188 17.6416 9.39404 17.5669 9.36475 17.4937C9.33838 17.4204 9.31494 17.3413 9.29443 17.2563C9.27686 17.1714 9.26807 17.0996 9.26807 17.041C9.26807 16.8916 9.32812 16.7554 9.44824 16.6323C9.56836 16.5093 9.71924 16.4478 9.90088 16.4478C10.1235 16.4478 10.2803 16.5166 10.3711 16.6543C10.4648 16.7891 10.5601 17.0059 10.6567 17.3047ZM20.1445 17.564H17.2046V19.146H19.9116C20.1108 19.146 20.2588 19.1914 20.3555 19.2822C20.4551 19.3701 20.5049 19.4873 20.5049 19.6338C20.5049 19.7803 20.4565 19.9004 20.3599 19.9941C20.2632 20.085 20.1138 20.1304 19.9116 20.1304H17.2046V21.9629H20.2456C20.4507 21.9629 20.6045 22.0112 20.707 22.1079C20.8125 22.2017 20.8652 22.3276 20.8652 22.4858C20.8652 22.6382 20.8125 22.7627 20.707 22.8594C20.6045 22.9531 20.4507 23 20.2456 23H16.6992C16.415 23 16.21 22.937 16.084 22.811C15.9609 22.6851 15.8994 22.4814 15.8994 22.2002V17.3574C15.8994 17.1699 15.9272 17.0176 15.9829 16.9004C16.0386 16.7803 16.125 16.6938 16.2422 16.6411C16.3623 16.5854 16.5146 16.5576 16.6992 16.5576H20.1445C20.3525 16.5576 20.5063 16.6045 20.606 16.6982C20.7085 16.7891 20.7598 16.9092 20.7598 17.0586C20.7598 17.2109 20.7085 17.334 20.606 17.4277C20.5063 17.5186 20.3525 17.564 20.1445 17.564ZM27.7866 20.3809V21.6157C27.7866 21.7798 27.7705 21.9116 27.7383 22.0112C27.7061 22.1079 27.646 22.1958 27.5581 22.2749C27.4731 22.354 27.3633 22.4302 27.2285 22.5034C26.8389 22.7144 26.4639 22.8682 26.1035 22.9648C25.7432 23.0615 25.3506 23.1099 24.9258 23.1099C24.4307 23.1099 23.9795 23.0337 23.5723 22.8813C23.165 22.729 22.8179 22.5078 22.5308 22.2178C22.2437 21.9277 22.0225 21.5762 21.8672 21.1631C21.7148 20.75 21.6387 20.2886 21.6387 19.7788C21.6387 19.2778 21.7134 18.8193 21.8628 18.4033C22.0122 17.9873 22.2319 17.6343 22.522 17.3442C22.812 17.0542 23.165 16.833 23.5811 16.6807C23.9971 16.5254 24.4688 16.4478 24.9961 16.4478C25.4297 16.4478 25.8135 16.5063 26.1475 16.6235C26.4814 16.7378 26.7524 16.8828 26.9604 17.0586C27.1685 17.2344 27.3252 17.4204 27.4307 17.6167C27.5361 17.813 27.5889 17.9873 27.5889 18.1396C27.5889 18.3037 27.5273 18.4443 27.4043 18.5615C27.2842 18.6758 27.1392 18.7329 26.9692 18.7329C26.8755 18.7329 26.7847 18.7109 26.6968 18.667C26.6118 18.623 26.54 18.5615 26.4814 18.4824C26.3203 18.2305 26.1841 18.04 26.0728 17.9111C25.9614 17.7822 25.8105 17.6738 25.6201 17.5859C25.4326 17.498 25.1924 17.4541 24.8994 17.4541C24.5977 17.4541 24.3281 17.5068 24.0908 17.6123C23.8535 17.7148 23.6499 17.8657 23.48 18.0649C23.313 18.2612 23.1841 18.5029 23.0933 18.79C23.0054 19.0771 22.9614 19.395 22.9614 19.7437C22.9614 20.4995 23.1343 21.0811 23.48 21.4883C23.8286 21.8955 24.3135 22.0991 24.9346 22.0991C25.2363 22.0991 25.519 22.0596 25.7827 21.9805C26.0493 21.9014 26.3188 21.7886 26.5913 21.6421V20.5962H25.5806C25.3374 20.5962 25.1528 20.5596 25.0269 20.4863C24.9038 20.4131 24.8423 20.2886 24.8423 20.1128C24.8423 19.9692 24.8936 19.8506 24.9961 19.7568C25.1016 19.6631 25.2437 19.6162 25.4224 19.6162H26.9033C27.085 19.6162 27.2388 19.6323 27.3647 19.6646C27.4907 19.6968 27.5918 19.7686 27.668 19.8799C27.7471 19.9912 27.7866 20.1582 27.7866 20.3809ZM33.2754 17.564H30.3354V19.146H33.0425C33.2417 19.146 33.3896 19.1914 33.4863 19.2822C33.5859 19.3701 33.6357 19.4873 33.6357 19.6338C33.6357 19.7803 33.5874 19.9004 33.4907 19.9941C33.394 20.085 33.2446 20.1304 33.0425 20.1304H30.3354V21.9629H33.3765C33.5815 21.9629 33.7354 22.0112 33.8379 22.1079C33.9434 22.2017 33.9961 22.3276 33.9961 22.4858C33.9961 22.6382 33.9434 22.7627 33.8379 22.8594C33.7354 22.9531 33.5815 23 33.3765 23H29.8301C29.5459 23 29.3408 22.937 29.2148 22.811C29.0918 22.6851 29.0303 22.4814 29.0303 22.2002V17.3574C29.0303 17.1699 29.0581 17.0176 29.1138 16.9004C29.1694 16.7803 29.2559 16.6938 29.373 16.6411C29.4932 16.5854 29.6455 16.5576 29.8301 16.5576H33.2754C33.4834 16.5576 33.6372 16.6045 33.7368 16.6982C33.8394 16.7891 33.8906 16.9092 33.8906 17.0586C33.8906 17.2109 33.8394 17.334 33.7368 17.4277C33.6372 17.5186 33.4834 17.564 33.2754 17.564ZM39.2168 17.6343H37.793V22.3145C37.793 22.584 37.7329 22.7847 37.6128 22.9165C37.4927 23.0454 37.3374 23.1099 37.147 23.1099C36.9536 23.1099 36.7954 23.0439 36.6724 22.9121C36.5522 22.7803 36.4922 22.5811 36.4922 22.3145V17.6343H35.0684C34.8457 17.6343 34.6802 17.5859 34.5718 17.4893C34.4634 17.3896 34.4092 17.2593 34.4092 17.0981C34.4092 16.9312 34.4648 16.7993 34.5762 16.7026C34.6904 16.606 34.8545 16.5576 35.0684 16.5576H39.2168C39.4424 16.5576 39.6094 16.6074 39.7178 16.707C39.8291 16.8066 39.8848 16.937 39.8848 17.0981C39.8848 17.2593 39.8291 17.3896 39.7178 17.4893C39.6064 17.5859 39.4395 17.6343 39.2168 17.6343ZM44.209 22.2705L43.9014 21.4619H41.2822L40.9746 22.2881C40.8545 22.6104 40.752 22.8286 40.667 22.9429C40.582 23.0542 40.4429 23.1099 40.2495 23.1099C40.0854 23.1099 39.9404 23.0498 39.8145 22.9297C39.6885 22.8096 39.6255 22.6733 39.6255 22.521C39.6255 22.4331 39.6401 22.3423 39.6694 22.2485C39.6987 22.1548 39.7471 22.0244 39.8145 21.8574L41.4624 17.6738C41.5093 17.5537 41.5649 17.4102 41.6294 17.2432C41.6968 17.0732 41.7671 16.9326 41.8403 16.8213C41.9165 16.71 42.0146 16.6206 42.1348 16.5532C42.2578 16.4829 42.4087 16.4478 42.5874 16.4478C42.769 16.4478 42.9199 16.4829 43.04 16.5532C43.1631 16.6206 43.2612 16.7085 43.3345 16.8169C43.4106 16.9253 43.4736 17.0425 43.5234 17.1685C43.5762 17.2915 43.6421 17.457 43.7212 17.665L45.4043 21.8223C45.5361 22.1387 45.6021 22.3687 45.6021 22.5122C45.6021 22.6616 45.5391 22.7993 45.4131 22.9253C45.29 23.0483 45.1406 23.1099 44.9648 23.1099C44.8623 23.1099 44.7744 23.0908 44.7012 23.0527C44.6279 23.0176 44.5664 22.9692 44.5166 22.9077C44.4668 22.8433 44.4126 22.7466 44.354 22.6177C44.2983 22.4858 44.25 22.3701 44.209 22.2705ZM41.625 20.4819H43.5498L42.5786 17.8232L41.625 20.4819ZM48.3179 20.2446H47.8608V22.3145C47.8608 22.5869 47.8008 22.7876 47.6807 22.9165C47.5605 23.0454 47.4038 23.1099 47.2104 23.1099C47.0024 23.1099 46.8413 23.0425 46.7271 22.9077C46.6128 22.7729 46.5557 22.5752 46.5557 22.3145V17.3574C46.5557 17.0762 46.6187 16.8726 46.7446 16.7466C46.8706 16.6206 47.0742 16.5576 47.3555 16.5576H49.478C49.771 16.5576 50.0215 16.5708 50.2295 16.5972C50.4375 16.6206 50.625 16.6704 50.792 16.7466C50.9941 16.8315 51.1729 16.9531 51.3281 17.1113C51.4834 17.2695 51.6006 17.4541 51.6797 17.665C51.7617 17.873 51.8027 18.0942 51.8027 18.3286C51.8027 18.8091 51.6665 19.1929 51.394 19.48C51.1245 19.7671 50.7144 19.9707 50.1636 20.0908C50.395 20.2139 50.6162 20.3955 50.8271 20.6357C51.0381 20.876 51.2256 21.1323 51.3896 21.4048C51.5566 21.6743 51.6855 21.9189 51.7764 22.1387C51.8701 22.3555 51.917 22.5049 51.917 22.5869C51.917 22.6719 51.8892 22.7568 51.8335 22.8418C51.7808 22.9238 51.7075 22.9883 51.6138 23.0352C51.52 23.085 51.4116 23.1099 51.2886 23.1099C51.1421 23.1099 51.019 23.0747 50.9194 23.0044C50.8198 22.937 50.7334 22.8506 50.6602 22.7451C50.5898 22.6396 50.4932 22.4844 50.3701 22.2793L49.8472 21.4092C49.6597 21.0898 49.4912 20.8467 49.3418 20.6797C49.1953 20.5127 49.0459 20.3984 48.8936 20.3369C48.7412 20.2754 48.5493 20.2446 48.3179 20.2446ZM49.0649 17.5376H47.8608V19.3086H49.0298C49.3433 19.3086 49.6069 19.2822 49.8208 19.2295C50.0347 19.1738 50.1973 19.0815 50.3086 18.9526C50.4229 18.8208 50.48 18.6406 50.48 18.4121C50.48 18.2334 50.4346 18.0767 50.3438 17.9419C50.2529 17.8042 50.127 17.7017 49.9658 17.6343C49.8135 17.5698 49.5132 17.5376 49.0649 17.5376ZM53.0947 22.3145V17.2388C53.0947 16.9751 53.1548 16.7773 53.2749 16.6455C53.395 16.5137 53.5503 16.4478 53.7407 16.4478C53.937 16.4478 54.0952 16.5137 54.2153 16.6455C54.3384 16.7744 54.3999 16.9722 54.3999 17.2388V22.3145C54.3999 22.5811 54.3384 22.7803 54.2153 22.9121C54.0952 23.0439 53.937 23.1099 53.7407 23.1099C53.5532 23.1099 53.3979 23.0439 53.2749 22.9121C53.1548 22.7773 53.0947 22.5781 53.0947 22.3145ZM59.9854 22.2705L59.6777 21.4619H57.0586L56.751 22.2881C56.6309 22.6104 56.5283 22.8286 56.4434 22.9429C56.3584 23.0542 56.2192 23.1099 56.0259 23.1099C55.8618 23.1099 55.7168 23.0498 55.5908 22.9297C55.4648 22.8096 55.4019 22.6733 55.4019 22.521C55.4019 22.4331 55.4165 22.3423 55.4458 22.2485C55.4751 22.1548 55.5234 22.0244 55.5908 21.8574L57.2388 17.6738C57.2856 17.5537 57.3413 17.4102 57.4058 17.2432C57.4731 17.0732 57.5435 16.9326 57.6167 16.8213C57.6929 16.71 57.791 16.6206 57.9111 16.5532C58.0342 16.4829 58.1851 16.4478 58.3638 16.4478C58.5454 16.4478 58.6963 16.4829 58.8164 16.5532C58.9395 16.6206 59.0376 16.7085 59.1108 16.8169C59.187 16.9253 59.25 17.0425 59.2998 17.1685C59.3525 17.2915 59.4185 17.457 59.4976 17.665L61.1807 21.8223C61.3125 22.1387 61.3784 22.3687 61.3784 22.5122C61.3784 22.6616 61.3154 22.7993 61.1895 22.9253C61.0664 23.0483 60.917 23.1099 60.7412 23.1099C60.6387 23.1099 60.5508 23.0908 60.4775 23.0527C60.4043 23.0176 60.3428 22.9692 60.293 22.9077C60.2432 22.8433 60.189 22.7466 60.1304 22.6177C60.0747 22.4858 60.0264 22.3701 59.9854 22.2705ZM57.4014 20.4819H59.3262L58.355 17.8232L57.4014 20.4819ZM64.0415 17.23L66.5508 21.0269V17.1948C66.5508 16.9458 66.6035 16.7598 66.709 16.6367C66.8174 16.5107 66.9624 16.4478 67.144 16.4478C67.3315 16.4478 67.4795 16.5107 67.5879 16.6367C67.6963 16.7598 67.7505 16.9458 67.7505 17.1948V22.2617C67.7505 22.8271 67.5161 23.1099 67.0474 23.1099C66.9302 23.1099 66.8247 23.0923 66.731 23.0571C66.6372 23.0249 66.5493 22.9722 66.4673 22.8989C66.3853 22.8257 66.3091 22.7407 66.2388 22.644C66.1685 22.5444 66.0981 22.4434 66.0278 22.3408L63.5801 18.5879V22.3628C63.5801 22.6089 63.5229 22.7949 63.4087 22.9209C63.2944 23.0469 63.1479 23.1099 62.9692 23.1099C62.7847 23.1099 62.6367 23.0469 62.5254 22.9209C62.4141 22.792 62.3584 22.606 62.3584 22.3628V17.3926C62.3584 17.1816 62.3818 17.0161 62.4287 16.896C62.4844 16.7642 62.5767 16.6572 62.7056 16.5752C62.8345 16.4902 62.9736 16.4478 63.123 16.4478C63.2402 16.4478 63.3398 16.4668 63.4219 16.5049C63.5068 16.543 63.5801 16.5942 63.6416 16.6587C63.7061 16.7231 63.7705 16.8066 63.835 16.9092C63.9023 17.0117 63.9712 17.1187 64.0415 17.23Z" fill="#231F20"/>
<path d="M6.125 21C3.29454 21 1 19.401 1 17.4286V4.57143C1 2.59898 3.29454 1 6.125 1H77.875C80.7055 1 83 2.59898 83 4.57143" stroke="black" stroke-width="0.5" stroke-linecap="round"/>
</svg>
