<svg width="62" height="62" viewBox="0 0 62 62" fill="none" xmlns="http://www.w3.org/2000/svg">
<mask id="mask0_17_1590" style="mask-type:luminance" maskUnits="userSpaceOnUse" x="0" y="0" width="62" height="62">
<path d="M61.5 0H0V61.5H61.5V0Z" fill="white"/>
</mask>
<g mask="url(#mask0_17_1590)">
<path d="M49.7699 49.7699C49.1499 50.3899 48.4999 50.9799 47.8099 51.5399C47.1199 52.0999 46.4199 52.6199 45.6899 53.1099C44.9599 53.5999 44.1999 54.0499 43.4299 54.4699C42.6499 54.8899 41.8599 55.2599 41.0399 55.5999C40.2299 55.9399 39.3999 56.2299 38.5499 56.4899C37.7099 56.7499 36.8499 56.9599 35.9899 57.1299C35.1299 57.2999 34.2599 57.4299 33.3799 57.5199C32.4999 57.6099 31.6199 57.6499 30.7399 57.6499C29.8599 57.6499 28.9799 57.6099 28.0999 57.5199C27.2199 57.4299 26.3499 57.2999 25.4899 57.1299C24.6299 56.9599 23.7699 56.7399 22.9299 56.4899C22.0899 56.2299 21.2599 55.9399 20.4399 55.5999C19.6299 55.2599 18.8299 54.8899 18.0499 54.4699C17.2699 54.0499 16.5199 53.5999 15.7899 53.1099C15.0599 52.6199 14.3499 52.0999 13.6699 51.5399C12.9899 50.9799 12.3399 50.3899 11.7099 49.7699C11.0899 49.1499 10.4999 48.4999 9.93993 47.8099C9.37993 47.1299 8.85993 46.4199 8.36993 45.6899C7.87993 44.9599 7.42993 44.1999 7.00993 43.4299C6.58993 42.6499 6.21993 41.8599 5.87993 41.0399C5.53993 40.2299 5.24993 39.3999 4.98993 38.5599C4.72993 37.7199 4.51993 36.8599 4.34993 35.9999C4.17993 35.1399 4.04993 34.2699 3.95993 33.3899C3.86993 32.5099 3.82993 31.6299 3.82993 30.7499C3.82993 29.8699 3.86993 28.9899 3.95993 28.1099C4.04993 27.2299 4.17993 26.3599 4.34993 25.4999C4.51993 24.6399 4.73993 23.7799 4.98993 22.9399C5.24993 22.0999 5.53993 21.2699 5.87993 20.4599C6.21993 19.6499 6.58993 18.8499 7.00993 18.0699C7.42993 17.2899 7.87993 16.5399 8.36993 15.8099C8.85993 15.0799 9.37993 14.3699 9.93993 13.6899C10.4999 13.0099 11.0899 12.3599 11.7099 11.7299C12.3299 11.1099 12.9799 10.5199 13.6699 9.95991C14.3499 9.39991 15.0599 8.87991 15.7899 8.38991C16.5199 7.89991 17.2799 7.44991 18.0499 7.02991C18.8199 6.60991 19.6199 6.23991 20.4399 5.89991C21.2499 5.55991 22.0799 5.26991 22.9299 5.00991C23.7699 4.74991 24.6299 4.53991 25.4899 4.36991C26.3499 4.19991 27.2199 4.06991 28.0999 3.97991C28.9799 3.88991 29.8599 3.84991 30.7399 3.84991C31.6199 3.84991 32.4999 3.88991 33.3799 3.97991C34.2599 4.06991 35.1299 4.19991 35.9899 4.36991C36.8499 4.53991 37.7099 4.75991 38.5499 5.00991C39.3899 5.26991 40.2199 5.55991 41.0399 5.89991C41.8499 6.23991 42.6499 6.60991 43.4299 7.02991C44.2099 7.44991 44.9599 7.89991 45.6899 8.38991C46.4199 8.87991 47.1299 9.39991 47.8099 9.95991C48.4899 10.5199 49.1399 11.1099 49.7699 11.7299C50.3899 12.3499 50.9799 12.9999 51.5399 13.6899C52.0999 14.3699 52.6199 15.0799 53.1099 15.8099C53.5999 16.5399 54.0499 17.2999 54.4699 18.0699C54.8899 18.8499 55.2599 19.6399 55.5999 20.4599C55.9399 21.2699 56.2299 22.0999 56.4899 22.9499C56.7499 23.7899 56.9599 24.6499 57.1299 25.5099C57.2999 26.3699 57.4299 27.2399 57.5199 28.1199C57.6099 28.9999 57.6499 29.8799 57.6499 30.7599C57.6499 31.6399 57.6099 32.5199 57.5199 33.3999C57.4299 34.2799 57.2999 35.1499 57.1299 36.0099C56.9599 36.8699 56.7399 37.7299 56.4899 38.5699C56.2299 39.4099 55.9399 40.2399 55.5999 41.0499C55.2599 41.8599 54.8899 42.6599 54.4699 43.4399C54.0499 44.2199 53.5999 44.9699 53.1099 45.6999C52.6199 46.4299 52.0999 47.1399 51.5399 47.8199C50.9799 48.4999 50.3899 49.1499 49.7699 49.7799V49.7699ZM50.6099 10.8899C49.9599 10.2399 49.2799 9.61991 48.5699 9.03991C47.8599 8.45991 47.1199 7.90991 46.3599 7.39991C45.5999 6.88991 44.8099 6.41991 43.9999 5.97991C43.1899 5.54991 42.3599 5.14991 41.5099 4.79991C40.6599 4.44991 39.7899 4.13991 38.9099 3.86991C38.0299 3.59991 37.1399 3.37991 36.2399 3.19991C35.3399 3.01991 34.4299 2.88991 33.5099 2.79991C32.5899 2.70991 31.6799 2.65991 30.7599 2.65991C29.8399 2.65991 28.9199 2.70991 28.0099 2.79991C27.0999 2.88991 26.1899 3.02991 25.2799 3.19991C24.3799 3.37991 23.4899 3.59991 22.6099 3.86991C21.7299 4.13991 20.8599 4.44991 20.0099 4.79991C19.1599 5.14991 18.3299 5.53991 17.5199 5.97991C16.7099 6.40991 15.9199 6.88991 15.1599 7.39991C14.3999 7.90991 13.6599 8.45991 12.9499 9.03991C12.2399 9.61991 11.5599 10.2399 10.9099 10.8899C10.2599 11.5399 9.63993 12.2199 9.05993 12.9299C8.47993 13.6399 7.92993 14.3799 7.41993 15.1399C6.90993 15.8999 6.43993 16.6899 5.99993 17.4999C5.56993 18.3099 5.16993 19.1399 4.81993 19.9899C4.46993 20.8399 4.15993 21.7099 3.88993 22.5899C3.61993 23.4699 3.39993 24.3599 3.21993 25.2599C3.03993 26.1599 2.90993 27.0699 2.81993 27.9899C2.72993 28.9099 2.67993 29.8199 2.67993 30.7399C2.67993 31.6599 2.72993 32.5799 2.81993 33.4899C2.90993 34.3999 3.03993 35.3099 3.21993 36.2199C3.39993 37.1199 3.61993 38.0099 3.88993 38.8899C4.15993 39.7699 4.46993 40.6399 4.81993 41.4899C5.16993 42.3399 5.55993 43.1699 5.99993 43.9799C6.42993 44.7899 6.90993 45.5799 7.41993 46.3399C7.92993 47.0999 8.47993 47.8399 9.05993 48.5499C9.63993 49.2599 10.2599 49.9399 10.9099 50.5899C11.5599 51.2399 12.2399 51.8599 12.9499 52.4399C13.6599 53.0199 14.3999 53.5699 15.1599 54.0799C15.9199 54.5899 16.7099 55.0599 17.5199 55.4999C18.3299 55.9299 19.1599 56.3299 20.0099 56.6799C20.8599 57.0299 21.7299 57.3399 22.6099 57.6099C23.4899 57.8799 24.3799 58.0999 25.2799 58.2799C26.1799 58.4599 27.0899 58.5899 28.0099 58.6799C28.9299 58.7699 29.8399 58.8199 30.7599 58.8199C31.6799 58.8199 32.5999 58.7699 33.5099 58.6799C34.4299 58.5899 35.3299 58.4499 36.2399 58.2799C37.1399 58.0999 38.0299 57.8799 38.9099 57.6099C39.7899 57.3399 40.6599 57.0299 41.5099 56.6799C42.3599 56.3299 43.1899 55.9399 43.9999 55.4999C44.8099 55.0599 45.5999 54.5899 46.3599 54.0799C47.1199 53.5699 47.8599 53.0199 48.5699 52.4399C49.2799 51.8599 49.9599 51.2399 50.6099 50.5899C51.2599 49.9399 51.8799 49.2599 52.4599 48.5499C53.0399 47.8399 53.5899 47.0999 54.0999 46.3399C54.6099 45.5799 55.0799 44.7899 55.5199 43.9799C55.9499 43.1699 56.3499 42.3399 56.6999 41.4899C57.0499 40.6399 57.3599 39.7699 57.6299 38.8899C57.8999 38.0099 58.1199 37.1199 58.2999 36.2199C58.4799 35.3199 58.6099 34.4099 58.6999 33.4899C58.7899 32.5699 58.8399 31.6599 58.8399 30.7399C58.8399 29.8199 58.7899 28.8999 58.6999 27.9899C58.6099 27.0699 58.4799 26.1699 58.2999 25.2599C58.1199 24.3599 57.8999 23.4699 57.6299 22.5899C57.3599 21.7099 57.0499 20.8399 56.6999 19.9899C56.3499 19.1399 55.9599 18.3099 55.5199 17.4999C55.0899 16.6899 54.6099 15.8999 54.0999 15.1399C53.5899 14.3799 53.0399 13.6399 52.4599 12.9299C51.8799 12.2199 51.2599 11.5399 50.6099 10.8899Z" fill="#0ED88F"/>
<path d="M25.32 16.73C23.85 16.09 22.31 15.75 20.71 15.71L24.09 21.56L25.33 16.73H25.32Z" fill="#0ED88F"/>
<path d="M27.3999 29.77C27.3999 29.77 27.3999 29.72 27.3999 29.69L23.8999 23.63L18.1699 22.03C18.1399 23.94 18.5199 25.77 19.3099 27.51L27.4099 29.77H27.3999Z" fill="#0ED88F"/>
<path d="M19.67 16.3098C18.9 17.7198 18.43 19.2198 18.25 20.8198L23.05 22.1598L19.67 16.3098Z" fill="#0ED88F"/>
<path d="M40.7999 15.71C39.1999 15.75 37.6599 16.09 36.1899 16.73L37.4299 21.56L40.8099 15.71H40.7999Z" fill="#0ED88F"/>
<path d="M36.5699 23.04L35.0899 17.27C33.4199 18.2 32.0299 19.44 30.9199 21L33.0199 29.19L36.5699 23.04Z" fill="#0ED88F"/>
<path d="M27.3799 27.27C27.5499 25.19 28.1599 23.24 29.2099 21.44C29.4499 21.02 29.7099 20.62 29.9999 20.23C28.9899 19.02 27.7999 18.03 26.4199 17.27L24.9399 23.04L27.3899 27.28L27.3799 27.27Z" fill="#0ED88F"/>
<path d="M35.48 44.6599H36.88L36.18 42.9199L35.48 44.6599Z" fill="#0ED88F"/>
<path d="M43.25 20.8098C43.07 19.2198 42.59 17.7098 41.83 16.2998L38.45 22.1498L43.25 20.8098Z" fill="#0ED88F"/>
<path d="M20.0798 28.96C20.5598 29.74 21.1198 30.46 21.7498 31.12C22.3798 31.78 23.0898 32.36 23.8498 32.87C24.6098 33.38 25.4198 33.79 26.2798 34.12C27.1398 34.45 28.0198 34.68 28.9198 34.81C28.2898 33.63 27.8398 32.38 27.5798 31.06L20.0698 28.96H20.0798Z" fill="#0ED88F"/>
<path d="M44.98 46.8598H43.71L41.3101 43.9598V46.8598H39.8V41.4098H41.07L43.4701 44.3098V41.4098H44.98V46.8598ZM37.76 46.8598L37.3301 45.7998H35.03L34.6 46.8598H33.03L35.43 41.4098H36.9501L39.3601 46.8598H37.76ZM29.16 44.9398C29.29 45.1798 29.4701 45.3598 29.7001 45.4898C29.9501 45.6298 30.22 45.6898 30.5 45.6898C30.7901 45.6898 31.07 45.6298 31.33 45.5098V44.0198H32.69V46.2798C32.36 46.5098 32 46.6798 31.62 46.7898C31.22 46.9098 30.82 46.9698 30.41 46.9698C29.87 46.9698 29.35 46.8598 28.87 46.6098C28.42 46.3798 28.06 46.0398 27.8 45.5998C27.54 45.1498 27.41 44.6598 27.41 44.1398C27.41 43.6198 27.54 43.1298 27.8 42.6798C28.06 42.2398 28.43 41.8998 28.88 41.6698C29.37 41.4198 29.89 41.2998 30.44 41.3098C30.91 41.3098 31.37 41.3898 31.81 41.5698C32.21 41.7298 32.54 41.9798 32.82 42.3098L31.84 43.1998C31.49 42.7898 31.0501 42.5898 30.5201 42.5898C30.3101 42.5798 30.1101 42.6098 29.91 42.6798C29.71 42.7498 29.54 42.8698 29.39 43.0098C29.24 43.1598 29.13 43.3298 29.06 43.5298C28.99 43.7298 28.96 43.9298 28.97 44.1398C28.97 44.4298 29.0301 44.6898 29.16 44.9498V44.9398ZM26.84 46.8598H22.47V41.4098H26.74V42.5998H23.99V43.5198H26.41V44.6698H23.99V45.6698H26.84V46.8598ZM19.82 46.8598H18.3L15.97 41.4098H17.64L19.12 44.9598L20.63 41.4098H22.16L19.83 46.8598H19.82ZM16.97 21.8098C17.05 19.2698 17.78 16.9298 19.18 14.7998C19.29 14.6298 19.45 14.5398 19.65 14.5298C20.7 14.4698 21.73 14.5298 22.76 14.7198C23.79 14.8998 24.7901 15.1998 25.75 15.6098C26.71 16.0198 27.62 16.5398 28.46 17.1498C29.3 17.7698 30.07 18.4698 30.75 19.2698C31.8601 17.9798 33.17 16.9298 34.68 16.1198C36.92 14.9198 39.3101 14.3798 41.8601 14.5198C42.0601 14.5298 42.2201 14.6198 42.3301 14.7898C43.7201 16.9198 44.46 19.2598 44.5401 21.7998C44.5801 23.0998 44.44 24.3698 44.12 25.6298C43.8 26.8898 43.32 28.0798 42.67 29.1998C42.02 30.3198 41.23 31.3298 40.3 32.2398C39.37 33.1398 38.34 33.8998 37.19 34.5198C35.19 35.5998 33.0501 36.1398 30.7701 36.1398C30.6401 36.1398 30.51 36.1398 30.38 36.1398L28.85 38.7998C28.77 38.9398 28.65 39.0398 28.49 39.0798C28.33 39.1198 28.18 39.0998 28.0401 39.0198C27.9001 38.9398 27.8 38.8198 27.76 38.6598C27.72 38.4998 27.74 38.3498 27.82 38.2098L29.07 36.0498C28.22 35.9398 27.39 35.7498 26.58 35.4798C25.77 35.2098 24.99 34.8798 24.24 34.4698C23.49 34.0598 22.78 33.5898 22.12 33.0498C21.46 32.5098 20.85 31.9198 20.29 31.2598C19.74 30.6098 19.25 29.9098 18.82 29.1698C18.39 28.4298 18.04 27.6498 17.76 26.8498C17.48 26.0398 17.27 25.2198 17.14 24.3698C17.01 23.5298 16.96 22.6798 16.98 21.8198L16.97 21.8098ZM30.75 7.0498C17.66 7.0498 7.05005 17.6598 7.05005 30.7498C7.05005 43.8398 17.66 54.4498 30.75 54.4498C43.84 54.4498 54.4501 43.8398 54.4501 30.7498C54.4501 17.6598 43.84 7.0498 30.75 7.0498Z" fill="#0ED88F"/>
<path d="M28.5399 28.7999C28.5999 30.7699 29.0999 32.6199 30.0399 34.3499L32.1599 30.6699L30.0399 22.3999C28.9599 24.3999 28.4599 26.5299 28.5299 28.7999H28.5399Z" fill="#0ED88F"/>
<path d="M31.0698 34.94C33.0398 34.89 34.8898 34.4 36.6198 33.47C38.6198 32.4 40.2198 30.9 41.4098 28.97L33.1898 31.27L31.0698 34.95V34.94Z" fill="#0ED88F"/>
<path d="M34.05 29.78L42.19 27.5C42.98 25.76 43.3601 23.94 43.3301 22.02L37.6 23.62L34.05 29.77V29.78Z" fill="#0ED88F"/>
</g>
</svg>
