<svg width="55" height="57" viewBox="0 0 55 57" fill="none" xmlns="http://www.w3.org/2000/svg">
<circle cx="27.5" cy="27.5" r="27.5" fill="#0ED88F"/>
<path d="M44.7291 20.7615C46.323 24.8366 46.4207 29.3448 45.005 33.4853C43.5894 37.6257 40.7519 41.1303 36.9966 43.3765C33.2414 45.6227 28.8115 46.4651 24.4939 45.7541C20.1763 45.0431 16.2504 42.8246 13.4138 39.4928C10.5771 36.1611 9.01331 31.9316 9.00008 27.5559C8.98686 23.1802 10.5251 18.9414 13.3416 15.5925C16.158 12.2436 20.0704 10.0015 24.3836 9.26441C28.6969 8.5273 33.1318 9.34293 36.9005 11.5664" stroke="white" stroke-linecap="round"/>
<path d="M32.0608 27.4645C35.1673 23.4767 37.9109 19.2208 40.2746 14.7639L41.0765 13.2475L39.3966 15.9368C37.1005 19.6062 34.5426 23.0997 31.7231 26.3922L30.1698 28.2018C29.9925 26.5514 29.849 22.3709 32.1114 17.9977C32.9556 16.364 34.1205 14.9147 35.581 13.8004C38.0882 11.8903 41.4902 11.7898 42.6973 9C42.6973 9 46.1838 16.5567 42.3934 22.7227C38.7297 28.3442 32.829 28.9139 30.9127 28.9474L32.0692 27.4645H32.0608Z" fill="white"/>
<path d="M31.8403 28.2813C31.9973 28.1113 32.1592 27.9425 32.3263 27.7754C36.4078 23.6939 36.918 26.2448 33.3467 27.2652C32.8208 27.4155 32.3171 27.7759 31.8403 28.2813C31.7921 28.3336 31.7443 28.386 31.697 28.4385C29.2888 31.1675 27.5988 37.5126 27.2792 38.7779C27.2577 38.8632 27.1451 38.8773 27.0973 38.8034L16.0999 21.8074C16.0568 21.7409 16.1046 21.6531 16.1838 21.6531H21.0343C21.0751 21.6531 21.1119 21.678 21.1271 21.7159L27.0994 36.6466C27.1363 36.739 27.2762 36.7298 27.3006 36.6334C27.5817 35.5216 28.7041 31.7605 31.697 28.4385C31.7445 28.3847 31.7923 28.3323 31.8403 28.2813Z" fill="white"/>
<path d="M32.3263 27.7754C28.8588 31.2429 27.6006 35.4469 27.3006 36.6334C27.2762 36.7298 27.1363 36.739 27.0994 36.6466L21.1271 21.7159C21.1119 21.678 21.0751 21.6531 21.0343 21.6531H16.1838C16.1046 21.6531 16.0568 21.7409 16.0999 21.8074L27.0973 38.8034C27.1451 38.8773 27.2577 38.8632 27.2792 38.7779C27.6676 37.24 30.0804 28.1985 33.3467 27.2652C36.918 26.2448 36.4078 23.6939 32.3263 27.7754Z" stroke="white"/>
<path d="M6.43955 31.4293L6.86705 32.992L3.68651 35.0314L7.45778 35.1514L7.87265 36.6679L2.54887 36.1966L2.10604 34.5779L6.43955 31.4293Z" fill="white"/>
<path d="M8.6664 37.5976L10.8549 41.123L9.94592 41.6873L8.57588 39.4803L7.89927 39.9003L9.17016 41.9476L8.30188 42.4866L7.03099 40.4393L6.19175 40.9603L7.60145 43.2311L6.63734 43.8296L4.40923 40.2404L8.6664 37.5976Z" fill="white"/>
<path d="M12.0587 46.5225L12.7513 45.7434L14.5394 47.3331L13.1201 48.9297C12.5703 48.8586 12.1257 48.7484 11.786 48.5989C11.4496 48.4492 11.1008 48.2138 10.7398 47.8929C10.2953 47.4977 9.99996 47.0995 9.85372 46.6981C9.70918 46.2982 9.69265 45.8795 9.80414 45.4421C9.91734 45.0061 10.1465 44.5939 10.4917 44.2057C10.8551 43.797 11.255 43.5168 11.6916 43.3653C12.1297 43.212 12.581 43.2017 13.0456 43.3342C13.4068 43.4388 13.802 43.6819 14.2311 44.0635C14.6449 44.4314 14.9207 44.7436 15.0585 45.0002C15.1979 45.2583 15.2645 45.5264 15.2582 45.8044C15.2552 46.0822 15.1802 46.3723 15.0334 46.6746L13.7399 45.8815C13.8196 45.6992 13.8374 45.5215 13.7933 45.3481C13.751 45.1763 13.6446 45.0147 13.4743 44.8633C13.2206 44.6377 12.9392 44.5461 12.6302 44.5885C12.3244 44.6306 12.0019 44.8425 11.6628 45.2239C11.3025 45.6292 11.1209 45.9861 11.118 46.2945C11.1168 46.6045 11.2525 46.8806 11.525 47.1228C11.6544 47.2379 11.7945 47.3289 11.9453 47.3959C12.0961 47.4629 12.2875 47.5187 12.5193 47.5632L12.8327 47.2107L12.0587 46.5225Z" fill="white"/>
<path d="M17.1576 46.0858L20.915 47.8464L20.4611 48.8151L18.1089 47.7129L17.771 48.4341L19.953 49.4565L19.5193 50.3819L17.3373 49.3595L16.9182 50.254L19.3385 51.3881L18.857 52.4156L15.0316 50.6231L17.1576 46.0858Z" fill="white"/>
<path d="M22.508 48.1282L27.162 48.83L26.9775 50.0535L25.416 49.818L24.8534 53.5493L23.3223 53.3184L23.885 49.5872L22.3235 49.3517L22.508 48.1282Z" fill="white"/>
<path d="M32.5441 52.2846L30.7974 52.5287L30.6716 53.3815L29.1043 53.6005L30.2759 48.3773L31.9481 48.1436L34.5069 52.8455L32.9023 53.0697L32.5441 52.2846ZM32.0726 51.2565L31.2749 49.5492L30.9792 51.4093L32.0726 51.2565Z" fill="white"/>
<path d="M37.1517 51.454L35.1675 46.8528L37.5371 45.8309C37.9765 45.6414 38.3286 45.5343 38.5933 45.5094C38.858 45.4846 39.1058 45.544 39.3365 45.6877C39.5663 45.8293 39.7444 46.0466 39.8707 46.3395C39.9808 46.5948 40.0216 46.839 39.9931 47.0721C39.9637 47.3032 39.8786 47.5173 39.7378 47.7145C39.648 47.8401 39.5079 47.9725 39.3173 48.1118C39.5111 48.0952 39.6589 48.0984 39.7607 48.1215C39.8293 48.1366 39.9393 48.1847 40.0909 48.2657C40.2446 48.3459 40.3526 48.4122 40.415 48.4647L41.6775 49.5022L40.0706 50.1952L38.7047 49.1167C38.5299 48.9761 38.3932 48.8949 38.2944 48.873C38.1612 48.8461 38.0297 48.8606 37.9 48.9165L37.7744 48.9707L38.5798 50.8381L37.1517 51.454ZM37.3995 48.1013L37.999 47.8428C38.0639 47.8148 38.1804 47.7397 38.3485 47.6176C38.4346 47.5581 38.4902 47.4771 38.5154 47.3744C38.5427 47.2708 38.5347 47.1688 38.4914 47.0684C38.4273 46.9198 38.331 46.8261 38.2026 46.7872C38.0742 46.7483 37.8802 46.7848 37.6208 46.8966L36.9962 47.166L37.3995 48.1013Z" fill="white"/>
<path d="M40.5544 43.8996L41.7838 42.9527L44.8414 46.9224L43.6121 47.8693L40.5544 43.8996Z" fill="white"/>
<path d="M48.9448 41.1581L47.8561 42.5456L48.3571 43.2471L47.3802 44.4922L44.6006 39.9175L45.6428 38.5891L50.7475 40.2004L49.7474 41.4751L48.9448 41.1581ZM47.8919 40.7447L46.133 40.0685L47.2104 41.6133L47.8919 40.7447Z" fill="white"/>
<path d="M47.0755 35.915L47.6074 34.5706L50.8791 33.836L48.3016 32.8162L48.8385 31.4591L53.4978 33.3026L52.9609 34.6597L49.712 35.3923L52.2705 36.4046L51.7348 37.7585L47.0755 35.915Z" fill="white"/>
</svg>
